<svg xmlns="http://www.w3.org/2000/svg" width="371" height="379" viewBox="0 0 371 379" fill="none"><g clip-path="url(#clip0_288_739)"><path d="M185.5 354.706C269.71 354.706 338.993 289.873 346.034 207.546C350.835 205.89 354.298 201.385 354.298 196.038C354.298 190.691 351.01 186.391 346.383 184.647C341.64 100.141 271.311 32.8377 185.5 32.8377C142.377 32.8377 103.153 49.8959 74.2004 77.561C72.7164 76.9217 71.0869 76.5729 69.3701 76.5729C62.6194 76.5729 57.1199 82.0362 57.1199 88.8072C57.1199 90.9286 57.7018 92.9046 58.6912 94.6773C37.2168 122.023 24.3555 156.43 24.3555 193.83C24.3555 208.244 26.2759 222.483 30.0296 236.257C29.0112 237.507 28.3419 239.105 28.3419 240.849C28.3419 244.859 31.6009 248.114 35.6164 248.114C39.6319 248.114 42.8909 244.859 42.8909 240.849C42.8909 237.856 41.0868 235.298 38.4971 234.165C34.9181 221.088 33.0849 207.517 33.0849 193.83C33.0849 158.609 45.1606 126.149 65.3546 100.315C66.6349 100.751 67.9734 101.041 69.3701 101.041C76.1209 101.041 81.6204 95.5782 81.6204 88.8072C81.6204 86.9764 81.1839 85.2328 80.4565 83.6636C107.809 57.6259 144.821 41.5848 185.5 41.5848C266.48 41.5848 332.911 104.994 337.625 184.705C333.057 186.478 329.798 190.895 329.798 196.068C329.798 201.24 332.882 205.483 337.276 207.343C330.38 284.962 264.967 346.017 185.471 346.017C160.185 346.017 135.132 339.711 113.046 327.767C112.93 323.873 109.729 320.735 105.801 320.735C101.873 320.735 98.5264 323.989 98.5264 328C98.5264 332.01 101.785 335.265 105.801 335.265C106.994 335.265 108.1 334.945 109.089 334.451L108.623 335.294C132.047 348.022 158.643 354.735 185.471 354.735L185.5 354.706ZM69.3701 95.1713C65.8202 95.1713 62.9395 92.2944 62.9395 88.7491C62.9395 85.2038 65.8202 82.3268 69.3701 82.3268C72.9201 82.3268 75.8008 85.2038 75.8008 88.7491C75.8008 92.2944 72.9201 95.1713 69.3701 95.1713ZM335.617 196.038C335.617 192.493 338.498 189.616 342.048 189.616C345.598 189.616 348.479 192.493 348.479 196.038C348.479 199.584 345.598 202.461 342.048 202.461C338.498 202.461 335.617 199.584 335.617 196.038Z" fill="url(#paint0_linear_288_739)"></path><path d="M371 193.743C371 161.05 362.416 130.363 347.489 103.686C347.896 102.785 348.1 101.768 348.1 100.722C348.1 96.6535 344.783 93.3406 340.709 93.3406C336.635 93.3406 333.318 96.6535 333.318 100.722C333.318 104.79 336.461 107.9 340.389 108.074L340.127 108.336C354.21 133.676 362.271 162.765 362.271 193.743C362.271 240.064 344.288 282.259 314.957 313.79C313.444 313.121 311.785 312.743 310.04 312.743C303.289 312.743 297.789 318.207 297.789 324.978C297.789 326.489 298.109 327.942 298.604 329.278C267.935 354.851 228.478 370.282 185.5 370.282C142.522 370.282 102.192 354.503 71.3775 328.407C72.0467 326.896 72.3959 325.268 72.3959 323.525C72.3959 316.783 66.9255 311.29 60.1456 311.29C58.2252 311.29 56.4502 311.755 54.8498 312.54C26.2173 281.155 8.72941 239.454 8.72941 193.743C8.72941 103.337 77.1389 28.6532 164.957 18.4531C167.081 22.0275 170.98 24.4685 175.461 24.4685C180.437 24.4685 184.685 21.5044 186.606 17.2617C213.114 17.436 238.284 23.4514 260.806 34.1164C260.806 34.1164 260.806 34.1455 260.806 34.1746C260.806 38.243 264.123 41.5558 268.197 41.5558C272.27 41.5558 275.588 38.243 275.588 34.1746C275.588 30.1062 272.27 26.7933 268.197 26.7933C267.498 26.7933 266.829 26.9096 266.189 27.113C242.212 15.489 215.384 8.83428 187.042 8.6018C185.471 3.6616 180.903 0.0581665 175.432 0.0581665C169.496 0.0581665 164.549 4.30092 163.415 9.90949C71.523 20.7779 0 99.0655 0 193.743C0 241.924 18.5355 285.892 48.8556 318.875C48.2736 320.299 47.9245 321.868 47.9245 323.525C47.9245 330.267 53.3949 335.759 60.1747 335.759C61.9788 335.759 63.6956 335.352 65.2378 334.626C97.653 362.262 139.641 379 185.5 379C231.359 379 272.212 362.727 304.424 335.788C306.111 336.66 308.003 337.212 310.04 337.212C316.79 337.212 322.29 331.749 322.29 324.978C322.29 323.176 321.883 321.461 321.155 319.921C352.057 286.822 371 242.476 371 193.743ZM175.461 5.81204C179.011 5.81204 181.892 8.68898 181.892 12.2343C181.892 15.7796 179.011 18.6565 175.461 18.6565C171.911 18.6565 169.031 15.7796 169.031 12.2343C169.031 8.68898 171.911 5.81204 175.461 5.81204ZM60.1747 329.947C56.6248 329.947 53.7441 327.07 53.7441 323.525C53.7441 319.979 56.6248 317.102 60.1747 317.102C63.7247 317.102 66.6054 319.979 66.6054 323.525C66.6054 327.07 63.7247 329.947 60.1747 329.947ZM310.04 331.4C306.49 331.4 303.609 328.523 303.609 324.978C303.609 321.432 306.49 318.555 310.04 318.555C313.59 318.555 316.47 321.432 316.47 324.978C316.47 328.523 313.59 331.4 310.04 331.4Z" fill="url(#paint1_linear_288_739)"></path><path d="M73.2692 275.837C74.0257 275.837 74.7532 275.75 75.4515 275.605C100.505 309.111 140.515 330.848 185.5 330.848C206.713 330.848 227.023 326.14 245.908 316.87C246.897 317.364 247.974 317.654 249.138 317.654C253.153 317.654 256.412 314.4 256.412 310.389C256.412 306.379 253.153 303.124 249.138 303.124C245.559 303.124 242.62 305.682 242.009 309.082C224.346 317.742 205.374 322.13 185.529 322.13C143.686 322.13 106.441 302.049 82.9588 271.013C84.5592 268.95 85.5486 266.393 85.5486 263.574C85.5486 256.832 80.0781 251.34 73.2983 251.34C72.4544 251.34 71.6397 251.427 70.8541 251.572C62.0082 234.165 57.0034 214.521 57.0034 193.714C57.0034 122.924 114.676 65.3267 185.559 65.3267C211.136 65.3267 234.967 72.8533 255.016 85.7559C254.754 86.7439 254.579 87.761 254.579 88.8072C254.579 95.5491 260.049 101.041 266.829 101.041C268.983 101.041 270.99 100.431 272.736 99.4431C298.139 122.924 314.114 156.459 314.114 193.685C314.114 211.615 310.476 228.905 303.347 245.179C299.885 245.731 297.208 248.695 297.208 252.328C297.208 256.338 300.467 259.593 304.482 259.593C308.498 259.593 311.757 256.338 311.757 252.328C311.757 251.252 311.495 250.206 311.087 249.305C318.886 231.753 322.843 213.068 322.843 193.714C322.843 153.814 305.675 117.867 278.352 92.7884C278.789 91.5388 279.051 90.2311 279.051 88.8362C279.051 82.0943 273.58 76.602 266.8 76.602C264.298 76.602 261.97 77.3575 260.02 78.6362C238.546 64.7165 212.969 56.6087 185.529 56.6087C109.845 56.6087 48.2449 118.1 48.2449 193.714C48.2449 216.264 53.7444 237.536 63.4631 256.309C61.95 258.343 61.048 260.842 61.048 263.545C61.048 270.287 66.5184 275.779 73.2983 275.779L73.2692 275.837ZM73.2692 257.181C76.8192 257.181 79.6999 260.058 79.6999 263.603C79.6999 267.148 76.8192 270.025 73.2692 270.025C69.7192 270.025 66.8385 267.148 66.8385 263.603C66.8385 260.058 69.7192 257.181 73.2692 257.181ZM266.771 82.4721C270.321 82.4721 273.202 85.349 273.202 88.8944C273.202 92.4397 270.321 95.3166 266.771 95.3166C263.221 95.3166 260.34 92.4397 260.34 88.8944C260.34 85.349 263.221 82.4721 266.771 82.4721Z" fill="url(#paint2_linear_288_739)"></path><path d="M143.52 186.171C139.249 193.57 137.002 201.961 137.006 210.502C137.01 219.042 139.264 227.432 143.542 234.827C147.82 242.221 153.971 248.362 161.377 252.631C168.784 256.9 177.184 259.148 185.735 259.148C194.287 259.148 202.687 256.9 210.093 252.631C217.5 248.362 223.651 242.221 227.929 234.827C232.206 227.432 234.461 219.042 234.464 210.502C234.468 201.961 232.222 193.57 227.951 186.171L185.744 121.281L143.512 186.171H143.52Z" stroke="#E5E2EC" stroke-width="12.9375" stroke-linecap="round" stroke-linejoin="round"></path><path d="M185.971 258.623V123.669L166.668 145.769L143.598 183.857L137.948 218.184L151.131 244.986L185.971 258.623Z" fill="#E5E2EC" stroke="#E5E2EC" stroke-width="3"></path></g><defs><linearGradient id="paint0_linear_288_739" x1="189.312" y1="38.3882" x2="189.312" y2="419.8" gradientUnits="userSpaceOnUse"><stop stop-color="#13FFD5"></stop><stop offset="0.19" stop-color="#13FFD5"></stop><stop offset="0.36" stop-color="#2CBFC4"></stop><stop offset="0.52" stop-color="#2CADC5"></stop><stop offset="0.67" stop-color="#2C94C7"></stop><stop offset="0.82" stop-color="#2C73C9"></stop><stop offset="0.97" stop-color="#2C4CCC"></stop><stop offset="1" stop-color="#2C43CD"></stop></linearGradient><linearGradient id="paint1_linear_288_739" x1="185.5" y1="38.3883" x2="185.5" y2="419.8" gradientUnits="userSpaceOnUse"><stop stop-color="#2CCEC3"></stop><stop offset="0.19" stop-color="#13FFD5"></stop><stop offset="0.36" stop-color="#2CBFC4"></stop><stop offset="0.52" stop-color="#2CADC5"></stop><stop offset="0.67" stop-color="#2C94C7"></stop><stop offset="0.82" stop-color="#2C73C9"></stop><stop offset="0.97" stop-color="#2C4CCC"></stop><stop offset="1" stop-color="#2C43CD"></stop></linearGradient><linearGradient id="paint2_linear_288_739" x1="185.5" y1="38.3881" x2="185.5" y2="419.8" gradientUnits="userSpaceOnUse"><stop stop-color="#13FFD5"></stop><stop offset="0.19" stop-color="#13FFD5"></stop><stop offset="0.36" stop-color="#2CBFC4"></stop><stop offset="0.52" stop-color="#2CADC5"></stop><stop offset="0.67" stop-color="#2C94C7"></stop><stop offset="0.82" stop-color="#2C73C9"></stop><stop offset="0.97" stop-color="#2C4CCC"></stop><stop offset="1" stop-color="#2C43CD"></stop></linearGradient><clipPath id="clip0_288_739"><rect width="371" height="379" fill="white"></rect></clipPath></defs></svg>