<svg width="2211" height="2410" viewBox="0 0 2211 2410" fill="none" xmlns="http://www.w3.org/2000/svg">
<path opacity="0.4" d="M1902.23 1352.17L1781.15 1280.66C1771.83 1275.16 1771.83 1261.36 1781.15 1255.86L1902.17 1184.35C1912.03 1178.49 1924.24 1178.49 1934.05 1184.35L2055.12 1255.86C2064.45 1261.36 2064.45 1275.16 2055.12 1280.66L1934.05 1352.17C1924.24 1358.03 1912.03 1358.03 1902.17 1352.17H1902.23Z" fill="url(#paint0_radial_2846_1575)"/>
<path d="M1916.16 1280.36V1289.11C1921.16 1289.11 1925.55 1286.77 1926.63 1286.17L1942.21 1277.51C1950.54 1272.91 1955.59 1264.43 1955.59 1255.21V1059.04H1916.16V1280.33V1280.36Z" fill="url(#paint1_linear_2846_1575)"/>
<path d="M1916.15 1280.33V1059.04H1880.67V1258.99C1880.67 1265.88 1884.07 1272.25 1889.66 1275.68L1906.77 1286.2C1907.79 1286.83 1911.7 1289.08 1916.15 1289.08V1280.3V1280.33Z" fill="url(#paint2_linear_2846_1575)"/>
<path d="M1868.27 1128.38L1795.37 1086.24C1784.72 1080.07 1778.08 1068.62 1778.08 1056.24V971.95C1778.08 960.468 1784.09 714.071 1789.81 703.851C1789.81 703.851 1816.75 719.421 1829.9 727.056L1902.79 769.2L1920.09 772.897V1151.86C1903.18 1151.86 1891.25 1141.7 1868.24 1128.41V1128.35L1868.27 1128.38Z" fill="url(#paint3_linear_2846_1575)"/>
<path d="M1970.5 1128.38L2041.38 1086.24C2051.73 1080.07 2058.16 1068.62 2058.16 1056.24V971.95C2058.16 960.468 2052.27 714.071 2046.74 703.851C2046.74 703.851 2020.51 719.421 2007.79 727.056L1936.91 769.2L1920.12 772.897V1151.86C1936.55 1151.86 1948.12 1141.7 1970.5 1128.41V1128.35V1128.38Z" fill="url(#paint4_linear_2846_1575)"/>
<path d="M1969.09 1130.31L2040.7 1088.04C2051.16 1081.85 2057.66 1070.4 2057.66 1057.95V973.395C2057.66 961.882 2051.71 714.704 2046.11 704.484C2046.11 704.484 2019.65 720.115 2006.81 727.75L1935.2 770.043L1918.24 773.741V1153.87C1934.84 1153.87 1946.54 1143.68 1969.09 1130.37V1130.31Z" fill="url(#paint5_linear_2846_1575)"/>
<path d="M1867.28 1130.31L1795.67 1088.04C1785.21 1081.85 1778.71 1070.4 1778.71 1057.95V973.395C1778.71 961.882 1784.67 714.704 1790.26 704.484C1790.26 704.484 1816.72 720.115 1829.63 727.75L1901.17 770.043L1918.13 773.741V1153.87C1901.59 1153.87 1889.83 1143.68 1867.28 1130.37V1130.31Z" fill="url(#paint6_linear_2846_1575)"/>
<path d="M2046.29 704.544C2041.84 696.218 2029.18 684.615 2015.97 674.936C2013.42 672.561 2010.38 670.367 2006.92 668.323L1935.2 626.781C1930.92 624.286 1925.15 623.144 1919.2 623.144H1917.18C1911.17 623.144 1905.45 624.256 1901.18 626.721L1829.4 668.263C1825.88 670.307 1822.84 672.501 1820.34 674.876C1807.08 684.555 1794.42 696.128 1789.97 704.484C1789.97 704.484 1816.49 719.845 1829.4 727.299L1836.64 731.508C1836.64 731.508 1837.06 731.718 1837.18 731.898L1898.38 767.368C1898.38 767.368 1898.63 767.489 1898.75 767.519L1901.12 768.901C1905.33 771.396 1911.11 772.478 1917 772.478H1919.14C1925.09 772.478 1930.8 771.306 1935.01 768.901L1937.39 767.519L1937.75 767.368L1998.95 731.898C1998.95 731.898 1999.31 731.688 1999.49 731.508L2006.74 727.299C2019.64 719.845 2046.23 704.484 2046.23 704.484L2046.29 704.544Z" fill="url(#paint7_linear_2846_1575)"/>
<path opacity="0.4" d="M1902.23 1352.17L1781.15 1280.66C1771.83 1275.16 1771.83 1261.36 1781.15 1255.86L1902.17 1184.35C1912.03 1178.49 1924.24 1178.49 1934.05 1184.35L2055.12 1255.86C2064.45 1261.36 2064.45 1275.16 2055.12 1280.66L1934.05 1352.17C1924.24 1358.03 1912.03 1358.03 1902.17 1352.17H1902.23Z" fill="url(#paint8_radial_2846_1575)"/>
<path d="M1916.16 1280.36V1289.11C1921.16 1289.11 1925.55 1286.77 1926.63 1286.17L1942.21 1277.51C1950.54 1272.91 1955.59 1264.43 1955.59 1255.21V1059.04H1916.16V1280.33V1280.36Z" fill="url(#paint9_linear_2846_1575)"/>
<path d="M1916.15 1280.33V1059.04H1880.67V1258.99C1880.67 1265.88 1884.07 1272.25 1889.66 1275.68L1906.77 1286.2C1907.79 1286.83 1911.7 1289.08 1916.15 1289.08V1280.3V1280.33Z" fill="url(#paint10_linear_2846_1575)"/>
<path d="M1868.27 1128.38L1795.37 1086.24C1784.72 1080.07 1778.08 1068.62 1778.08 1056.24V971.95C1778.08 960.468 1784.09 714.071 1789.81 703.851C1789.81 703.851 1816.75 719.421 1829.9 727.056L1902.79 769.2L1920.09 772.897V1151.86C1903.18 1151.86 1891.25 1141.7 1868.24 1128.41V1128.35L1868.27 1128.38Z" fill="url(#paint11_linear_2846_1575)"/>
<path d="M1970.5 1128.38L2041.38 1086.24C2051.73 1080.07 2058.16 1068.62 2058.16 1056.24V971.95C2058.16 960.468 2052.27 714.071 2046.74 703.851C2046.74 703.851 2020.51 719.421 2007.79 727.056L1936.91 769.2L1920.12 772.897V1151.86C1936.55 1151.86 1948.12 1141.7 1970.5 1128.41V1128.35V1128.38Z" fill="url(#paint12_linear_2846_1575)"/>
<path d="M1969.09 1130.31L2040.7 1088.04C2051.16 1081.85 2057.66 1070.4 2057.66 1057.95V973.395C2057.66 961.882 2051.71 714.704 2046.11 704.484C2046.11 704.484 2019.65 720.115 2006.81 727.75L1935.2 770.043L1918.24 773.741V1153.87C1934.84 1153.87 1946.54 1143.68 1969.09 1130.37V1130.31Z" fill="url(#paint13_linear_2846_1575)"/>
<path d="M1867.28 1130.31L1795.67 1088.04C1785.21 1081.85 1778.71 1070.4 1778.71 1057.95V973.395C1778.71 961.882 1784.67 714.704 1790.26 704.484C1790.26 704.484 1816.72 720.115 1829.63 727.75L1901.17 770.043L1918.13 773.741V1153.87C1901.59 1153.87 1889.83 1143.68 1867.28 1130.37V1130.31Z" fill="url(#paint14_linear_2846_1575)"/>
<path d="M2046.29 704.544C2041.84 696.218 2029.18 684.615 2015.97 674.936C2013.42 672.561 2010.38 670.367 2006.92 668.323L1935.2 626.781C1930.92 624.286 1925.15 623.144 1919.2 623.144H1917.18C1911.17 623.144 1905.45 624.256 1901.18 626.721L1829.4 668.263C1825.88 670.307 1822.84 672.501 1820.34 674.876C1807.08 684.555 1794.42 696.128 1789.97 704.484C1789.97 704.484 1816.49 719.845 1829.4 727.299L1836.64 731.508C1836.64 731.508 1837.06 731.718 1837.18 731.898L1898.38 767.368C1898.38 767.368 1898.63 767.489 1898.75 767.519L1901.12 768.901C1905.33 771.396 1911.11 772.478 1917 772.478H1919.14C1925.09 772.478 1930.8 771.306 1935.01 768.901L1937.39 767.519L1937.75 767.368L1998.95 731.898C1998.95 731.898 1999.31 731.688 1999.49 731.508L2006.74 727.299C2019.64 719.845 2046.23 704.484 2046.23 704.484L2046.29 704.544Z" fill="url(#paint15_linear_2846_1575)"/>
<mask id="mask0_2846_1575" style="mask-type:luminance" maskUnits="userSpaceOnUse" x="76" y="87" width="454" height="857">
<path d="M529.246 87.7441H76.2148V943.234H529.246V87.7441Z" fill="white"/>
</mask>
<g mask="url(#mask0_2846_1575)">
<path opacity="0.4" d="M284.116 938.126L142.77 854.411C131.853 847.948 131.853 831.836 142.77 825.403L284.116 741.688C295.605 734.834 309.86 734.834 321.318 741.688L462.694 825.403C473.611 831.866 473.611 847.978 462.694 854.411L321.318 938.126C309.829 944.98 295.574 944.98 284.116 938.126Z" fill="url(#paint16_radial_2846_1575)"/>
<path d="M302.652 852.516V862.646C308.036 862.646 312.787 859.94 314.02 859.219L330.892 849.209C339.884 843.889 345.387 834.059 345.387 823.418V596.5H302.652V852.486V852.516Z" fill="url(#paint17_linear_2846_1575)"/>
<path d="M302.653 852.516V596.59H259.918V827.837C259.918 835.803 264.038 843.167 270.775 847.105L291.375 859.279C292.668 860.001 297.27 862.646 302.683 862.646V852.516H302.653Z" fill="url(#paint18_linear_2846_1575)"/>
<path d="M497.671 639.874L332.747 737.537C327.604 740.573 315.755 748.99 302.703 748.99V364.35C316.898 364.35 342.942 383.558 356.295 397.265L517.31 565.267C533.279 584.084 538.722 612.911 497.611 639.904H497.671V639.874Z" fill="url(#paint19_linear_2846_1575)"/>
<path d="M107.774 639.874L272.699 737.537C277.842 740.573 289.721 748.99 302.743 748.99V364.35C288.548 364.35 262.504 383.558 249.181 397.265L88.1664 565.267C72.1972 584.084 66.7238 612.911 107.865 639.904H107.805L107.774 639.874Z" fill="url(#paint20_linear_2846_1575)"/>
<path d="M497.671 639.874L332.747 737.537C327.604 740.573 315.755 748.99 302.703 748.99V364.35C316.898 364.35 342.942 383.558 356.295 397.265L517.31 565.267C533.279 584.084 538.722 612.911 497.611 639.904H497.671V639.874Z" fill="url(#paint21_linear_2846_1575)"/>
<path d="M107.774 639.874L272.699 737.537C277.842 740.573 289.721 748.99 302.743 748.99V364.35C288.548 364.35 262.504 383.558 249.181 397.265L88.1664 565.267C72.1972 584.084 66.7238 612.911 107.865 639.904H107.805L107.774 639.874Z" fill="url(#paint22_linear_2846_1575)"/>
<path d="M459.304 469.439L326.799 547.894C322.619 550.329 313.145 557.092 302.68 557.092V248.142C314.108 248.142 334.949 263.593 345.745 274.594L475.093 409.561C487.934 424.711 492.295 447.796 459.304 469.529V469.469V469.439Z" fill="url(#paint23_linear_2846_1575)"/>
<path d="M146.14 469.439L278.645 547.894C282.825 550.329 292.299 557.092 302.764 557.092V248.142C291.336 248.142 270.495 263.593 259.699 274.594L130.321 409.561C117.48 424.711 113.119 447.796 146.11 469.529V469.469L146.14 469.439Z" fill="url(#paint24_linear_2846_1575)"/>
<path d="M459.304 469.439L326.799 547.894C322.619 550.329 313.145 557.092 302.68 557.092V248.142C314.108 248.142 334.949 263.593 345.745 274.594L475.093 409.561C487.934 424.711 492.295 447.796 459.304 469.529V469.469V469.439Z" fill="url(#paint25_linear_2846_1575)"/>
<path d="M146.14 469.439L278.645 547.894C282.825 550.329 292.299 557.092 302.764 557.092V248.142C291.336 248.142 270.495 263.593 259.699 274.594L130.321 409.561C117.48 424.711 113.119 447.796 146.11 469.529V469.469L146.14 469.439Z" fill="url(#paint26_linear_2846_1575)"/>
<path d="M404.864 301.555L318.432 352.747C315.725 354.31 309.5 358.728 302.703 358.728V157.12C310.161 157.12 323.755 167.19 330.822 174.374L415.209 262.418C423.54 272.278 426.427 287.367 404.864 301.495V301.555Z" fill="url(#paint27_linear_2846_1575)"/>
<path d="M200.58 301.555L287.012 352.747C289.719 354.31 295.944 358.728 302.741 358.728V157.12C295.313 157.12 281.689 167.19 274.622 174.374L190.235 262.418C181.904 272.278 179.017 287.367 200.55 301.495V301.555H200.58Z" fill="url(#paint28_linear_2846_1575)"/>
<path d="M373.046 187.181L313.56 222.38C311.695 223.493 307.395 226.529 302.703 226.529V87.7444C307.846 87.7444 317.199 94.658 322.01 99.6479L380.083 160.248C385.857 167.041 387.842 177.411 372.955 187.151H373.016L373.046 187.181Z" fill="url(#paint29_linear_2846_1575)"/>
<path d="M232.395 187.181L291.881 222.38C293.746 223.493 298.046 226.529 302.738 226.529V87.7444C297.595 87.7444 288.242 94.658 283.431 99.6479L225.358 160.248C219.584 167.041 217.599 177.411 232.486 187.151H232.425L232.395 187.181Z" fill="url(#paint30_linear_2846_1575)"/>
</g>
<rect x="342" y="1333" width="1560" height="1077" fill="url(#paint31_radial_2846_1575)" fill-opacity="0.3"/>
<path d="M1911.02 1433.45C1918.45 1369.03 1874.48 1299.45 1781.73 1245.85L1344.64 993.32C1187.39 902.421 949.503 892.591 813.298 971.257L434.91 1190C367.364 1228.96 337.651 1282.28 343.817 1337.38C342.674 1346.7 342.794 1356.05 343.817 1365.49C336.388 1429.78 380.356 1499.49 473.104 1553.09L910.196 1805.61C1067.45 1896.51 1305.34 1906.34 1441.54 1827.68L1820.05 1608.94C1887.59 1569.98 1917.31 1516.53 1911.14 1461.56C1912.16 1452.36 1912.16 1442.89 1911.14 1433.45H1911.02Z" fill="url(#paint32_linear_2846_1575)"/>
<path d="M1911.02 1355.99C1918.45 1291.57 1874.48 1221.99 1781.73 1168.39L1344.64 915.86C1187.39 824.961 949.503 815.131 813.298 893.797L434.91 1112.54C367.364 1151.5 337.651 1204.82 343.817 1259.92C342.674 1269.24 342.794 1278.59 343.817 1288.03C336.388 1352.32 380.356 1422.03 473.104 1475.63L910.196 1728.15C1067.45 1819.05 1305.34 1828.88 1441.54 1750.22L1820.05 1531.48C1887.59 1492.52 1917.31 1439.07 1911.14 1384.1C1912.16 1374.9 1912.16 1365.43 1911.14 1355.99H1911.02Z" fill="url(#paint33_linear_2846_1575)"/>
<path d="M1027.99 624.287L1027.75 416.276L1097.04 456.225L1096.16 664.506L1027.99 624.287Z" fill="#F0F0F0"/>
<path d="M1097.04 456.225L1166.21 416.276V624.166L1096.16 664.506L1097.04 456.225Z" fill="#E4E4E4"/>
<path d="M1131.45 389.67L1096.81 456.492L1166.1 416.543L1131.45 389.7V389.67Z" fill="#6B32BE"/>
<path d="M1027.75 416.512L1097.04 456.221L1131.44 389.669L1062.39 350.322L1027.75 416.512Z" fill="#6E6CFF"/>
<path d="M1555.08 1202.68L1032.82 1505.26V1208.37L1555.08 906.059V1202.71V1202.68Z" fill="url(#paint34_linear_2846_1575)"/>
<path d="M776.237 761.174L518.324 911.201V1208.1L1032.8 1505.23V1208.34L776.267 761.174H776.237Z" fill="#F0F8FF"/>
<path d="M776.242 761.173L478.512 933.894V899.717L776.242 726.484L1061.64 1192.07L1032.8 1208.34L776.272 761.173H776.242Z" fill="#6B32BE"/>
<path d="M1298.79 458.353L1001.18 631.075V596.897L1298.79 423.545L1584.19 889.254L1555.32 905.396L1298.79 458.353Z" fill="#F6622F"/>
<path d="M1584.19 889.255L1061.65 1192.07L776.254 726.483L1298.79 423.545L1584.19 889.255Z" fill="url(#paint35_linear_2846_1575)"/>
<path d="M716.159 1244.41V1053.8C716.159 1052.93 716.159 1052.3 716.4 1051.67L810.891 1106.26C814.921 1108.51 819.462 1116.36 819.462 1123.27V1303.93L716.129 1244.29V1244.41H716.159Z" fill="#6BA6FF"/>
<path d="M827.919 1318.69L828.039 1387.64L768.944 1422.45L768.312 1318.69H827.919Z" fill="#979797"/>
<path d="M708.738 1249.82L679.266 1266.83L798.448 1335.79L827.92 1318.65L708.738 1249.82Z" fill="#CACACA"/>
<path d="M679.219 1266.86V1301.4L798.401 1370.6V1335.82L679.219 1266.86Z" fill="#B1B1B1"/>
<path d="M679.218 1301.64L649.746 1318.66L768.928 1387.61L798.401 1370.6L679.218 1301.64Z" fill="#CACACA"/>
<path d="M649.746 1318.69V1353.22L768.928 1422.45V1387.64L649.746 1318.69Z" fill="#B1B1B1"/>
<path d="M571.905 1053.65L549.59 1066.12V1109.5L571.905 1097.02V1053.65Z" fill="#333333"/>
<path d="M672.187 1039.28L579.078 986.587V1093L672.187 1145.81V1039.28Z" fill="#6BA6FF"/>
<path d="M656.953 1170.4V1126.91L549.59 1066.13V1109.62L656.953 1170.4Z" fill="#4D4D4D"/>
<path d="M679.237 1114.55L656.922 1126.91V1170.4L679.237 1157.93V1114.55Z" fill="#333333"/>
<path d="M571.89 1053.65V1059.69L560.432 1066.24L655.826 1120.2L672.216 1110.88L679.284 1114.55L656.969 1126.9L549.605 1066.15L571.92 1053.68L571.89 1053.65Z" fill="#666666"/>
<path d="M867.486 1206.08L845.051 1218.56V1261.93L867.486 1249.46V1206.08Z" fill="#333333"/>
<path d="M967.671 1191.83L874.562 1139.14V1245.55L967.671 1298.24V1191.83Z" fill="#6BA6FF"/>
<path d="M952.414 1322.83V1279.46L845.051 1218.71V1262.08L952.414 1322.86V1322.83Z" fill="#4D4D4D"/>
<path d="M974.702 1266.98L952.387 1279.46V1322.83L974.702 1310.36V1266.98Z" fill="#333333"/>
<path d="M867.495 1206.08L867.375 1212.24L855.916 1218.68L951.31 1272.63L967.701 1263.31L974.768 1266.98L952.453 1279.46L845.09 1218.68L867.525 1206.08H867.495Z" fill="#666666"/>
<path d="M1399.7 1151.61L1422.01 1164.09V1207.46L1399.7 1194.99V1151.61Z" fill="#333333"/>
<path d="M1221.79 1180.74L1392.51 1084.67V1191.08L1221.79 1287.15V1180.74Z" fill="#3BA0FA"/>
<path d="M1237.04 1311.74V1268.36L1421.99 1164.12V1207.61L1237.04 1311.74Z" fill="#4D4D4D"/>
<path d="M1214.74 1255.89L1237.03 1268.36V1311.74L1214.74 1299.38V1255.89Z" fill="#333333"/>
<path d="M1399.7 1151.61V1157.65L1411.15 1164.21L1238.17 1261.66L1221.81 1252.19L1214.74 1255.86L1237.03 1268.33L1422.01 1164.09L1399.7 1151.61Z" fill="#666666"/>
<mask id="mask1_2846_1575" style="mask-type:luminance" maskUnits="userSpaceOnUse" x="1352" y="978" width="324" height="551">
<path d="M1675.81 978.143H1352.16V1528.5H1675.81V978.143Z" fill="white"/>
</mask>
<g mask="url(#mask1_2846_1575)">
<path opacity="0.4" d="M1496.1 1523.69L1359.98 1445.02C1349.49 1438.95 1349.49 1423.8 1359.98 1417.76L1496.04 1339.12C1507.07 1332.69 1520.79 1332.69 1531.85 1339.12L1667.91 1417.76C1678.4 1423.83 1678.4 1438.98 1667.91 1445.02L1531.85 1523.69C1520.79 1530.12 1507.1 1530.12 1496.04 1523.69H1496.1Z" fill="url(#paint36_radial_2846_1575)"/>
<path d="M1513.93 1443.22V1452.75C1519.11 1452.75 1523.71 1450.23 1524.88 1449.53L1541.12 1440.13C1549.75 1435.11 1555.07 1425.91 1555.07 1415.9V1202.69H1513.93V1443.22Z" fill="url(#paint37_linear_2846_1575)"/>
<path d="M1513.92 1443.22V1202.75H1472.81V1420.05C1472.81 1427.53 1476.75 1434.44 1483.24 1438.17L1503.06 1449.62C1504.3 1450.32 1508.75 1452.78 1513.92 1452.78V1443.25V1443.22Z" fill="url(#paint38_linear_2846_1575)"/>
<path d="M1571.19 1300.5L1651.64 1254C1663.43 1247.2 1670.71 1234.58 1670.71 1220.9V1127.9C1670.71 1115.21 1664.03 1080.53 1657.74 1069.28C1657.74 1069.28 1627.97 1086.48 1613.54 1094.89L1533.09 1141.4L1513.99 1145.48V1326.41C1532.64 1326.41 1545.81 1315.2 1571.19 1300.56V1300.5Z" fill="url(#paint39_linear_2846_1575)"/>
<path d="M1456.81 1300.5L1376.36 1254C1364.57 1247.2 1357.3 1234.58 1357.3 1220.9V1127.9C1357.3 1115.21 1363.97 1080.53 1370.26 1069.28C1370.26 1069.28 1400.03 1086.48 1414.47 1094.89L1494.91 1141.4L1513.98 1145.48V1326.41C1495.34 1326.41 1482.19 1315.2 1456.81 1300.56V1300.5Z" fill="url(#paint40_linear_2846_1575)"/>
<path d="M1657.69 1069.31C1652.7 1059.97 1638.47 1046.98 1623.65 1036.16C1620.82 1033.51 1617.42 1031.02 1613.51 1028.73L1533.06 982.232C1528.31 979.436 1521.82 978.144 1515.08 978.144H1512.85C1506.12 978.144 1499.71 979.376 1494.87 982.171L1414.42 1028.67C1410.45 1030.96 1407.09 1033.42 1404.23 1036.1C1389.4 1046.92 1375.21 1059.91 1370.21 1069.25C1370.21 1069.25 1399.99 1086.45 1414.42 1094.8L1422.57 1099.49C1422.57 1099.49 1423.02 1099.73 1423.2 1099.91L1491.8 1139.62C1491.8 1139.62 1492.04 1139.74 1492.16 1139.8L1494.81 1141.34C1499.56 1144.13 1506 1145.36 1512.67 1145.36H1515.02C1521.7 1145.36 1528.1 1144.07 1532.85 1141.34L1535.5 1139.8C1535.5 1139.8 1535.74 1139.68 1535.86 1139.62L1604.46 1099.91C1604.46 1099.91 1604.91 1099.67 1605.09 1099.49L1613.24 1094.8C1627.71 1086.45 1657.45 1069.25 1657.45 1069.25L1657.63 1069.31H1657.69Z" fill="url(#paint41_linear_2846_1575)"/>
</g>
<mask id="mask2_2846_1575" style="mask-type:luminance" maskUnits="userSpaceOnUse" x="725" y="1672" width="240" height="417">
<path d="M964.894 1672.93H725.988V2088.86H964.894V1672.93Z" fill="white"/>
</mask>
<g mask="url(#mask2_2846_1575)">
<path opacity="0.4" d="M832.268 2085.22L731.792 2025.77C724.033 2021.2 724.033 2009.74 731.792 2005.14L832.208 1945.69C840.388 1940.82 850.493 1940.82 858.643 1945.69L959.12 2005.14C966.879 2009.71 966.879 2021.17 959.12 2025.77L858.643 2085.22C850.493 2090.09 840.418 2090.09 832.208 2085.22H832.268Z" fill="url(#paint42_radial_2846_1575)"/>
<path d="M845.418 2024.41V2031.59C849.237 2031.59 852.636 2029.67 853.508 2029.16L865.477 2022.07C871.883 2018.28 875.823 2011.3 875.823 2003.76V1842.61H845.418V2024.41Z" fill="url(#paint43_linear_2846_1575)"/>
<path d="M845.403 2024.41V1842.67H815.059V2006.89C815.059 2012.54 817.976 2017.77 822.758 2020.6L837.403 2029.25C838.306 2029.76 841.554 2031.63 845.403 2031.63V2024.41Z" fill="url(#paint44_linear_2846_1575)"/>
<path d="M887.692 1916.56L947.088 1881.42C955.809 1876.28 961.163 1866.75 961.163 1856.41V1786.13C961.163 1776.54 956.291 1750.33 951.599 1741.82C951.599 1741.82 929.615 1754.81 918.999 1761.18L859.543 1796.32L845.469 1799.42V1936.16C859.243 1936.16 868.956 1927.71 887.692 1916.62V1916.56Z" fill="url(#paint45_linear_2846_1575)"/>
<path d="M803.24 1916.56L743.844 1881.42C735.123 1876.28 729.77 1866.75 729.77 1856.41V1786.13C729.77 1776.54 734.702 1750.33 739.333 1741.82C739.333 1741.82 761.317 1754.81 771.963 1761.18L831.359 1796.32L845.433 1799.42V1936.16C831.69 1936.16 821.976 1927.71 803.21 1916.62V1916.56H803.24Z" fill="url(#paint46_linear_2846_1575)"/>
<path d="M951.573 1741.82C947.844 1734.76 937.348 1724.96 926.432 1716.78C924.326 1714.77 921.83 1712.91 918.973 1711.16L859.517 1676.02C856.029 1673.92 851.247 1672.93 846.255 1672.93H844.631C839.639 1672.93 834.917 1673.86 831.368 1675.96L771.973 1711.1C769.055 1712.85 766.559 1714.71 764.454 1716.72C753.507 1724.9 743.012 1734.73 739.312 1741.76C739.312 1741.76 761.296 1754.75 771.943 1761.06L777.987 1764.61C777.987 1764.61 778.288 1764.79 778.408 1764.94L829.053 1794.94C829.053 1794.94 829.233 1795.03 829.353 1795.09L831.308 1796.26C834.797 1798.37 839.548 1799.3 844.481 1799.3H846.195C851.127 1799.3 855.848 1798.31 859.397 1796.26L861.352 1795.09C861.352 1795.09 861.502 1795 861.592 1794.94L912.237 1764.94C912.237 1764.94 912.568 1764.76 912.718 1764.61L918.763 1761.06C929.439 1754.75 951.393 1741.76 951.393 1741.76L951.543 1741.82H951.573Z" fill="url(#paint47_linear_2846_1575)"/>
</g>
<path d="M549.455 0H473.398V76.0202H549.455V0Z" fill="#14D7B3"/>
<path d="M1095.69 1943.62H1019.64V2019.64H1095.69V1943.62Z" fill="#14D7B3"/>
<path d="M1769.42 542.854H1693.36V618.874H1769.42V542.854Z" fill="#14D7B3"/>
<path d="M53.7583 690.631L26.8789 663.765L-0.000523511 690.631L26.8789 717.498L53.7583 690.631Z" fill="url(#paint48_linear_2846_1575)"/>
<path d="M2210.49 1137.52L2158.34 1085.4L2106.2 1137.52L2158.34 1189.63L2210.49 1137.52Z" fill="url(#paint49_linear_2846_1575)"/>
<path d="M1981.64 516.788L1955.57 490.729L1929.5 516.788L1955.57 542.847L1981.64 516.788Z" fill="url(#paint50_linear_2846_1575)"/>
<defs>
<radialGradient id="paint0_radial_2846_1575" cx="0" cy="0" r="1" gradientUnits="userSpaceOnUse" gradientTransform="translate(-18746.6 -10943.1) rotate(30.578) scale(85.7063 86.6581)">
<stop stop-color="#6C1AD9"/>
<stop offset="0.08" stop-color="#5E32D8"/>
<stop offset="0.18" stop-color="#5248D7"/>
<stop offset="0.27" stop-color="#4B55D7"/>
<stop offset="0.35" stop-color="#495AD7"/>
<stop offset="0.46" stop-color="#4B5FD9"/>
<stop offset="0.6" stop-color="#5270E2"/>
<stop offset="0.76" stop-color="#5E8AEF"/>
<stop offset="0.89" stop-color="#6BA6FF"/>
</radialGradient>
<linearGradient id="paint1_linear_2846_1575" x1="1955.59" y1="1174.07" x2="1916.16" y2="1174.07" gradientUnits="userSpaceOnUse">
<stop stop-color="#401480"/>
<stop offset="0.34" stop-color="#421582"/>
<stop offset="0.68" stop-color="#481A8E"/>
<stop offset="1" stop-color="#5321A1"/>
</linearGradient>
<linearGradient id="paint2_linear_2846_1575" x1="1916.15" y1="1174.07" x2="1880.61" y2="1174.07" gradientUnits="userSpaceOnUse">
<stop stop-color="#5321A1"/>
<stop offset="0.13" stop-color="#58289F"/>
<stop offset="0.38" stop-color="#5D309E"/>
<stop offset="1" stop-color="#5F329E"/>
</linearGradient>
<linearGradient id="paint3_linear_2846_1575" x1="1901.68" y1="915.739" x2="1558.86" y2="1004.85" gradientUnits="userSpaceOnUse">
<stop stop-color="#6E6CFF"/>
<stop offset="1" stop-color="#4000B9"/>
</linearGradient>
<linearGradient id="paint4_linear_2846_1575" x1="1909.72" y1="909.276" x2="2244.18" y2="993.759" gradientUnits="userSpaceOnUse">
<stop stop-color="#6E6CFF"/>
<stop offset="1" stop-color="#4000B9"/>
</linearGradient>
<linearGradient id="paint5_linear_2846_1575" x1="1908.89" y1="889.199" x2="2185.86" y2="1040.42" gradientUnits="userSpaceOnUse">
<stop stop-color="#6E6CFF"/>
<stop offset="0.35" stop-color="#6C69FA"/>
<stop offset="0.52" stop-color="#6962F3"/>
<stop offset="0.66" stop-color="#6255E7"/>
<stop offset="0.77" stop-color="#5942D6"/>
<stop offset="0.87" stop-color="#4D2AC0"/>
<stop offset="0.96" stop-color="#3F0CA4"/>
<stop offset="1" stop-color="#390099"/>
</linearGradient>
<linearGradient id="paint6_linear_2846_1575" x1="1911.13" y1="898.126" x2="1634.12" y2="1049.35" gradientUnits="userSpaceOnUse">
<stop stop-color="#6E6CFF"/>
<stop offset="0.35" stop-color="#6C69FA"/>
<stop offset="0.52" stop-color="#6962F3"/>
<stop offset="0.66" stop-color="#6255E7"/>
<stop offset="0.77" stop-color="#5942D6"/>
<stop offset="0.87" stop-color="#4D2AC0"/>
<stop offset="0.96" stop-color="#3F0CA4"/>
<stop offset="1" stop-color="#390099"/>
</linearGradient>
<linearGradient id="paint7_linear_2846_1575" x1="1918.26" y1="623.354" x2="1918.02" y2="763.521" gradientUnits="userSpaceOnUse">
<stop stop-color="#483CD0"/>
<stop offset="1" stop-color="#6E76FF"/>
</linearGradient>
<radialGradient id="paint8_radial_2846_1575" cx="0" cy="0" r="1" gradientUnits="userSpaceOnUse" gradientTransform="translate(-18746.6 -10943.1) rotate(30.578) scale(85.7063 86.6581)">
<stop stop-color="#6C1AD9"/>
<stop offset="0.08" stop-color="#5E32D8"/>
<stop offset="0.18" stop-color="#5248D7"/>
<stop offset="0.27" stop-color="#4B55D7"/>
<stop offset="0.35" stop-color="#495AD7"/>
<stop offset="0.46" stop-color="#4B5FD9"/>
<stop offset="0.6" stop-color="#5270E2"/>
<stop offset="0.76" stop-color="#5E8AEF"/>
<stop offset="0.89" stop-color="#6BA6FF"/>
</radialGradient>
<linearGradient id="paint9_linear_2846_1575" x1="1955.59" y1="1174.07" x2="1916.16" y2="1174.07" gradientUnits="userSpaceOnUse">
<stop stop-color="#401480"/>
<stop offset="0.34" stop-color="#421582"/>
<stop offset="0.68" stop-color="#481A8E"/>
<stop offset="1" stop-color="#5321A1"/>
</linearGradient>
<linearGradient id="paint10_linear_2846_1575" x1="1916.15" y1="1174.07" x2="1880.61" y2="1174.07" gradientUnits="userSpaceOnUse">
<stop stop-color="#5321A1"/>
<stop offset="0.13" stop-color="#58289F"/>
<stop offset="0.38" stop-color="#5D309E"/>
<stop offset="1" stop-color="#5F329E"/>
</linearGradient>
<linearGradient id="paint11_linear_2846_1575" x1="1901.68" y1="915.739" x2="1558.86" y2="1004.85" gradientUnits="userSpaceOnUse">
<stop stop-color="#6E6CFF"/>
<stop offset="1" stop-color="#4000B9"/>
</linearGradient>
<linearGradient id="paint12_linear_2846_1575" x1="1909.72" y1="909.276" x2="2244.18" y2="993.759" gradientUnits="userSpaceOnUse">
<stop stop-color="#6E6CFF"/>
<stop offset="1" stop-color="#4000B9"/>
</linearGradient>
<linearGradient id="paint13_linear_2846_1575" x1="1908.89" y1="889.199" x2="2185.86" y2="1040.42" gradientUnits="userSpaceOnUse">
<stop stop-color="#6E6CFF"/>
<stop offset="0.35" stop-color="#6C69FA"/>
<stop offset="0.52" stop-color="#6962F3"/>
<stop offset="0.66" stop-color="#6255E7"/>
<stop offset="0.77" stop-color="#5942D6"/>
<stop offset="0.87" stop-color="#4D2AC0"/>
<stop offset="0.96" stop-color="#3F0CA4"/>
<stop offset="1" stop-color="#390099"/>
</linearGradient>
<linearGradient id="paint14_linear_2846_1575" x1="1911.13" y1="898.126" x2="1634.12" y2="1049.35" gradientUnits="userSpaceOnUse">
<stop stop-color="#6E6CFF"/>
<stop offset="0.35" stop-color="#6C69FA"/>
<stop offset="0.52" stop-color="#6962F3"/>
<stop offset="0.66" stop-color="#6255E7"/>
<stop offset="0.77" stop-color="#5942D6"/>
<stop offset="0.87" stop-color="#4D2AC0"/>
<stop offset="0.96" stop-color="#3F0CA4"/>
<stop offset="1" stop-color="#390099"/>
</linearGradient>
<linearGradient id="paint15_linear_2846_1575" x1="1918.26" y1="623.354" x2="1918.02" y2="763.521" gradientUnits="userSpaceOnUse">
<stop stop-color="#483CD0"/>
<stop offset="1" stop-color="#6E76FF"/>
</linearGradient>
<radialGradient id="paint16_radial_2846_1575" cx="0" cy="0" r="1" gradientUnits="userSpaceOnUse" gradientTransform="translate(-22761.8 -12813.5) rotate(30.628) scale(100.184 101.43)">
<stop stop-color="#6C1AD9"/>
<stop offset="0.08" stop-color="#5E32D8"/>
<stop offset="0.18" stop-color="#5248D7"/>
<stop offset="0.27" stop-color="#4B55D7"/>
<stop offset="0.35" stop-color="#495AD7"/>
<stop offset="0.46" stop-color="#4B5FD9"/>
<stop offset="0.6" stop-color="#5270E2"/>
<stop offset="0.76" stop-color="#5E8AEF"/>
<stop offset="0.89" stop-color="#6BA6FF"/>
</radialGradient>
<linearGradient id="paint17_linear_2846_1575" x1="345.477" y1="729.573" x2="302.743" y2="729.573" gradientUnits="userSpaceOnUse">
<stop stop-color="#401480"/>
<stop offset="0.34" stop-color="#421582"/>
<stop offset="0.68" stop-color="#481A8E"/>
<stop offset="1" stop-color="#5321A1"/>
</linearGradient>
<linearGradient id="paint18_linear_2846_1575" x1="302.743" y1="729.603" x2="259.918" y2="729.603" gradientUnits="userSpaceOnUse">
<stop stop-color="#5321A1"/>
<stop offset="0.13" stop-color="#58289F"/>
<stop offset="0.38" stop-color="#5D309E"/>
<stop offset="1" stop-color="#5F329E"/>
</linearGradient>
<linearGradient id="paint19_linear_2846_1575" x1="690.595" y1="588.503" x2="304.33" y2="556.73" gradientUnits="userSpaceOnUse">
<stop offset="0.47" stop-color="#5C00D0"/>
<stop offset="1" stop-color="#8273FF"/>
</linearGradient>
<linearGradient id="paint20_linear_2846_1575" x1="-183.099" y1="596.529" x2="203.166" y2="564.786" gradientUnits="userSpaceOnUse">
<stop offset="0.47" stop-color="#5C00D0"/>
<stop offset="1" stop-color="#8273FF"/>
</linearGradient>
<linearGradient id="paint21_linear_2846_1575" x1="690.595" y1="588.503" x2="304.33" y2="556.73" gradientUnits="userSpaceOnUse">
<stop offset="0.47" stop-color="#5C00D0"/>
<stop offset="1" stop-color="#8273FF"/>
</linearGradient>
<linearGradient id="paint22_linear_2846_1575" x1="-183.099" y1="596.529" x2="203.166" y2="564.786" gradientUnits="userSpaceOnUse">
<stop offset="0.47" stop-color="#5C00D0"/>
<stop offset="1" stop-color="#8273FF"/>
</linearGradient>
<linearGradient id="paint23_linear_2846_1575" x1="569.584" y1="424.5" x2="259.225" y2="398.986" gradientUnits="userSpaceOnUse">
<stop offset="0.47" stop-color="#5C00D0"/>
<stop offset="1" stop-color="#8273FF"/>
</linearGradient>
<linearGradient id="paint24_linear_2846_1575" x1="-62.0908" y1="432.526" x2="248.239" y2="407.042" gradientUnits="userSpaceOnUse">
<stop offset="0.47" stop-color="#5C00D0"/>
<stop offset="1" stop-color="#8273FF"/>
</linearGradient>
<linearGradient id="paint25_linear_2846_1575" x1="569.584" y1="424.5" x2="259.225" y2="398.986" gradientUnits="userSpaceOnUse">
<stop offset="0.47" stop-color="#5C00D0"/>
<stop offset="1" stop-color="#8273FF"/>
</linearGradient>
<linearGradient id="paint26_linear_2846_1575" x1="-62.0908" y1="432.526" x2="248.239" y2="407.042" gradientUnits="userSpaceOnUse">
<stop offset="0.47" stop-color="#5C00D0"/>
<stop offset="1" stop-color="#8273FF"/>
</linearGradient>
<linearGradient id="paint27_linear_2846_1575" x1="426.366" y1="268.069" x2="223.911" y2="251.431" gradientUnits="userSpaceOnUse">
<stop offset="0.47" stop-color="#5C00D0"/>
<stop offset="1" stop-color="#8273FF"/>
</linearGradient>
<linearGradient id="paint28_linear_2846_1575" x1="81.1572" y1="276.125" x2="283.613" y2="259.456" gradientUnits="userSpaceOnUse">
<stop offset="0.47" stop-color="#5C00D0"/>
<stop offset="1" stop-color="#8273FF"/>
</linearGradient>
<linearGradient id="paint29_linear_2846_1575" x1="336.296" y1="159.887" x2="196.935" y2="148.423" gradientUnits="userSpaceOnUse">
<stop offset="0.47" stop-color="#5C00D0"/>
<stop offset="1" stop-color="#8273FF"/>
</linearGradient>
<linearGradient id="paint30_linear_2846_1575" x1="171.195" y1="167.943" x2="310.526" y2="156.479" gradientUnits="userSpaceOnUse">
<stop offset="0.47" stop-color="#5C00D0"/>
<stop offset="1" stop-color="#8273FF"/>
</linearGradient>
<radialGradient id="paint31_radial_2846_1575" cx="0" cy="0" r="1" gradientUnits="userSpaceOnUse" gradientTransform="translate(1122 1333) rotate(89.9982) scale(873.979 1265.93)">
<stop offset="0.245" stop-color="white"/>
<stop offset="1" stop-color="white" stop-opacity="0"/>
</radialGradient>
<linearGradient id="paint32_linear_2846_1575" x1="343.035" y1="1399.45" x2="1911.95" y2="1399.45" gradientUnits="userSpaceOnUse">
<stop stop-color="#4338CB"/>
<stop offset="1" stop-color="#6E6CFF"/>
</linearGradient>
<linearGradient id="paint33_linear_2846_1575" x1="-1516.22" y1="1034.23" x2="1916.55" y2="1408.29" gradientUnits="userSpaceOnUse">
<stop stop-color="#3BA0FA"/>
<stop offset="1" stop-color="#13FFD3"/>
</linearGradient>
<linearGradient id="paint34_linear_2846_1575" x1="1032.76" y1="1476.83" x2="1610.28" y2="876.384" gradientUnits="userSpaceOnUse">
<stop stop-color="#E4E4E4"/>
<stop offset="1" stop-color="#A597BA"/>
</linearGradient>
<linearGradient id="paint35_linear_2846_1575" x1="1260.32" y1="541.017" x2="1090.52" y2="1107.26" gradientUnits="userSpaceOnUse">
<stop stop-color="#4338CB"/>
<stop offset="1" stop-color="#6E6CFF"/>
</linearGradient>
<radialGradient id="paint36_radial_2846_1575" cx="0" cy="0" r="1" gradientUnits="userSpaceOnUse" gradientTransform="translate(1724.93 1515.61) rotate(30.0381) scale(95.8366 95.9009)">
<stop stop-color="#6C1AD9"/>
<stop offset="0.08" stop-color="#5E32D8"/>
<stop offset="0.18" stop-color="#5248D7"/>
<stop offset="0.27" stop-color="#4B55D7"/>
<stop offset="0.35" stop-color="#495AD7"/>
<stop offset="0.46" stop-color="#4B5FD9"/>
<stop offset="0.6" stop-color="#5270E2"/>
<stop offset="0.76" stop-color="#5E8AEF"/>
<stop offset="0.89" stop-color="#6BA6FF"/>
</radialGradient>
<linearGradient id="paint37_linear_2846_1575" x1="1555.07" y1="1327.73" x2="1513.93" y2="1327.73" gradientUnits="userSpaceOnUse">
<stop stop-color="#401480"/>
<stop offset="0.34" stop-color="#421582"/>
<stop offset="0.68" stop-color="#481A8E"/>
<stop offset="1" stop-color="#5321A1"/>
</linearGradient>
<linearGradient id="paint38_linear_2846_1575" x1="1513.92" y1="1327.76" x2="1472.81" y2="1327.76" gradientUnits="userSpaceOnUse">
<stop stop-color="#5321A1"/>
<stop offset="0.13" stop-color="#58289F"/>
<stop offset="0.38" stop-color="#5D309E"/>
<stop offset="1" stop-color="#5F329E"/>
</linearGradient>
<linearGradient id="paint39_linear_2846_1575" x1="1542.53" y1="1172.9" x2="1736.88" y2="1284.95" gradientUnits="userSpaceOnUse">
<stop stop-color="#6E6CFF"/>
<stop offset="1" stop-color="#4800D0"/>
</linearGradient>
<linearGradient id="paint40_linear_2846_1575" x1="1459.34" y1="1187.96" x2="1264.99" y2="1299.98" gradientUnits="userSpaceOnUse">
<stop stop-color="#6E6CFF"/>
<stop offset="1" stop-color="#4800D0"/>
</linearGradient>
<linearGradient id="paint41_linear_2846_1575" x1="1514.15" y1="978.414" x2="1513.85" y2="1135.35" gradientUnits="userSpaceOnUse">
<stop stop-color="#483CD0"/>
<stop offset="1" stop-color="#6E76FF"/>
</linearGradient>
<radialGradient id="paint42_radial_2846_1575" cx="0" cy="0" r="1" gradientUnits="userSpaceOnUse" gradientTransform="translate(-20847.1 -10783.7) rotate(30.618) scale(71.1911 72.0352)">
<stop stop-color="#6C1AD9"/>
<stop offset="0.08" stop-color="#5E32D8"/>
<stop offset="0.18" stop-color="#5248D7"/>
<stop offset="0.27" stop-color="#4B55D7"/>
<stop offset="0.35" stop-color="#495AD7"/>
<stop offset="0.46" stop-color="#4B5FD9"/>
<stop offset="0.6" stop-color="#5270E2"/>
<stop offset="0.76" stop-color="#5E8AEF"/>
<stop offset="0.89" stop-color="#6BA6FF"/>
</radialGradient>
<linearGradient id="paint43_linear_2846_1575" x1="875.823" y1="1937.12" x2="845.418" y2="1937.12" gradientUnits="userSpaceOnUse">
<stop stop-color="#401480"/>
<stop offset="0.34" stop-color="#421582"/>
<stop offset="0.68" stop-color="#481A8E"/>
<stop offset="1" stop-color="#5321A1"/>
</linearGradient>
<linearGradient id="paint44_linear_2846_1575" x1="845.403" y1="1937.15" x2="815.059" y2="1937.15" gradientUnits="userSpaceOnUse">
<stop stop-color="#5321A1"/>
<stop offset="0.13" stop-color="#58289F"/>
<stop offset="0.38" stop-color="#5D309E"/>
<stop offset="1" stop-color="#5F329E"/>
</linearGradient>
<linearGradient id="paint45_linear_2846_1575" x1="865.378" y1="1824" x2="1015.93" y2="1892.17" gradientUnits="userSpaceOnUse">
<stop stop-color="#6E6CFF"/>
<stop offset="1" stop-color="#4800D0"/>
</linearGradient>
<linearGradient id="paint46_linear_2846_1575" x1="805.315" y1="1833.14" x2="654.76" y2="1901.31" gradientUnits="userSpaceOnUse">
<stop stop-color="#6E6CFF"/>
<stop offset="1" stop-color="#4800D0"/>
</linearGradient>
<linearGradient id="paint47_linear_2846_1575" x1="845.653" y1="1673.14" x2="845.323" y2="1791.75" gradientUnits="userSpaceOnUse">
<stop stop-color="#483CD0"/>
<stop offset="1" stop-color="#6E76FF"/>
</linearGradient>
<linearGradient id="paint48_linear_2846_1575" x1="-0.0217907" y1="690.631" x2="53.7501" y2="690.631" gradientUnits="userSpaceOnUse">
<stop stop-color="#3BA0FA"/>
<stop offset="1" stop-color="#13FFD3"/>
</linearGradient>
<linearGradient id="paint49_linear_2846_1575" x1="2106.2" y1="1137.51" x2="2210.5" y2="1137.51" gradientUnits="userSpaceOnUse">
<stop stop-color="#3BA0FA"/>
<stop offset="1" stop-color="#13FFD3"/>
</linearGradient>
<linearGradient id="paint50_linear_2846_1575" x1="1929.49" y1="516.789" x2="1981.64" y2="516.789" gradientUnits="userSpaceOnUse">
<stop stop-color="#3BA0FA"/>
<stop offset="1" stop-color="#13FFD3"/>
</linearGradient>
</defs>
</svg>
