<svg xmlns="http://www.w3.org/2000/svg" width="780" height="672" viewBox="0 0 780 672" fill="none"><g clip-path="url(#clip0_413_289)"><path d="M390.001 600.373C567.045 600.373 712.707 513.302 727.511 402.736C737.605 400.512 744.885 394.462 744.885 387.281C744.885 380.1 737.973 374.324 728.245 371.982C718.274 258.49 570.41 168.101 390.001 168.101C299.337 168.101 216.871 191.011 156.001 228.165C152.881 227.306 149.455 226.838 145.845 226.838C131.653 226.838 120.09 234.175 120.09 243.269C120.09 246.118 121.314 248.772 123.394 251.152C78.2454 287.878 51.2054 334.086 51.2054 384.315C51.2054 403.673 55.2431 422.796 63.1349 441.296C60.9937 442.974 59.5866 445.12 59.5866 447.462C59.5866 452.848 66.4384 457.219 74.8807 457.219C83.3231 457.219 90.1749 452.848 90.1749 447.462C90.1749 443.442 86.3819 440.008 80.9372 438.486C73.4125 420.923 69.5584 402.697 69.5584 384.315C69.5584 337.013 94.9466 293.419 137.403 258.724C140.095 259.309 142.909 259.699 145.845 259.699C160.038 259.699 171.601 252.362 171.601 243.269C171.601 240.81 170.683 238.468 169.154 236.361C226.66 201.392 304.476 179.849 390.001 179.849C560.255 179.849 699.921 265.007 709.831 372.06C700.227 374.441 693.375 380.373 693.375 387.32C693.375 394.267 699.86 399.965 709.097 402.463C694.598 506.706 557.074 588.703 389.94 588.703C336.777 588.703 284.104 580.234 237.671 564.194C237.427 558.964 230.697 554.749 222.438 554.749C214.18 554.749 207.144 559.12 207.144 564.506C207.144 569.892 213.996 574.263 222.438 574.263C224.947 574.263 227.271 573.834 229.351 573.17L228.373 574.302C277.62 591.396 333.535 600.412 389.94 600.412L390.001 600.373ZM145.845 251.816C138.382 251.816 132.325 247.952 132.325 243.191C132.325 238.429 138.382 234.566 145.845 234.566C153.309 234.566 159.365 238.429 159.365 243.191C159.365 247.952 153.309 251.816 145.845 251.816ZM705.61 387.281C705.61 382.52 711.667 378.656 719.13 378.656C726.594 378.656 732.65 382.52 732.65 387.281C732.65 392.043 726.594 395.906 719.13 395.906C711.667 395.906 705.61 392.043 705.61 387.281Z" fill="url(#paint0_linear_413_289)"></path><path d="M780 384.198C780 340.292 761.953 299.079 730.569 263.251C731.426 262.041 731.854 260.675 731.854 259.27C731.854 253.806 724.88 249.357 716.315 249.357C707.751 249.357 700.776 253.806 700.776 259.27C700.776 264.734 707.384 268.91 715.642 269.144L715.092 269.496C744.701 303.528 761.647 342.595 761.647 384.198C761.647 446.408 723.84 503.077 662.174 545.422C658.993 544.524 655.506 544.017 651.835 544.017C637.642 544.017 626.08 551.354 626.08 560.447C626.08 562.477 626.753 564.428 627.793 566.224C563.313 600.568 480.358 621.292 390 621.292C299.642 621.292 214.852 600.1 150.066 565.053C151.473 563.023 152.207 560.838 152.207 558.496C152.207 549.442 140.706 542.065 126.452 542.065C122.414 542.065 118.682 542.69 115.318 543.744C55.12 501.594 18.3529 445.589 18.3529 384.198C18.3529 262.783 162.179 162.481 346.809 148.783C351.275 153.583 359.473 156.861 368.894 156.861C379.355 156.861 388.287 152.881 392.325 147.183C448.056 147.417 500.974 155.495 548.325 169.819C548.325 169.819 548.325 169.858 548.325 169.897C548.325 175.361 555.299 179.81 563.864 179.81C572.428 179.81 579.402 175.361 579.402 169.897C579.402 164.433 572.428 159.984 563.864 159.984C562.395 159.984 560.988 160.14 559.642 160.413C509.233 144.802 452.828 135.865 393.242 135.552C389.939 128.918 380.334 124.078 368.833 124.078C356.353 124.078 345.953 129.776 343.567 137.309C150.372 151.905 0 257.046 0 384.198C0 448.906 38.9694 507.955 102.715 552.252C101.492 554.164 100.758 556.272 100.758 558.496C100.758 567.551 112.259 574.927 126.513 574.927C130.306 574.927 133.915 574.38 137.158 573.405C205.308 610.52 293.586 633 390 633C486.414 633 572.306 611.145 640.028 574.966C643.576 576.137 647.553 576.878 651.835 576.878C666.028 576.878 677.591 569.541 677.591 560.447C677.591 558.028 676.734 555.725 675.205 553.657C740.174 509.204 780 449.648 780 384.198ZM368.894 131.806C376.358 131.806 382.414 135.669 382.414 140.431C382.414 145.192 376.358 149.056 368.894 149.056C361.431 149.056 355.374 145.192 355.374 140.431C355.374 135.669 361.431 131.806 368.894 131.806ZM126.513 567.121C119.049 567.121 112.993 563.257 112.993 558.496C112.993 553.735 119.049 549.871 126.513 549.871C133.976 549.871 140.033 553.735 140.033 558.496C140.033 563.257 133.976 567.121 126.513 567.121ZM651.835 569.073C644.372 569.073 638.315 565.209 638.315 560.447C638.315 555.686 644.372 551.822 651.835 551.822C659.299 551.822 665.355 555.686 665.355 560.447C665.355 565.209 659.299 569.073 651.835 569.073Z" fill="url(#paint1_linear_413_289)"></path><path d="M154.043 494.451C155.633 494.451 157.163 494.334 158.631 494.139C211.304 539.138 295.422 568.331 390 568.331C434.598 568.331 477.299 562.008 517.003 549.558C519.083 550.222 521.346 550.612 523.793 550.612C532.236 550.612 539.088 546.241 539.088 540.855C539.088 535.469 532.236 531.098 523.793 531.098C516.269 531.098 510.09 534.533 508.805 539.099C471.671 550.729 431.784 556.622 390.062 556.622C302.09 556.622 223.784 529.654 174.415 487.973C177.779 485.202 179.859 481.767 179.859 477.982C179.859 468.927 168.358 461.551 154.104 461.551C152.33 461.551 150.617 461.668 148.965 461.863C130.368 438.485 119.845 412.103 119.845 384.159C119.845 289.087 241.097 211.734 390.123 211.734C443.897 211.734 494 221.842 536.151 239.171C535.6 240.498 535.233 241.864 535.233 243.269C535.233 252.323 546.735 259.699 560.989 259.699C565.516 259.699 569.737 258.88 573.408 257.553C626.815 289.087 660.4 334.125 660.4 384.12C660.4 408.2 652.753 431.421 637.765 453.277C630.485 454.019 624.857 457.999 624.857 462.878C624.857 468.264 631.709 472.635 640.151 472.635C648.593 472.635 655.445 468.264 655.445 462.878C655.445 461.434 654.895 460.029 654.038 458.819C670.433 435.246 678.753 410.151 678.753 384.159C678.753 330.574 642.659 282.296 585.215 248.615C586.132 246.937 586.683 245.181 586.683 243.308C586.683 234.253 575.182 226.877 560.928 226.877C555.666 226.877 550.772 227.892 546.673 229.609C501.525 210.915 447.751 200.026 390.062 200.026C230.942 200.026 101.431 282.609 101.431 384.159C101.431 414.444 112.993 443.013 133.426 468.225C130.245 470.957 128.349 474.313 128.349 477.943C128.349 486.997 139.85 494.373 154.104 494.373L154.043 494.451ZM154.043 469.395C161.506 469.395 167.563 473.259 167.563 478.021C167.563 482.782 161.506 486.646 154.043 486.646C146.579 486.646 140.523 482.782 140.523 478.021C140.523 473.259 146.579 469.395 154.043 469.395ZM560.866 234.761C568.33 234.761 574.386 238.624 574.386 243.386C574.386 248.147 568.33 252.011 560.866 252.011C553.403 252.011 547.346 248.147 547.346 243.386C547.346 238.624 553.403 234.761 560.866 234.761Z" fill="url(#paint2_linear_413_289)"></path></g><path d="M567 174.829V177C568.261 177 569.372 176.422 569.658 176.267L573.607 174.125C575.709 172.983 577 170.883 577 168.599V120H567V174.815V174.829Z" fill="url(#paint3_linear_413_289)"></path><path d="M567 174.829V120H558V169.542C558 171.248 558.865 172.827 560.284 173.673L564.622 176.281C564.892 176.436 565.865 177 567 177V174.843V174.829Z" fill="url(#paint4_linear_413_289)"></path><path d="M554.865 137.181L536.383 126.738C533.674 125.211 532 122.378 532 119.309V98.4222C532 95.5754 533.532 34.5275 534.979 32C534.979 32 541.816 35.8606 545.135 37.7493L563.617 48.1924L568 49.109V143C563.716 143 560.695 140.486 554.865 137.195V137.181Z" fill="url(#paint5_linear_413_289)"></path><path d="M580.77 137.181L598.739 126.738C601.373 125.211 603 122.378 603 119.309V98.4222C603 95.5754 601.511 34.5275 600.104 32C600.104 32 593.457 35.8606 590.23 37.7493L572.261 48.1924L568 49.109V143C572.165 143 575.102 140.486 580.77 137.195V137.181Z" fill="url(#paint6_linear_413_289)"></path><path d="M580.424 137.657L598.574 127.182C601.235 125.65 602.879 122.808 602.879 119.73V98.7798C602.879 95.9242 601.374 34.6897 599.953 32.1545C599.953 32.1545 593.239 36.027 589.98 37.9214L571.83 48.3964L567.525 49.3158V143.494C571.732 143.494 574.699 140.973 580.424 137.671V137.657Z" fill="url(#paint7_linear_413_289)"></path><path d="M554.613 137.657L536.462 127.182C533.802 125.65 532.158 122.808 532.158 119.73V98.7798C532.158 95.9242 533.663 34.6897 535.083 32.1545C535.083 32.1545 541.797 36.027 545.057 37.9214L563.207 48.3964L567.512 49.3158V143.494C563.305 143.494 560.338 140.973 554.613 137.671V137.657Z" fill="url(#paint8_linear_413_289)"></path><path d="M600 32.1694C598.869 30.1032 595.656 27.2297 592.304 24.8351C591.662 24.2467 590.894 23.6993 590.014 23.193L571.83 12.9031C570.74 12.2874 569.288 12 567.765 12C567.682 12 567.598 12 567.514 12C567.43 12 567.346 12 567.263 12C565.74 12 564.288 12.2737 563.198 12.8894L545 23.1794C544.106 23.6856 543.338 24.233 542.696 24.8214C539.344 27.216 536.131 30.0895 535 32.1557C535 32.1557 541.732 35.9597 545 37.807L546.844 38.8469C546.844 38.8469 546.941 38.9016 546.983 38.9427L562.5 47.7274C562.5 47.7274 562.556 47.7548 562.584 47.7685L563.184 48.1106C564.26 48.7263 565.712 49 567.221 49C567.318 49 567.402 49 567.486 49C567.57 49 567.668 49 567.751 49C569.26 49 570.712 48.7126 571.788 48.1106L572.388 47.7685C572.388 47.7685 572.444 47.7411 572.472 47.7274L587.989 38.9427C587.989 38.9427 588.087 38.8879 588.128 38.8469L589.972 37.807C593.24 35.9597 599.972 32.1557 599.972 32.1557L600 32.1694Z" fill="url(#paint9_linear_413_289)"></path><g clip-path="url(#clip1_413_289)"><path d="M65.7252 63.5652L158.5 10.1223L251.275 63.5652L158.5 116.99L65.7252 63.5652Z" fill="white"></path><path d="M74.5557 63.5652L158.5 15.2112L242.444 63.5652L158.5 111.901L74.5557 63.5652Z" fill="#CCCCCC"></path><path d="M82.6811 68.2285L158.5 24.5563V15.2112L74.5557 63.5652L82.6811 68.2285Z" fill="#E6E6E6"></path><path d="M234.319 68.2285L158.5 24.5563V15.2112L242.444 63.5652L234.319 68.2285Z" fill="#E6E6E6"></path><path d="M273.87 242.344C274.965 232.906 268.49 222.673 254.837 214.808L190.482 177.742C167.33 164.4 132.306 162.957 112.252 174.504L56.5238 206.61C46.5804 212.328 42.2023 220.175 43.1113 228.243C42.9443 229.612 42.9629 230.982 43.1113 232.369C42.0168 241.807 48.4911 252.04 62.1449 259.905L126.499 296.971C149.651 310.313 184.676 311.757 204.73 300.209L260.458 268.103C270.401 262.385 274.779 254.539 273.87 246.47C274.037 245.101 274.019 243.732 273.87 242.344Z" fill="#E5E2EC"></path><path d="M254.855 214.808C278.007 228.15 280.511 248.302 260.476 259.85L204.748 291.956C184.694 303.503 149.67 302.06 126.518 288.718L62.1634 251.652C39.0114 238.31 36.4885 218.139 56.5423 206.592L112.27 174.485C132.324 162.938 167.349 164.381 190.501 177.724L254.855 214.79V214.808Z" fill="#13FFD5"></path><path d="M158.5 116.99V287.274L251.275 233.85V63.5652L158.5 116.99Z" fill="#E6E6E6"></path><path d="M158.5 116.99V287.274L65.7252 233.85V63.5652L158.5 116.99Z" fill="#F2FAFF"></path><path d="M158.5 220.452V287.274L251.275 233.85V167.028L158.5 220.452Z" fill="#E6E6E6"></path><path d="M158.5 220.452V287.274L65.7252 233.85V167.028L158.5 220.452Z" fill="#F2FAFF"></path><path d="M144.29 134.718L132.658 128.167V141.398L144.29 147.949V134.718Z" fill="#3BA2FC"></path><path d="M132.769 128.278L121.156 121.708V134.958L132.769 141.509V128.278Z" fill="#3BA2FC"></path><path d="M104.071 111.216L92.439 104.665V117.896L104.071 124.447V111.216Z" fill="#3BA2FC"></path><path d="M92.5689 104.776L80.9373 98.2068V111.456L92.5689 118.007V104.776Z" fill="#3BA2FC"></path><path d="M144.29 163.067L132.658 156.517V169.766L144.29 176.317V163.067Z" fill="#3BA2FC"></path><path d="M132.769 156.627L121.156 150.077V163.308L132.769 169.877V156.627Z" fill="#3BA2FC"></path><path d="M104.071 139.566L92.439 133.015V146.265L104.071 152.815V139.566Z" fill="#3BA2FC"></path><path d="M92.5689 133.126L80.9373 126.575V139.806L92.5689 146.376V133.126Z" fill="#3BA2FC"></path><path d="M144.29 191.436L132.658 184.885V198.116L144.29 204.686V191.436Z" fill="#3BA2FC"></path><path d="M132.769 184.996L121.156 178.427V191.676L132.769 198.227V184.996Z" fill="#3BA2FC"></path><path d="M104.071 167.934L92.439 161.383V174.614L104.071 181.184V167.934Z" fill="#3BA2FC"></path><path d="M92.5689 161.494L80.9373 154.944V168.175L92.5689 174.726V161.494Z" fill="#3BA2FC"></path><path d="M144.29 219.804L132.658 213.235V226.485L144.29 233.035V219.804Z" fill="#3BA2FC"></path><path d="M132.769 213.346L121.156 206.795V220.045L132.769 226.595V213.346Z" fill="#3BA2FC"></path><path d="M104.071 196.302L92.439 189.733V202.983L104.071 209.534V196.302Z" fill="#3BA2FC"></path><path d="M92.5689 189.844L80.9373 183.293V196.543L92.5689 203.094V189.844Z" fill="#3BA2FC"></path><path d="M144.29 248.154L132.658 241.603V254.834L144.29 261.404V248.154Z" fill="#3BA2FC"></path><path d="M132.769 241.714L121.156 235.163V248.395L132.769 254.945V241.714Z" fill="#3BA2FC"></path><path d="M104.071 224.652L92.439 218.102V231.333L104.071 237.902V224.652Z" fill="#3BA2FC"></path><path d="M92.5689 218.213L80.9373 211.662V224.893L92.5689 231.444V218.213Z" fill="#3BA2FC"></path><path d="M173.601 134.218L185.214 127.667V140.898L173.601 147.468V134.218Z" fill="#3BA2FC"></path><path d="M185.214 127.667L196.845 121.098V134.347L185.214 140.898V127.667Z" fill="#3BA2FC"></path><path d="M213.801 110.716L225.433 104.166V117.397L213.801 123.966V110.716Z" fill="#3BA2FC"></path><path d="M225.433 104.166L237.064 97.5962V110.846L225.433 117.397V104.166Z" fill="#3BA2FC"></path><path d="M173.601 162.586L185.214 156.017V169.267L173.601 175.818V162.586Z" fill="#3BA2FC"></path><path d="M185.214 156.017L196.845 149.466V162.716L185.214 169.267V156.017Z" fill="#3BA2FC"></path><path d="M213.801 139.085L225.433 132.515V145.765L213.801 152.316V139.085Z" fill="#3BA2FC"></path><path d="M225.433 132.515L237.064 125.965V139.214L225.433 145.765V132.515Z" fill="#3BA2FC"></path><path d="M173.601 190.936L185.214 184.385V197.617L173.601 204.186V190.936Z" fill="#3BA2FC"></path><path d="M185.214 184.385L196.845 177.834V191.066L185.214 197.617V184.385Z" fill="#3BA2FC"></path><path d="M213.801 167.435L225.433 160.884V174.115L213.801 180.684V167.435Z" fill="#3BA2FC"></path><path d="M225.433 160.884L237.064 154.333V167.564L225.433 174.115V160.884Z" fill="#3BA2FC"></path><path d="M173.601 219.305L185.214 212.735V225.985L173.601 232.536V219.305Z" fill="#3BA2FC"></path><path d="M185.214 212.735L196.845 206.184V219.434L185.214 225.985V212.735Z" fill="#3BA2FC"></path><path d="M213.801 195.803L225.433 189.234V202.483L213.801 209.034V195.803Z" fill="#3BA2FC"></path><path d="M225.433 189.252L237.064 182.683V195.933L225.433 202.483V189.252Z" fill="#3BA2FC"></path><path d="M173.601 247.655L185.214 241.104V254.353L173.601 260.904V247.655Z" fill="#3BA2FC"></path><path d="M185.214 241.104L196.845 234.553V247.784L185.214 254.353V241.104Z" fill="#3BA2FC"></path><path d="M213.801 224.153L225.433 217.602V230.852L213.801 237.403V224.153Z" fill="#3BA2FC"></path><path d="M225.433 217.602L237.064 211.051V224.282L225.433 230.852V217.602Z" fill="#3BA2FC"></path><path d="M135.812 47.8729L135.682 21.6511L158.556 34.7713L158.259 61.0671L135.812 47.8729Z" fill="#F2FAFF"></path><path d="M158.556 34.7713L181.318 21.6511V47.7989L158.259 61.0671L158.556 34.7713Z" fill="#E6E6E6"></path><path d="M169.872 12.8982L158.481 34.8638L181.281 21.7252L169.872 12.8982Z" fill="#6B32C0"></path><path d="M135.719 21.7251L158.556 34.7712L169.872 12.8981L147.128 0L135.719 21.7251Z" fill="#6E6CFF"></path><path d="M152.712 44.6346V57.6992L141.359 51.1669V38.0837L152.712 44.6346Z" fill="#3BA2FC"></path><path d="M165.401 38.7868V49.0941L174.361 43.9312V33.6423L165.401 38.7868Z" fill="#3BA2FC"></path><path d="M181.318 43.8572V54.2386L185.455 51.8514V41.4885L181.318 43.8572Z" fill="#333333"></path><path d="M181.318 43.8572V54.2386L177.181 51.8514V41.4885L181.318 43.8572Z" fill="#4D4D4D"></path><path d="M177.181 41.4885L181.318 39.1013L185.455 41.4885L181.318 43.8571L177.181 41.4885Z" fill="#666666"></path><path d="M182.375 41.1554C182.375 41.7475 181.893 42.2287 181.299 42.2287C180.706 42.2287 180.223 41.7475 180.223 41.1554V9.78912C180.223 9.19695 180.706 8.71582 181.299 8.71582C181.893 8.71582 182.375 9.19695 182.375 9.78912V41.1739V41.1554Z" fill="#4D4D4D"></path><path d="M183.377 8.71594C183.377 9.86326 182.45 10.7885 181.318 10.7885C180.186 10.7885 179.24 9.86326 179.24 8.71594C179.24 7.56862 180.168 6.66187 181.318 6.66187C182.468 6.66187 183.377 7.58712 183.377 8.71594Z" fill="#6B32C0"></path><path d="M189.87 17.95C189.759 17.95 189.647 17.913 189.555 17.8205C189.388 17.6539 189.388 17.3764 189.555 17.1913C191.762 14.9892 192.968 12.0839 192.968 8.97502C192.968 5.86615 191.762 2.94233 189.555 0.758724C189.388 0.592178 189.388 0.3146 189.555 0.129549C189.722 -0.036998 190 -0.036998 190.185 0.129549C192.541 2.49821 193.859 5.62558 193.859 8.97502C193.859 12.3245 192.56 15.4703 190.185 17.8205C190.093 17.913 189.981 17.95 189.87 17.95Z" fill="#13FFD5"></path><path d="M172.747 17.95C172.636 17.95 172.525 17.913 172.432 17.8205C170.057 15.4518 168.759 12.3245 168.759 8.97502C168.759 5.62558 170.057 2.4797 172.432 0.129549C172.599 -0.036998 172.877 -0.036998 173.063 0.129549C173.23 0.296095 173.23 0.573673 173.063 0.758724C170.855 2.94233 169.649 5.86615 169.649 8.97502C169.649 12.0839 170.855 15.0077 173.063 17.1913C173.23 17.3579 173.23 17.6354 173.063 17.8205C172.97 17.913 172.859 17.95 172.747 17.95Z" fill="#13FFD5"></path><path d="M187.366 15.4704C187.254 15.4704 187.143 15.4334 187.05 15.3408C186.883 15.1743 186.883 14.8967 187.05 14.7117C190.223 11.5473 190.223 6.40284 187.05 3.23846C186.883 3.07191 186.883 2.79434 187.05 2.60928C187.217 2.44274 187.495 2.44274 187.681 2.60928C191.187 6.10676 191.187 11.8064 187.681 15.3223C187.588 15.4149 187.477 15.4519 187.366 15.4519V15.4704Z" fill="#13FFD5"></path><path d="M175.252 15.4704C175.14 15.4704 175.029 15.4334 174.936 15.3409C171.43 11.8434 171.43 6.14382 174.936 2.62784C175.103 2.46129 175.382 2.46129 175.567 2.62784C175.734 2.79439 175.734 3.07196 175.567 3.25702C172.395 6.4214 172.395 11.5658 175.567 14.7302C175.734 14.8968 175.734 15.1743 175.567 15.3594C175.474 15.4519 175.363 15.4889 175.252 15.4889V15.4704Z" fill="#13FFD5"></path><path d="M184.861 12.972C184.75 12.972 184.639 12.935 184.546 12.8425C184.379 12.6759 184.379 12.3984 184.546 12.2133C185.418 11.3436 185.9 10.1963 185.9 8.97491C185.9 7.75357 185.418 6.60625 184.546 5.73651C184.379 5.56996 184.379 5.29238 184.546 5.10733C184.713 4.94079 184.991 4.94079 185.177 5.10733C186.215 6.14362 186.772 7.513 186.772 8.97491C186.772 10.4368 186.197 11.8062 185.177 12.8425C185.084 12.935 184.973 12.972 184.861 12.972Z" fill="#13FFD5"></path><path d="M177.756 12.972C177.645 12.972 177.534 12.935 177.441 12.8425C176.402 11.8062 175.827 10.4368 175.827 8.97491C175.827 7.513 176.402 6.14362 177.441 5.10733C177.608 4.94079 177.886 4.94079 178.071 5.10733C178.238 5.27388 178.238 5.55146 178.071 5.73651C177.2 6.60625 176.736 7.75357 176.736 8.97491C176.736 10.1963 177.218 11.3436 178.071 12.2133C178.238 12.3799 178.238 12.6574 178.071 12.8425C177.979 12.935 177.867 12.972 177.756 12.972Z" fill="#13FFD5"></path></g><path d="M777.867 271.489C779.056 261.209 772.021 250.063 757.186 241.497L687.26 201.126C662.103 186.614 624.046 185.022 602.256 197.599L541.703 232.548C530.899 238.776 526.141 247.322 527.129 256.11C526.948 257.601 526.968 259.093 527.129 260.605C525.94 270.884 532.975 282.03 547.811 290.596L617.737 330.967C642.893 345.499 680.95 347.071 702.74 334.494L763.293 299.525C774.098 293.297 778.855 284.751 777.867 275.963C778.028 274.472 778.028 272.98 777.867 271.468V271.489Z" fill="#E5E2EC"></path><path d="M757.206 238.477C782.362 252.989 785.104 274.959 763.313 287.556L702.761 322.505C680.97 335.082 642.913 333.51 617.757 318.978L547.831 278.607C522.674 264.075 519.953 242.105 541.723 229.528L602.276 194.579C624.066 182.002 662.123 183.574 687.28 198.106L757.206 238.477Z" fill="#13FFD5"></path><path d="M653.879 320.127L693.891 297.029L713.908 285.48L753.92 262.361V204.616L653.879 262.361V320.127Z" fill="#E6E6E6"></path><path d="M653.879 320.127L613.867 297.029L593.85 285.48L553.838 262.361V204.616L653.879 262.361V320.127Z" fill="#F2FAFF"></path><path d="M713.908 285.48V250.812L693.892 262.361V297.029L713.908 285.48Z" fill="#1C3644"></path><path d="M724.007 268.086V245.108L743.801 233.418V256.516L724.007 268.086Z" fill="#3BA2FC"></path><path d="M663.978 302.733V279.755L683.773 268.368V291.466L663.978 302.733Z" fill="#3BA2FC"></path><path d="M666.518 282.577L671.235 279.836L664.139 275.745L659.402 278.466L666.518 282.577Z" fill="#AB1319"></path><path d="M671.235 279.876L675.972 277.135L668.876 273.044L664.139 275.765L671.235 279.876Z" fill="#CCCCCC"></path><path d="M675.972 277.135L680.709 274.394L673.613 270.302L668.876 273.023L675.972 277.135Z" fill="#AB1319"></path><path d="M680.709 274.434L685.426 271.693L678.33 267.602L673.613 270.343L680.709 274.434Z" fill="#CCCCCC"></path><path d="M685.425 271.693L690.162 268.972L683.067 264.861L678.33 267.602L685.425 271.693Z" fill="#AB1319"></path><path d="M671.235 279.856V285.963C671.235 287.717 670.167 289.732 668.876 290.478C667.566 291.224 666.518 290.418 666.518 288.684V282.577L671.255 279.836L671.235 279.856Z" fill="#C1272D"></path><path d="M675.972 277.075V283.182C675.972 284.935 674.924 286.951 673.613 287.697C672.303 288.442 671.255 287.656 671.255 285.903V279.796L675.992 277.055L675.972 277.075Z" fill="#F2F2F2"></path><path d="M680.689 274.354V280.461C680.689 282.194 679.62 284.23 678.33 284.976C677.02 285.721 675.972 284.935 675.972 283.202V277.095L680.709 274.354H680.689Z" fill="#C1272D"></path><path d="M685.425 271.592V277.7C685.425 279.433 684.357 281.469 683.067 282.214C681.757 282.98 680.708 282.174 680.708 280.421V274.313L685.445 271.572L685.425 271.592Z" fill="#F2F2F2"></path><path d="M690.163 268.872V274.979C690.163 276.712 689.094 278.748 687.804 279.493C686.494 280.259 685.446 279.453 685.446 277.7V271.593L690.183 268.872H690.163Z" fill="#C1272D"></path><path d="M695.645 266.131L700.382 263.389L693.287 259.298L688.55 262.019L695.645 266.131Z" fill="#AB1319"></path><path d="M700.382 263.43L705.099 260.688L698.003 256.597L693.287 259.318L700.382 263.43Z" fill="#CCCCCC"></path><path d="M705.119 260.689L709.836 257.968L702.74 253.876L698.003 256.597L705.119 260.689Z" fill="#AB1319"></path><path d="M709.836 257.988L714.573 255.267L707.478 251.155L702.741 253.896L709.836 257.988Z" fill="#CCCCCC"></path><path d="M714.573 255.267L719.29 252.526L712.194 248.434L707.478 251.155L714.573 255.267Z" fill="#AB1319"></path><path d="M700.382 263.409V269.516C700.382 271.27 699.314 273.285 698.024 274.031C696.714 274.797 695.666 273.991 695.666 272.237V266.13L700.403 263.389L700.382 263.409Z" fill="#C1272D"></path><path d="M705.099 260.648V266.755C705.099 268.489 704.051 270.524 702.741 271.27C701.431 272.036 700.382 271.23 700.382 269.476V263.369L705.119 260.628L705.099 260.648Z" fill="#F2F2F2"></path><path d="M709.836 257.927V264.034C709.836 265.768 708.788 267.803 707.478 268.549C706.167 269.295 705.119 268.509 705.119 266.755V260.648L709.856 257.907L709.836 257.927Z" fill="#C1272D"></path><path d="M714.573 255.146V261.253C714.573 262.986 713.504 265.022 712.214 265.768C710.904 266.513 709.856 265.727 709.856 263.974V257.867L714.593 255.125L714.573 255.146Z" fill="#F2F2F2"></path><path d="M719.29 252.425V258.532C719.29 260.265 718.242 262.301 716.932 263.047C715.621 263.792 714.573 263.006 714.573 261.273V255.166L719.31 252.425H719.29Z" fill="#C1272D"></path><path d="M727.212 248.333L731.929 245.592L724.833 241.5L720.096 244.221L727.212 248.333Z" fill="#AB1319"></path><path d="M731.928 245.632L736.665 242.891L729.57 238.8L724.833 241.521L731.928 245.632Z" fill="#CCCCCC"></path><path d="M736.666 242.891L741.383 240.15L734.287 236.059L729.57 238.8L736.666 242.891Z" fill="#AB1319"></path><path d="M741.403 240.19L746.119 237.469L739.024 233.358L734.287 236.099L741.403 240.19Z" fill="#CCCCCC"></path><path d="M746.119 237.449L750.856 234.728L743.761 230.637L739.024 233.358L746.119 237.449Z" fill="#AB1319"></path><path d="M731.929 245.612V251.719C731.929 253.453 730.881 255.488 729.57 256.234C728.26 256.98 727.212 256.194 727.212 254.461V248.353L731.949 245.612H731.929Z" fill="#C1272D"></path><path d="M736.666 242.831V248.938C736.666 250.671 735.597 252.707 734.307 253.453C732.997 254.219 731.949 253.412 731.949 251.679V245.572L736.686 242.831H736.666Z" fill="#F2F2F2"></path><path d="M741.382 240.13V246.237C741.382 247.97 740.334 250.006 739.024 250.752C737.714 251.518 736.666 250.711 736.666 248.978V242.871L741.403 240.15L741.382 240.13Z" fill="#C1272D"></path><path d="M746.119 237.349V243.456C746.119 245.189 745.071 247.225 743.761 247.97C742.451 248.716 741.402 247.91 741.402 246.177V240.07L746.139 237.328L746.119 237.349Z" fill="#F2F2F2"></path><path d="M750.856 234.628V240.735C750.856 242.468 749.788 244.504 748.498 245.249C747.188 245.995 746.14 245.209 746.14 243.456V237.349L750.877 234.607L750.856 234.628Z" fill="#C1272D"></path><path d="M628.642 294.449V271.472L608.828 260.084V283.182L628.642 294.449Z" fill="#3BA2FC"></path><path d="M626.102 274.273L621.385 271.552L628.481 267.461L633.218 270.182L626.102 274.273Z" fill="#AB1319"></path><path d="M621.385 271.572L616.648 268.851L623.744 264.74L628.481 267.481L621.385 271.572Z" fill="#CCCCCC"></path><path d="M616.649 268.851L611.912 266.11L619.027 262.019L623.744 264.74L616.649 268.851Z" fill="#AB1319"></path><path d="M611.912 266.151L607.195 263.409L614.29 259.318L619.007 262.039L611.912 266.151Z" fill="#CCCCCC"></path><path d="M607.174 263.409L602.458 260.668L609.553 256.577L614.29 259.298L607.174 263.409Z" fill="#AB1319"></path><path d="M621.385 271.552V277.659C621.385 279.413 622.454 281.428 623.744 282.174C625.054 282.92 626.102 282.134 626.102 280.38V274.273L621.365 271.532L621.385 271.552Z" fill="#C1272D"></path><path d="M616.649 268.791V274.898C616.649 276.631 617.717 278.667 619.007 279.413C620.317 280.179 621.365 279.372 621.365 277.619V271.512L616.628 268.771L616.649 268.791Z" fill="#F2F2F2"></path><path d="M611.912 266.07V272.177C611.912 273.91 612.96 275.946 614.27 276.692C615.58 277.458 616.628 276.651 616.628 274.918V268.811L611.912 266.07Z" fill="#C1272D"></path><path d="M607.194 263.309V269.416C607.194 271.149 608.263 273.185 609.553 273.931C610.863 274.697 611.911 273.89 611.911 272.137V266.03L607.174 263.289L607.194 263.309Z" fill="#F2F2F2"></path><path d="M602.458 260.588V266.695C602.458 268.448 603.506 270.464 604.816 271.209C606.126 271.975 607.174 271.169 607.174 269.416V263.309L602.438 260.567L602.458 260.588Z" fill="#C1272D"></path><path d="M594.314 274.394V251.397L574.52 239.707V262.825L594.314 274.394Z" fill="#3BA2FC"></path><path d="M591.109 254.622L586.392 251.901L593.487 247.809L598.204 250.53L591.109 254.622Z" fill="#AB1319"></path><path d="M586.392 251.921L581.655 249.2L588.751 245.108L593.488 247.829L586.392 251.921Z" fill="#CCCCCC"></path><path d="M581.655 249.2L576.918 246.459L584.014 242.367L588.751 245.088L581.655 249.2Z" fill="#AB1319"></path><path d="M576.918 246.499L572.202 243.758L579.297 239.666L584.014 242.387L576.918 246.499Z" fill="#CCCCCC"></path><path d="M572.181 243.758L567.464 241.017L574.56 236.925L579.297 239.666L572.181 243.758Z" fill="#AB1319"></path><path d="M586.392 251.901V258.008C586.392 259.741 587.461 261.777 588.751 262.523C590.061 263.288 591.109 262.482 591.109 260.729V254.622L586.372 251.901H586.392Z" fill="#C1272D"></path><path d="M581.655 249.139V255.246C581.655 257 582.704 259.016 584.014 259.761C585.324 260.527 586.372 259.721 586.372 257.967V251.86L581.635 249.139H581.655Z" fill="#F2F2F2"></path><path d="M576.918 246.418V252.526C576.918 254.279 577.986 256.295 579.277 257.04C580.587 257.806 581.635 256.98 581.635 255.247V249.139L576.898 246.418H576.918Z" fill="#C1272D"></path><path d="M572.201 243.657V249.764C572.201 251.518 573.27 253.533 574.56 254.279C575.87 255.025 576.918 254.239 576.918 252.485V246.378L572.181 243.637L572.201 243.657Z" fill="#F2F2F2"></path><path d="M567.464 240.936V247.043C567.464 248.797 568.513 250.812 569.823 251.558C571.133 252.324 572.181 251.518 572.181 249.784V243.677L567.444 240.936H567.464Z" fill="#C1272D"></path><path d="M753.92 204.616L653.879 146.871L553.838 204.616L653.879 262.361L753.92 204.616Z" fill="#F2F2F2"></path><path d="M740.576 204.616L653.879 154.57L567.162 204.616L653.879 254.682L740.576 204.616Z" fill="#624BF1"></path><path d="M653.879 154.57V162.713L732.977 209.01L740.576 204.616L653.879 154.57Z" fill="#401481"></path><path d="M653.879 154.57V162.713L574.782 209.01L567.162 204.616L653.879 154.57Z" fill="#401481"></path><path d="M586.816 198.529L596.854 197.461V210.844C596.834 211.63 596.249 212.457 595.12 213.102C593.024 214.311 589.859 214.452 588.025 213.384C587.219 212.92 586.816 212.295 586.795 211.63V198.509L586.816 198.529Z" fill="#B3B3B3"></path><path d="M588.549 196.131C586.453 197.34 586.231 199.174 588.045 200.222C589.859 201.27 593.044 201.149 595.14 199.92C597.237 198.711 597.458 196.877 595.644 195.828C593.83 194.78 590.665 194.901 588.569 196.131H588.549Z" fill="#808080"></path><path d="M597.136 209.937L602.458 209.373V216.468C602.458 216.891 602.135 217.314 601.531 217.657C600.422 218.302 598.749 218.382 597.781 217.818C597.358 217.576 597.136 217.233 597.136 216.891V209.937Z" fill="#B3B3B3"></path><path d="M598.064 208.667C596.955 209.312 596.834 210.28 597.802 210.824C598.769 211.388 600.442 211.308 601.551 210.663C602.66 210.018 602.781 209.05 601.813 208.506C600.845 207.942 599.172 208.022 598.064 208.667Z" fill="#808080"></path><path d="M653.879 264.256L693.891 241.158L713.908 229.609L753.92 206.511V148.745L653.879 206.511V264.256Z" fill="#E6E6E6"></path><path d="M653.879 264.256L613.867 241.158L593.85 229.609L553.838 206.511V148.745L653.879 206.511V264.256Z" fill="#F2FAFF"></path><path d="M724.007 212.215V189.238L743.801 177.547V200.645L724.007 212.215Z" fill="#3BA2FC"></path><path d="M663.978 246.862V223.885L683.773 212.497V235.595L663.978 246.862Z" fill="#3BA2FC"></path><path d="M666.518 226.706L671.235 223.965L664.139 219.874L659.402 222.595L666.518 226.706Z" fill="#AB1319"></path><path d="M671.235 224.006L675.972 221.264L668.876 217.173L664.139 219.894L671.235 224.006Z" fill="#CCCCCC"></path><path d="M675.972 221.264L680.709 218.523L673.613 214.432L668.876 217.173L675.972 221.264Z" fill="#AB1319"></path><path d="M680.709 218.564L685.426 215.843L678.33 211.731L673.613 214.472L680.709 218.564Z" fill="#CCCCCC"></path><path d="M685.425 215.843L690.162 213.102L683.067 209.01L678.33 211.731L685.425 215.843Z" fill="#AB1319"></path><path d="M671.235 223.985V230.093C671.235 231.846 670.167 233.862 668.876 234.607C667.566 235.353 666.518 234.567 666.518 232.814V226.706L671.255 223.965L671.235 223.985Z" fill="#C1272D"></path><path d="M675.972 221.204V227.311C675.972 229.065 674.924 231.08 673.613 231.826C672.303 232.592 671.255 231.786 671.255 230.032V223.925L675.992 221.184L675.972 221.204Z" fill="#F2F2F2"></path><path d="M680.689 218.483V224.59C680.689 226.323 679.62 228.359 678.33 229.105C677.02 229.851 675.972 229.065 675.972 227.331V221.224L680.709 218.483H680.689Z" fill="#C1272D"></path><path d="M685.425 215.722V221.829C685.425 223.562 684.357 225.598 683.067 226.344C681.757 227.109 680.708 226.303 680.708 224.57V218.463L685.445 215.722H685.425Z" fill="#F2F2F2"></path><path d="M690.163 213.001V219.108C690.163 220.861 689.094 222.877 687.804 223.623C686.494 224.388 685.446 223.582 685.446 221.829V215.722L690.183 212.98L690.163 213.001Z" fill="#C1272D"></path><path d="M727.212 192.462L731.929 189.721L724.833 185.63L720.096 188.351L727.212 192.462Z" fill="#AB1319"></path><path d="M731.928 189.761L736.665 187.02L729.57 182.929L724.833 185.65L731.928 189.761Z" fill="#CCCCCC"></path><path d="M736.666 187.02L741.383 184.299L734.287 180.188L729.57 182.929L736.666 187.02Z" fill="#AB1319"></path><path d="M741.403 184.32L746.119 181.599L739.024 177.507L734.287 180.228L741.403 184.32Z" fill="#CCCCCC"></path><path d="M746.119 181.578L750.856 178.857L743.761 174.766L739.024 177.487L746.119 181.578Z" fill="#AB1319"></path><path d="M731.929 189.741V195.849C731.929 197.582 730.881 199.618 729.57 200.363C728.26 201.109 727.212 200.323 727.212 198.59V192.483L731.949 189.741H731.929Z" fill="#C1272D"></path><path d="M736.666 186.98V193.087C736.666 194.82 735.597 196.856 734.307 197.602C732.997 198.368 731.949 197.562 731.949 195.828V189.721L736.686 186.98H736.666Z" fill="#F2F2F2"></path><path d="M741.382 184.259V190.366C741.382 192.12 740.334 194.135 739.024 194.881C737.714 195.647 736.666 194.841 736.666 193.087V186.98L741.403 184.239L741.382 184.259Z" fill="#C1272D"></path><path d="M746.119 181.478V187.585C746.119 189.338 745.071 191.354 743.761 192.1C742.451 192.845 741.402 192.039 741.402 190.306V184.199L746.139 181.458L746.119 181.478Z" fill="#F2F2F2"></path><path d="M750.856 178.757V184.864C750.856 186.617 749.788 188.633 748.498 189.379C747.188 190.124 746.14 189.338 746.14 187.585V181.478L750.877 178.737L750.856 178.757Z" fill="#C1272D"></path><path d="M628.642 238.578V215.601L608.828 204.213V227.311L628.642 238.578Z" fill="#3BA2FC"></path><path d="M626.102 218.423L621.385 215.681L628.481 211.59L633.218 214.311L626.102 218.423Z" fill="#AB1319"></path><path d="M621.385 215.722L616.648 212.981L623.744 208.869L628.481 211.61L621.385 215.722Z" fill="#CCCCCC"></path><path d="M616.649 212.981L611.912 210.239L619.027 206.148L623.744 208.869L616.649 212.981Z" fill="#AB1319"></path><path d="M611.912 210.28L607.195 207.539L614.29 203.447L619.007 206.168L611.912 210.28Z" fill="#CCCCCC"></path><path d="M607.174 207.539L602.458 204.818L609.553 200.706L614.29 203.447L607.174 207.539Z" fill="#AB1319"></path><path d="M621.385 215.681V221.788C621.385 223.522 622.454 225.557 623.744 226.303C625.054 227.049 626.102 226.263 626.102 224.509V218.402L621.365 215.661L621.385 215.681Z" fill="#C1272D"></path><path d="M616.649 212.92V219.027C616.649 220.781 617.717 222.796 619.007 223.542C620.317 224.288 621.365 223.502 621.365 221.748V215.641L616.628 212.9L616.649 212.92Z" fill="#F2F2F2"></path><path d="M611.912 210.199V216.326C611.912 218.06 612.96 220.096 614.27 220.841C615.58 221.607 616.628 220.801 616.628 219.047V212.94L611.912 210.199Z" fill="#C1272D"></path><path d="M607.194 207.438V213.545C607.194 215.278 608.263 217.314 609.553 218.06C610.863 218.826 611.911 218.019 611.911 216.266V210.159L607.174 207.438H607.194Z" fill="#F2F2F2"></path><path d="M602.458 204.717V210.824C602.458 212.577 603.506 214.593 604.816 215.359C606.126 216.105 607.174 215.298 607.174 213.565V207.458L602.438 204.737L602.458 204.717Z" fill="#C1272D"></path><path d="M594.314 218.523V195.546L574.52 183.856V206.954L594.314 218.523Z" fill="#3BA2FC"></path><path d="M591.109 198.751L586.392 196.03L593.487 191.938L598.204 194.659L591.109 198.751Z" fill="#AB1319"></path><path d="M586.392 196.07L581.655 193.329L588.751 189.238L593.488 191.959L586.392 196.07Z" fill="#CCCCCC"></path><path d="M581.655 193.329L576.918 190.588L584.014 186.496L588.751 189.237L581.655 193.329Z" fill="#AB1319"></path><path d="M576.918 190.628L572.202 187.907L579.297 183.795L584.014 186.537L576.918 190.628Z" fill="#CCCCCC"></path><path d="M572.181 187.887L567.464 185.166L574.56 181.054L579.297 183.796L572.181 187.887Z" fill="#AB1319"></path><path d="M586.392 196.05V202.157C586.392 203.89 587.461 205.926 588.751 206.672C590.061 207.418 591.109 206.632 591.109 204.878V198.771L586.372 196.03L586.392 196.05Z" fill="#C1272D"></path><path d="M581.655 193.269V199.376C581.655 201.109 582.704 203.145 584.014 203.891C585.324 204.656 586.372 203.85 586.372 202.097V195.99L581.635 193.249L581.655 193.269Z" fill="#F2F2F2"></path><path d="M576.918 190.547V196.655C576.918 198.388 577.986 200.424 579.277 201.169C580.587 201.935 581.635 201.109 581.635 199.376V193.268L576.898 190.527L576.918 190.547Z" fill="#C1272D"></path><path d="M572.201 187.786V193.893C572.201 195.647 573.27 197.662 574.56 198.408C575.87 199.154 576.918 198.368 576.918 196.614V190.507L572.181 187.766L572.201 187.786Z" fill="#F2F2F2"></path><path d="M567.464 185.065V191.172C567.464 192.906 568.513 194.941 569.823 195.687C571.133 196.433 572.181 195.647 572.181 193.893V187.786L567.444 185.045L567.464 185.065Z" fill="#C1272D"></path><path d="M753.92 148.745L653.879 91L553.838 148.745L653.879 206.511L753.92 148.745Z" fill="#F2F2F2"></path><path d="M740.576 148.745L653.879 98.6995L567.162 148.745L653.879 198.811L740.576 148.745Z" fill="#CCCCCC"></path><path d="M653.879 98.6995V106.842L732.977 153.139L740.576 148.745L653.879 98.6995Z" fill="#E6E6E6"></path><path d="M653.879 98.6995V106.842L574.782 153.139L567.162 148.745L653.879 98.6995Z" fill="#E6E6E6"></path><path d="M586.816 142.658L596.854 141.59V154.973C596.834 155.759 596.249 156.586 595.12 157.231C593.024 158.44 589.859 158.581 588.025 157.533C587.219 157.069 586.816 156.445 586.795 155.779V142.658H586.816Z" fill="#B3B3B3"></path><path d="M588.549 140.26C586.453 141.469 586.231 143.303 588.045 144.351C589.859 145.399 593.044 145.278 595.14 144.069C597.237 142.86 597.458 141.026 595.644 139.978C593.83 138.93 590.665 139.05 588.569 140.28L588.549 140.26Z" fill="#808080"></path><path d="M597.136 154.066L602.458 153.502V160.597C602.458 161.02 602.135 161.443 601.531 161.786C600.422 162.431 598.749 162.491 597.781 161.947C597.358 161.705 597.136 161.363 597.136 161.02V154.066Z" fill="#B3B3B3"></path><path d="M598.064 152.796C596.955 153.441 596.834 154.409 597.802 154.953C598.769 155.517 600.442 155.437 601.551 154.792C602.66 154.147 602.781 153.179 601.813 152.615C600.845 152.071 599.172 152.131 598.064 152.776V152.796Z" fill="#808080"></path><path d="M154 482.829V485C155.261 485 156.372 484.422 156.658 484.267L160.607 482.125C162.709 480.983 164 478.883 164 476.599V428H154V482.815V482.829Z" fill="url(#paint10_linear_413_289)"></path><path d="M154 482.829V428H145V477.542C145 479.248 145.865 480.827 147.284 481.673L151.622 484.281C151.892 484.436 152.865 485 154 485V482.843V482.829Z" fill="url(#paint11_linear_413_289)"></path><path d="M141.865 445.181L123.383 434.738C120.674 433.211 119 430.378 119 427.309V406.422C119 403.575 120.532 342.527 121.979 340C121.979 340 128.816 343.861 132.135 345.749L150.617 356.192L155 357.109V451C150.716 451 147.695 448.486 141.865 445.195V445.181Z" fill="url(#paint12_linear_413_289)"></path><path d="M167.77 445.181L185.739 434.738C188.373 433.211 190 430.378 190 427.309V406.422C190 403.575 188.511 342.527 187.104 340C187.104 340 180.457 343.861 177.23 345.749L159.261 356.192L155 357.109V451C159.165 451 162.102 448.486 167.77 445.195V445.181Z" fill="url(#paint13_linear_413_289)"></path><path d="M167.424 445.657L185.574 435.182C188.235 433.65 189.879 430.808 189.879 427.73V406.78C189.879 403.924 188.374 342.69 186.953 340.155C186.953 340.155 180.239 344.027 176.98 345.921L158.83 356.396L154.525 357.316V451.494C158.732 451.494 161.699 448.973 167.424 445.671V445.657Z" fill="url(#paint14_linear_413_289)"></path><path d="M141.613 445.657L123.462 435.182C120.802 433.65 119.158 430.808 119.158 427.73V406.78C119.158 403.924 120.663 342.69 122.083 340.155C122.083 340.155 128.797 344.027 132.057 345.921L150.207 356.396L154.512 357.316V451.494C150.305 451.494 147.338 448.973 141.613 445.671V445.657Z" fill="url(#paint15_linear_413_289)"></path><path d="M187 340.169C185.869 338.103 182.656 335.23 179.304 332.835C178.662 332.247 177.894 331.699 177.014 331.193L158.83 320.903C157.74 320.287 156.288 320 154.765 320C154.682 320 154.598 320 154.514 320C154.43 320 154.346 320 154.263 320C152.74 320 151.288 320.274 150.198 320.889L132 331.179C131.106 331.686 130.338 332.233 129.696 332.821C126.344 335.216 123.131 338.089 122 340.156C122 340.156 128.732 343.96 132 345.807L133.844 346.847C133.844 346.847 133.941 346.902 133.983 346.943L149.5 355.727C149.5 355.727 149.556 355.755 149.584 355.768L150.184 356.111C151.26 356.726 152.712 357 154.221 357C154.318 357 154.402 357 154.486 357C154.57 357 154.668 357 154.751 357C156.26 357 157.712 356.713 158.788 356.111L159.388 355.768C159.388 355.768 159.444 355.741 159.472 355.727L174.989 346.943C174.989 346.943 175.087 346.888 175.128 346.847L176.972 345.807C180.24 343.96 186.972 340.156 186.972 340.156L187 340.169Z" fill="url(#paint16_linear_413_289)"></path><path d="M654 562.829V565C655.261 565 656.372 564.422 656.658 564.267L660.607 562.125C662.709 560.983 664 558.883 664 556.599V508H654V562.815V562.829Z" fill="url(#paint17_linear_413_289)"></path><path d="M654 562.829V508H645V557.542C645 559.248 645.865 560.827 647.284 561.673L651.622 564.281C651.892 564.436 652.865 565 654 565V562.843V562.829Z" fill="url(#paint18_linear_413_289)"></path><path d="M641.865 525.181L623.383 514.738C620.674 513.211 619 510.378 619 507.309V486.422C619 483.575 620.532 422.527 621.979 420C621.979 420 628.816 423.861 632.135 425.749L650.617 436.192L655 437.109V531C650.716 531 647.695 528.486 641.865 525.195V525.181Z" fill="url(#paint19_linear_413_289)"></path><path d="M667.77 525.181L685.739 514.738C688.373 513.211 690 510.378 690 507.309V486.422C690 483.575 688.511 422.527 687.104 420C687.104 420 680.457 423.861 677.23 425.749L659.261 436.192L655 437.109V531C659.165 531 662.102 528.486 667.77 525.195V525.181Z" fill="url(#paint20_linear_413_289)"></path><path d="M667.424 525.657L685.574 515.182C688.235 513.65 689.879 510.808 689.879 507.73V486.78C689.879 483.924 688.374 422.69 686.953 420.155C686.953 420.155 680.239 424.027 676.98 425.921L658.83 436.396L654.525 437.316V531.494C658.732 531.494 661.699 528.973 667.424 525.671V525.657Z" fill="url(#paint21_linear_413_289)"></path><path d="M641.613 525.657L623.462 515.182C620.802 513.65 619.158 510.808 619.158 507.73V486.78C619.158 483.924 620.663 422.69 622.083 420.155C622.083 420.155 628.797 424.027 632.057 425.921L650.207 436.396L654.512 437.316V531.494C650.305 531.494 647.338 528.973 641.613 525.671V525.657Z" fill="url(#paint22_linear_413_289)"></path><path d="M687 420.169C685.869 418.103 682.656 415.23 679.304 412.835C678.662 412.247 677.894 411.699 677.014 411.193L658.83 400.903C657.74 400.287 656.288 400 654.765 400C654.682 400 654.598 400 654.514 400C654.43 400 654.346 400 654.263 400C652.74 400 651.288 400.274 650.198 400.889L632 411.179C631.106 411.686 630.338 412.233 629.696 412.821C626.344 415.216 623.131 418.089 622 420.156C622 420.156 628.732 423.96 632 425.807L633.844 426.847C633.844 426.847 633.941 426.902 633.983 426.943L649.5 435.727C649.5 435.727 649.556 435.755 649.584 435.768L650.184 436.111C651.26 436.726 652.712 437 654.221 437C654.318 437 654.402 437 654.486 437C654.57 437 654.668 437 654.751 437C656.26 437 657.712 436.713 658.788 436.111L659.388 435.768C659.388 435.768 659.444 435.741 659.472 435.727L674.989 426.943C674.989 426.943 675.087 426.888 675.128 426.847L676.972 425.807C680.24 423.96 686.972 420.156 686.972 420.156L687 420.169Z" fill="url(#paint23_linear_413_289)"></path><path d="M553.803 592.511C555.115 581.155 547.352 568.842 530.981 559.379L453.82 514.78C426.06 498.726 384.065 496.989 360.02 510.883L293.224 549.515C281.302 556.395 276.053 565.836 277.143 575.544C276.942 577.192 276.965 578.839 277.143 580.509C275.83 591.865 283.593 604.178 299.964 613.641L377.125 658.241C404.885 674.272 446.88 676.031 470.925 662.137L537.743 623.505C549.665 616.625 554.915 607.184 553.825 597.476C554.003 595.829 554.003 594.181 553.825 592.511H553.803Z" fill="#E5E2EC"></path><path d="M553.803 580.617C555.115 569.239 547.352 556.948 530.981 547.485L453.82 502.886C426.06 486.832 384.065 485.095 360.02 498.989L293.224 537.621C281.302 544.501 276.053 553.92 277.143 563.65C276.942 565.298 276.965 566.946 277.143 568.616C275.83 579.971 283.593 592.285 299.964 601.748L377.125 646.347C404.885 662.401 446.88 664.137 470.925 650.243L537.743 611.612C549.665 604.731 554.915 595.29 553.825 585.582C554.003 583.957 554.003 582.287 553.825 580.617H553.803Z" fill="#13FFD5"></path><path d="M397.922 451.384L397.878 414.645L410.112 421.704L409.956 458.487L397.922 451.384Z" fill="#F2F2F2"></path><path d="M410.112 421.704L422.323 414.645V451.362L409.956 458.487L410.112 421.704Z" fill="#E6E6E6"></path><path d="M416.184 409.947L410.067 421.748L422.301 414.69L416.184 409.947Z" fill="#6B32C0"></path><path d="M397.878 414.69L410.112 421.704L416.184 409.947L403.995 403L397.878 414.69Z" fill="#6E6CFF"></path><path d="M490.965 553.542L398.768 606.98V554.544L490.965 501.149V553.542Z" fill="#E6E6E6"></path><path d="M353.48 475.566L307.949 502.062V554.499L398.767 606.981V554.544L353.48 475.566Z" fill="#F2FAFF"></path><path d="M353.48 475.566L300.92 506.07V500.036L353.48 469.442L403.861 551.671L398.767 554.544L353.48 475.566Z" fill="#6B32C0"></path><path d="M445.723 422.082L393.185 452.587V446.553L445.723 415.937L496.104 498.188L491.01 501.038L445.723 422.082Z" fill="#F8622F"></path><path d="M496.103 498.188L403.861 551.671L353.48 469.442L445.723 415.937L496.103 498.188Z" fill="#6E6CFF"></path><path d="M342.871 560.912V527.245C342.871 527.089 342.871 526.978 342.915 526.867L359.598 536.508C360.309 536.909 361.11 538.289 361.11 539.514V571.421L342.871 560.889V560.912Z" fill="#6BA8FF"></path><path d="M362.6 574.027L362.622 586.206L352.19 592.352L352.079 574.027H362.6Z" fill="#999999"></path><path d="M341.558 561.869L336.353 564.875L357.395 577.055L362.6 574.026L341.558 561.869Z" fill="#CCCCCC"></path><path d="M336.353 564.875V570.976L357.395 583.2V577.055L336.353 564.875Z" fill="#B3B3B3"></path><path d="M336.353 571.021L331.149 574.026L352.191 586.206L357.395 583.2L336.353 571.021Z" fill="#CCCCCC"></path><path d="M331.149 574.027V580.128L352.191 592.352V586.206L331.149 574.027Z" fill="#B3B3B3"></path><path d="M317.402 527.223L313.465 529.427V537.087L317.402 534.883V527.223Z" fill="#333333"></path><path d="M335.108 524.685L318.67 515.377V534.17L335.108 543.5V524.685Z" fill="#6BA8FF"></path><path d="M332.416 547.842V540.16L313.465 529.427V537.109L332.416 547.842Z" fill="#4D4D4D"></path><path d="M336.354 537.978L332.417 540.16V547.841L336.354 545.637V537.978Z" fill="#333333"></path><path d="M317.402 527.223V528.292L315.378 529.45L332.216 538.98L335.108 537.332L336.354 537.978L332.416 540.16L313.465 529.427L317.402 527.223Z" fill="#666666"></path><path d="M369.586 554.143L365.627 556.347V564.006L369.586 561.802V554.143Z" fill="#333333"></path><path d="M387.269 551.627L370.831 542.319V561.112L387.269 570.419V551.627Z" fill="#6BA8FF"></path><path d="M384.578 574.761V567.102L365.627 556.369V564.029L384.578 574.761Z" fill="#4D4D4D"></path><path d="M388.515 564.897L384.578 567.102V574.761L388.515 572.557V564.897Z" fill="#333333"></path><path d="M369.586 554.143L369.564 555.234L367.54 556.369L384.378 565.899L387.269 564.251L388.515 564.897L384.578 567.101L365.627 556.369L369.586 554.143Z" fill="#666666"></path><path d="M463.54 544.524L467.477 546.728V554.388L463.54 552.183V544.524Z" fill="#333333"></path><path d="M432.132 549.667L462.272 532.7V551.493L432.132 568.46V549.667Z" fill="#3BA2FC"></path><path d="M434.824 572.802V565.142L467.477 546.728V554.41L434.824 572.802Z" fill="#4D4D4D"></path><path d="M430.887 562.938L434.824 565.142V572.802L430.887 570.62V562.938Z" fill="#333333"></path><path d="M463.54 544.524V545.592L465.564 546.75L435.024 563.962L432.132 562.292L430.887 562.938L434.824 565.142L467.477 546.728L463.54 544.524Z" fill="#666666"></path><g clip-path="url(#clip2_413_289)"><g style="mix-blend-mode:multiply" filter="url(#filter0_f_413_289)"><path opacity="0.4" d="M499.87 599.953L475.844 586.061C473.991 584.99 473.991 582.315 475.844 581.244L499.859 567.352C501.811 566.217 504.231 566.217 506.182 567.352L530.197 581.244C532.051 582.315 532.051 584.99 530.197 586.061L506.182 599.953C504.231 601.089 501.811 601.089 499.859 599.953H499.87Z" fill="url(#paint24_radial_413_289)"></path></g><path d="M503.021 585.744V587.426C503.936 587.426 504.743 586.978 504.95 586.858L507.817 585.198C509.343 584.313 510.281 582.686 510.281 580.917V543.26H503.021V585.733V585.744Z" fill="url(#paint25_linear_413_289)"></path><path d="M503.021 585.744V543.271H495.76V581.648C495.76 582.97 496.458 584.193 497.603 584.848L501.102 586.869C501.32 586.989 502.105 587.426 503.021 587.426V585.755V585.744Z" fill="url(#paint26_linear_413_289)"></path><path d="M513.126 560.537L527.33 552.324C529.412 551.123 530.699 548.895 530.699 546.481V530.056C530.699 527.817 529.521 521.69 528.409 519.702C528.409 519.702 523.155 522.738 520.604 524.224L506.4 532.437L503.031 533.157V565.113C506.324 565.113 508.646 563.137 513.126 560.548V560.537Z" fill="url(#paint27_linear_413_289)"></path><path d="M492.937 560.537L478.733 552.324C476.651 551.123 475.364 548.895 475.364 546.481V530.056C475.364 527.817 476.542 521.69 477.654 519.702C477.654 519.702 482.908 522.738 485.459 524.224L499.663 532.437L503.031 533.157V565.113C499.739 565.113 497.417 563.137 492.937 560.548V560.537Z" fill="url(#paint28_linear_413_289)"></path><path d="M528.399 519.702C527.516 518.053 525.008 515.76 522.392 513.848C521.891 513.379 521.291 512.942 520.604 512.538L506.4 504.325C505.561 503.833 504.416 503.604 503.228 503.604C503.162 503.604 503.097 503.604 503.032 503.604C502.966 503.604 502.901 503.604 502.835 503.604C501.647 503.604 500.513 503.822 499.663 504.314L485.459 512.527C484.761 512.931 484.162 513.368 483.66 513.837C481.044 515.749 478.537 518.042 477.654 519.691C477.654 519.691 482.908 522.727 485.459 524.202L486.898 525.032C486.898 525.032 486.974 525.075 487.007 525.108L499.118 532.12C499.118 532.12 499.162 532.142 499.183 532.153L499.652 532.426C500.492 532.917 501.625 533.135 502.803 533.135C502.879 533.135 502.944 533.135 503.01 533.135C503.075 533.135 503.151 533.135 503.217 533.135C504.394 533.135 505.528 532.906 506.367 532.426L506.836 532.153C506.836 532.153 506.88 532.131 506.901 532.12L519.013 525.108C519.013 525.108 519.089 525.065 519.122 525.032L520.561 524.202C523.112 522.727 528.366 519.691 528.366 519.691L528.399 519.702Z" fill="url(#paint29_linear_413_289)"></path></g><path d="M719.493 390.791V392.825C720.599 392.825 721.574 392.283 721.824 392.138L725.286 390.131C727.129 389.062 728.262 387.094 728.262 384.955V339.427H719.493V390.778V390.791Z" fill="url(#paint30_linear_413_289)"></path><path d="M719.494 390.791V339.44H710.725V385.84C710.725 387.437 711.568 388.916 712.95 389.709L717.176 392.151C717.44 392.297 718.388 392.825 719.494 392.825V390.805V390.791Z" fill="url(#paint31_linear_413_289)"></path><path d="M719.507 361.398C738.339 361.398 753.605 346.087 753.605 327.199C753.605 308.312 738.339 293 719.507 293C700.675 293 685.408 308.312 685.408 327.199C685.408 346.087 700.675 361.398 719.507 361.398Z" fill="url(#paint32_linear_413_289)"></path><path d="M126.495 562.5V564.008C127.313 564.008 128.033 563.607 128.217 563.499L130.777 562.011C132.139 561.218 132.976 559.759 132.976 558.174V524.42H126.495V562.491V562.5Z" fill="url(#paint33_linear_413_289)"></path><path d="M126.495 562.5V524.429H120.014V558.829C120.014 560.014 120.637 561.11 121.659 561.698L124.782 563.509C124.977 563.616 125.678 564.008 126.495 564.008V562.51V562.5Z" fill="url(#paint34_linear_413_289)"></path><path d="M126.505 540.709C140.424 540.709 151.708 529.358 151.708 515.355C151.708 501.352 140.424 490 126.505 490C112.585 490 101.302 501.352 101.302 515.355C101.302 529.358 112.585 540.709 126.505 540.709Z" fill="url(#paint35_linear_413_289)"></path><path d="M369.493 143.791V145.825C370.599 145.825 371.574 145.283 371.824 145.138L375.286 143.131C377.129 142.062 378.262 140.094 378.262 137.955V92.4265H369.493V143.778V143.791Z" fill="url(#paint36_linear_413_289)"></path><path d="M369.493 143.791V92.4397H360.725V138.84C360.725 140.437 361.568 141.916 362.95 142.709L367.176 145.151C367.44 145.297 368.387 145.825 369.493 145.825V143.805V143.791Z" fill="url(#paint37_linear_413_289)"></path><path d="M369.507 114.398C388.339 114.398 403.605 99.0869 403.605 80.1992C403.605 61.3115 388.339 46 369.507 46C350.674 46 335.408 61.3115 335.408 80.1992C335.408 99.0869 350.674 114.398 369.507 114.398Z" fill="url(#paint38_linear_413_289)"></path><defs><filter id="filter0_f_413_289" x="470.454" y="562.5" width="65.1331" height="42.3042" filterUnits="userSpaceOnUse" color-interpolation-filters="sRGB"><feGaussianBlur stdDeviation="2"></feGaussianBlur></filter><linearGradient id="paint0_linear_413_289" x1="398.015" y1="175.556" x2="398.015" y2="687.795" gradientUnits="userSpaceOnUse"><stop stop-color="#13FFD5"></stop><stop offset="0.19" stop-color="#13FFD5"></stop><stop offset="0.36" stop-color="#2CBFC4"></stop><stop offset="0.52" stop-color="#2CADC5"></stop><stop offset="0.67" stop-color="#2C94C7"></stop><stop offset="0.82" stop-color="#2C73C9"></stop><stop offset="0.97" stop-color="#2C4CCC"></stop><stop offset="1" stop-color="#2C43CD"></stop></linearGradient><linearGradient id="paint1_linear_413_289" x1="390" y1="175.556" x2="390" y2="687.795" gradientUnits="userSpaceOnUse"><stop stop-color="#2CCEC3"></stop><stop offset="0.19" stop-color="#13FFD5"></stop><stop offset="0.36" stop-color="#2CBFC4"></stop><stop offset="0.52" stop-color="#2CADC5"></stop><stop offset="0.67" stop-color="#2C94C7"></stop><stop offset="0.82" stop-color="#2C73C9"></stop><stop offset="0.97" stop-color="#2C4CCC"></stop><stop offset="1" stop-color="#2C43CD"></stop></linearGradient><linearGradient id="paint2_linear_413_289" x1="390" y1="175.555" x2="390" y2="687.795" gradientUnits="userSpaceOnUse"><stop stop-color="#13FFD5"></stop><stop offset="0.19" stop-color="#13FFD5"></stop><stop offset="0.36" stop-color="#2CBFC4"></stop><stop offset="0.52" stop-color="#2CADC5"></stop><stop offset="0.67" stop-color="#2C94C7"></stop><stop offset="0.82" stop-color="#2C73C9"></stop><stop offset="0.97" stop-color="#2C4CCC"></stop><stop offset="1" stop-color="#2C43CD"></stop></linearGradient><linearGradient id="paint3_linear_413_289" x1="577" y1="148.514" x2="567" y2="148.514" gradientUnits="userSpaceOnUse"><stop stop-color="#401480"></stop><stop offset="0.34" stop-color="#421584"></stop><stop offset="0.68" stop-color="#481A90"></stop><stop offset="1" stop-color="#5321A3"></stop></linearGradient><linearGradient id="paint4_linear_413_289" x1="567" y1="148.507" x2="557.986" y2="148.507" gradientUnits="userSpaceOnUse"><stop stop-color="#5321A3"></stop><stop offset="0.13" stop-color="#5828A1"></stop><stop offset="0.38" stop-color="#5D30A0"></stop><stop offset="1" stop-color="#5F32A0"></stop></linearGradient><linearGradient id="paint5_linear_413_289" x1="554.132" y1="53.3994" x2="463.345" y2="83.4325" gradientUnits="userSpaceOnUse"><stop stop-color="#6E6CFF"></stop><stop offset="1" stop-color="#4000BB"></stop></linearGradient><linearGradient id="paint6_linear_413_289" x1="571.346" y1="59.2849" x2="660.102" y2="87.8201" gradientUnits="userSpaceOnUse"><stop stop-color="#6E6CFF"></stop><stop offset="1" stop-color="#4000BB"></stop></linearGradient><linearGradient id="paint7_linear_413_289" x1="581.146" y1="51.9372" x2="650.874" y2="100.386" gradientUnits="userSpaceOnUse"><stop stop-color="#6E6CFF"></stop><stop offset="0.35" stop-color="#6C69FC"></stop><stop offset="0.52" stop-color="#6962F5"></stop><stop offset="0.66" stop-color="#6255E9"></stop><stop offset="0.77" stop-color="#5942D8"></stop><stop offset="0.87" stop-color="#4D2AC2"></stop><stop offset="0.96" stop-color="#3F0CA6"></stop><stop offset="1" stop-color="#39009B"></stop></linearGradient><linearGradient id="paint8_linear_413_289" x1="543.67" y1="46.0286" x2="473.924" y2="94.4826" gradientUnits="userSpaceOnUse"><stop stop-color="#6E6CFF"></stop><stop offset="0.35" stop-color="#6C69FC"></stop><stop offset="0.52" stop-color="#6962F5"></stop><stop offset="0.66" stop-color="#6255E9"></stop><stop offset="0.77" stop-color="#5942D8"></stop><stop offset="0.87" stop-color="#4D2AC2"></stop><stop offset="0.96" stop-color="#3F0CA6"></stop><stop offset="1" stop-color="#39009B"></stop></linearGradient><linearGradient id="paint9_linear_413_289" x1="567.542" y1="12.0547" x2="567.488" y2="46.7833" gradientUnits="userSpaceOnUse"><stop stop-color="#483CD2"></stop><stop offset="1" stop-color="#6E76FF"></stop></linearGradient><linearGradient id="paint10_linear_413_289" x1="164" y1="456.514" x2="154" y2="456.514" gradientUnits="userSpaceOnUse"><stop stop-color="#401480"></stop><stop offset="0.34" stop-color="#421584"></stop><stop offset="0.68" stop-color="#481A90"></stop><stop offset="1" stop-color="#5321A3"></stop></linearGradient><linearGradient id="paint11_linear_413_289" x1="154" y1="456.507" x2="144.986" y2="456.507" gradientUnits="userSpaceOnUse"><stop stop-color="#5321A3"></stop><stop offset="0.13" stop-color="#5828A1"></stop><stop offset="0.38" stop-color="#5D30A0"></stop><stop offset="1" stop-color="#5F32A0"></stop></linearGradient><linearGradient id="paint12_linear_413_289" x1="141.132" y1="361.399" x2="50.3452" y2="391.433" gradientUnits="userSpaceOnUse"><stop stop-color="#6E6CFF"></stop><stop offset="1" stop-color="#4000BB"></stop></linearGradient><linearGradient id="paint13_linear_413_289" x1="158.346" y1="367.285" x2="247.102" y2="395.82" gradientUnits="userSpaceOnUse"><stop stop-color="#6E6CFF"></stop><stop offset="1" stop-color="#4000BB"></stop></linearGradient><linearGradient id="paint14_linear_413_289" x1="168.146" y1="359.937" x2="237.874" y2="408.386" gradientUnits="userSpaceOnUse"><stop stop-color="#6E6CFF"></stop><stop offset="0.35" stop-color="#6C69FC"></stop><stop offset="0.52" stop-color="#6962F5"></stop><stop offset="0.66" stop-color="#6255E9"></stop><stop offset="0.77" stop-color="#5942D8"></stop><stop offset="0.87" stop-color="#4D2AC2"></stop><stop offset="0.96" stop-color="#3F0CA6"></stop><stop offset="1" stop-color="#39009B"></stop></linearGradient><linearGradient id="paint15_linear_413_289" x1="130.67" y1="354.029" x2="60.924" y2="402.483" gradientUnits="userSpaceOnUse"><stop stop-color="#6E6CFF"></stop><stop offset="0.35" stop-color="#6C69FC"></stop><stop offset="0.52" stop-color="#6962F5"></stop><stop offset="0.66" stop-color="#6255E9"></stop><stop offset="0.77" stop-color="#5942D8"></stop><stop offset="0.87" stop-color="#4D2AC2"></stop><stop offset="0.96" stop-color="#3F0CA6"></stop><stop offset="1" stop-color="#39009B"></stop></linearGradient><linearGradient id="paint16_linear_413_289" x1="154.542" y1="320.055" x2="154.488" y2="354.783" gradientUnits="userSpaceOnUse"><stop stop-color="#483CD2"></stop><stop offset="1" stop-color="#6E76FF"></stop></linearGradient><linearGradient id="paint17_linear_413_289" x1="664" y1="536.514" x2="654" y2="536.514" gradientUnits="userSpaceOnUse"><stop stop-color="#401480"></stop><stop offset="0.34" stop-color="#421584"></stop><stop offset="0.68" stop-color="#481A90"></stop><stop offset="1" stop-color="#5321A3"></stop></linearGradient><linearGradient id="paint18_linear_413_289" x1="654" y1="536.507" x2="644.986" y2="536.507" gradientUnits="userSpaceOnUse"><stop stop-color="#5321A3"></stop><stop offset="0.13" stop-color="#5828A1"></stop><stop offset="0.38" stop-color="#5D30A0"></stop><stop offset="1" stop-color="#5F32A0"></stop></linearGradient><linearGradient id="paint19_linear_413_289" x1="641.132" y1="441.399" x2="550.345" y2="471.433" gradientUnits="userSpaceOnUse"><stop stop-color="#6E6CFF"></stop><stop offset="1" stop-color="#4000BB"></stop></linearGradient><linearGradient id="paint20_linear_413_289" x1="658.346" y1="447.285" x2="747.102" y2="475.82" gradientUnits="userSpaceOnUse"><stop stop-color="#6E6CFF"></stop><stop offset="1" stop-color="#4000BB"></stop></linearGradient><linearGradient id="paint21_linear_413_289" x1="668.146" y1="439.937" x2="737.874" y2="488.386" gradientUnits="userSpaceOnUse"><stop stop-color="#6E6CFF"></stop><stop offset="0.35" stop-color="#6C69FC"></stop><stop offset="0.52" stop-color="#6962F5"></stop><stop offset="0.66" stop-color="#6255E9"></stop><stop offset="0.77" stop-color="#5942D8"></stop><stop offset="0.87" stop-color="#4D2AC2"></stop><stop offset="0.96" stop-color="#3F0CA6"></stop><stop offset="1" stop-color="#39009B"></stop></linearGradient><linearGradient id="paint22_linear_413_289" x1="630.67" y1="434.029" x2="560.924" y2="482.483" gradientUnits="userSpaceOnUse"><stop stop-color="#6E6CFF"></stop><stop offset="0.35" stop-color="#6C69FC"></stop><stop offset="0.52" stop-color="#6962F5"></stop><stop offset="0.66" stop-color="#6255E9"></stop><stop offset="0.77" stop-color="#5942D8"></stop><stop offset="0.87" stop-color="#4D2AC2"></stop><stop offset="0.96" stop-color="#3F0CA6"></stop><stop offset="1" stop-color="#39009B"></stop></linearGradient><linearGradient id="paint23_linear_413_289" x1="654.542" y1="400.055" x2="654.488" y2="434.783" gradientUnits="userSpaceOnUse"><stop stop-color="#483CD2"></stop><stop offset="1" stop-color="#6E76FF"></stop></linearGradient><radialGradient id="paint24_radial_413_289" cx="0" cy="0" r="1" gradientUnits="userSpaceOnUse" gradientTransform="translate(542.485 606.475) rotate(30.046) scale(16.9374 16.9531)"><stop stop-color="#6C1ADB"></stop><stop offset="0.08" stop-color="#5E32DA"></stop><stop offset="0.18" stop-color="#5248D9"></stop><stop offset="0.27" stop-color="#4B55D9"></stop><stop offset="0.35" stop-color="#495AD9"></stop><stop offset="0.46" stop-color="#4B5FDB"></stop><stop offset="0.6" stop-color="#5270E4"></stop><stop offset="0.76" stop-color="#5E8CF1"></stop><stop offset="0.89" stop-color="#6BA8FF"></stop></radialGradient><linearGradient id="paint25_linear_413_289" x1="510.281" y1="565.343" x2="503.021" y2="565.343" gradientUnits="userSpaceOnUse"><stop stop-color="#401480"></stop><stop offset="0.34" stop-color="#421584"></stop><stop offset="0.68" stop-color="#481A90"></stop><stop offset="1" stop-color="#5321A3"></stop></linearGradient><linearGradient id="paint26_linear_413_289" x1="503.021" y1="565.343" x2="495.76" y2="565.343" gradientUnits="userSpaceOnUse"><stop stop-color="#5321A3"></stop><stop offset="0.13" stop-color="#5828A1"></stop><stop offset="0.38" stop-color="#5D30A0"></stop><stop offset="1" stop-color="#5F32A0"></stop></linearGradient><linearGradient id="paint27_linear_413_289" x1="517.53" y1="521.572" x2="551.849" y2="541.346" gradientUnits="userSpaceOnUse"><stop stop-color="#6E6CFF"></stop><stop offset="1" stop-color="#4800D2"></stop></linearGradient><linearGradient id="paint28_linear_413_289" x1="479.318" y1="516.241" x2="444.999" y2="536.016" gradientUnits="userSpaceOnUse"><stop stop-color="#6E6CFF"></stop><stop offset="1" stop-color="#4800D2"></stop></linearGradient><linearGradient id="paint29_linear_413_289" x1="503.064" y1="503.648" x2="503.01" y2="531.366" gradientUnits="userSpaceOnUse"><stop stop-color="#483CD2"></stop><stop offset="1" stop-color="#6E76FF"></stop></linearGradient><linearGradient id="paint30_linear_413_289" x1="728.275" y1="366.139" x2="719.493" y2="366.139" gradientUnits="userSpaceOnUse"><stop stop-color="#401480"></stop><stop offset="0.34" stop-color="#421584"></stop><stop offset="0.68" stop-color="#481A90"></stop><stop offset="1" stop-color="#5321A3"></stop></linearGradient><linearGradient id="paint31_linear_413_289" x1="719.494" y1="366.139" x2="710.725" y2="366.139" gradientUnits="userSpaceOnUse"><stop stop-color="#5321A3"></stop><stop offset="0.13" stop-color="#5828A1"></stop><stop offset="0.38" stop-color="#5D30A0"></stop><stop offset="1" stop-color="#5F32A0"></stop></linearGradient><linearGradient id="paint32_linear_413_289" x1="719.507" y1="367.037" x2="719.507" y2="270.262" gradientUnits="userSpaceOnUse"><stop stop-color="#9928DB"></stop><stop offset="0.06" stop-color="#812DCD"></stop><stop offset="0.13" stop-color="#6B32C0"></stop><stop offset="0.19" stop-color="#5E35B8"></stop><stop offset="0.26" stop-color="#5A37B6"></stop><stop offset="0.33" stop-color="#5A3CBA"></stop><stop offset="0.44" stop-color="#5C4DC6"></stop><stop offset="0.55" stop-color="#6069DB"></stop><stop offset="0.63" stop-color="#6381ED"></stop><stop offset="1" stop-color="#6BA8FF"></stop></linearGradient><linearGradient id="paint33_linear_413_289" x1="132.986" y1="544.224" x2="126.495" y2="544.224" gradientUnits="userSpaceOnUse"><stop stop-color="#401480"></stop><stop offset="0.34" stop-color="#421584"></stop><stop offset="0.68" stop-color="#481A90"></stop><stop offset="1" stop-color="#5321A3"></stop></linearGradient><linearGradient id="paint34_linear_413_289" x1="126.495" y1="544.224" x2="120.014" y2="544.224" gradientUnits="userSpaceOnUse"><stop stop-color="#5321A3"></stop><stop offset="0.13" stop-color="#5828A1"></stop><stop offset="0.38" stop-color="#5D30A0"></stop><stop offset="1" stop-color="#5F32A0"></stop></linearGradient><linearGradient id="paint35_linear_413_289" x1="126.505" y1="544.889" x2="126.505" y2="473.143" gradientUnits="userSpaceOnUse"><stop stop-color="#9928DB"></stop><stop offset="0.06" stop-color="#812DCD"></stop><stop offset="0.13" stop-color="#6B32C0"></stop><stop offset="0.19" stop-color="#5E35B8"></stop><stop offset="0.26" stop-color="#5A37B6"></stop><stop offset="0.33" stop-color="#5A3CBA"></stop><stop offset="0.44" stop-color="#5C4DC6"></stop><stop offset="0.55" stop-color="#6069DB"></stop><stop offset="0.63" stop-color="#6381ED"></stop><stop offset="1" stop-color="#6BA8FF"></stop></linearGradient><linearGradient id="paint36_linear_413_289" x1="378.275" y1="119.139" x2="369.493" y2="119.139" gradientUnits="userSpaceOnUse"><stop stop-color="#401480"></stop><stop offset="0.34" stop-color="#421584"></stop><stop offset="0.68" stop-color="#481A90"></stop><stop offset="1" stop-color="#5321A3"></stop></linearGradient><linearGradient id="paint37_linear_413_289" x1="369.493" y1="119.139" x2="360.725" y2="119.139" gradientUnits="userSpaceOnUse"><stop stop-color="#5321A3"></stop><stop offset="0.13" stop-color="#5828A1"></stop><stop offset="0.38" stop-color="#5D30A0"></stop><stop offset="1" stop-color="#5F32A0"></stop></linearGradient><linearGradient id="paint38_linear_413_289" x1="369.507" y1="120.037" x2="369.507" y2="23.2621" gradientUnits="userSpaceOnUse"><stop stop-color="#9928DB"></stop><stop offset="0.06" stop-color="#812DCD"></stop><stop offset="0.13" stop-color="#6B32C0"></stop><stop offset="0.19" stop-color="#5E35B8"></stop><stop offset="0.26" stop-color="#5A37B6"></stop><stop offset="0.33" stop-color="#5A3CBA"></stop><stop offset="0.44" stop-color="#5C4DC6"></stop><stop offset="0.55" stop-color="#6069DB"></stop><stop offset="0.63" stop-color="#6381ED"></stop><stop offset="1" stop-color="#6BA8FF"></stop></linearGradient><clipPath id="clip0_413_289"><rect width="780" height="509" fill="white" transform="translate(0 124)"></rect></clipPath><clipPath id="clip1_413_289"><rect width="231" height="308" fill="white" transform="translate(43)"></rect></clipPath><clipPath id="clip2_413_289"><rect width="57.1331" height="97.2005" fill="white" transform="translate(474.459 503.604)"></rect></clipPath></defs></svg>