<svg width="690" height="695" viewBox="0 0 690 695" fill="none" xmlns="http://www.w3.org/2000/svg">
<mask id="mask0_2955_7776" style="mask-type:luminance" maskUnits="userSpaceOnUse" x="0" y="339" width="71" height="123">
<path d="M70.737 339.66H0V461.325H70.737V339.66Z" fill="white"/>
</mask>
<g mask="url(#mask0_2955_7776)">
<path d="M31.467 460.252L1.71757 442.638C-0.577732 441.277 -0.577732 437.891 1.71757 436.531L31.4471 418.916C33.8617 417.476 36.8625 417.476 39.277 418.916L69.0166 436.531C71.3119 437.891 71.3119 441.277 69.0166 442.638L39.277 460.252C36.8625 461.692 33.8617 461.692 31.4471 460.252H31.4571H31.467Z" fill="#13FFD5"/>
<path d="M35.3615 442.22V444.355C36.4943 444.355 37.4979 443.789 37.7463 443.63L41.2935 441.525C43.1814 440.403 44.344 438.338 44.344 436.094V388.344H35.3516V442.2L35.3615 442.22Z" fill="url(#paint0_linear_2955_7776)"/>
<path d="M35.3636 442.22V388.364H26.3711V437.027C26.3711 438.705 27.2356 440.254 28.6565 441.089L32.9888 443.65C33.257 443.799 34.2308 444.355 35.3636 444.355V442.24V442.22Z" fill="url(#paint1_linear_2955_7776)"/>
<path d="M35.382 411.39C54.6884 411.39 70.3381 395.334 70.3381 375.525C70.3381 355.716 54.6884 339.66 35.382 339.66C16.0756 339.66 0.425781 355.716 0.425781 375.525C0.425781 395.334 16.0756 411.39 35.382 411.39Z" fill="url(#paint2_linear_2955_7776)"/>
</g>
<mask id="mask1_2955_7776" style="mask-type:luminance" maskUnits="userSpaceOnUse" x="139" y="611" width="50" height="84">
<path d="M188.024 611.097H139.812V695H188.024V611.097Z" fill="white"/>
</mask>
<g mask="url(#mask1_2955_7776)">
<path d="M161.257 694.265L140.986 682.27C139.426 681.347 139.426 679.034 140.986 678.11L161.247 666.115C162.896 665.132 164.933 665.132 166.583 666.115L186.843 678.11C188.403 679.034 188.403 681.347 186.843 682.27L166.583 694.265C164.933 695.248 162.896 695.248 161.247 694.265H161.257Z" fill="#13FFD5"/>
<path d="M163.91 682.002V683.452C164.685 683.452 165.361 683.065 165.54 682.965L167.964 681.535C169.256 680.771 170.041 679.371 170.041 677.842V645.333H163.92V681.992L163.91 682.002Z" fill="url(#paint3_linear_2955_7776)"/>
<path d="M163.908 682.002V645.343H157.777V678.467C157.777 679.609 158.364 680.662 159.327 681.228L162.278 682.975C162.457 683.075 163.123 683.452 163.898 683.452V682.012L163.908 682.002Z" fill="url(#paint4_linear_2955_7776)"/>
<path d="M172.433 660.247L184.417 653.158C186.175 652.125 187.259 650.199 187.259 648.113V633.934C187.259 631.998 186.265 626.716 185.331 624.998C185.331 624.998 180.899 627.619 178.743 628.9L166.76 635.99L163.918 636.615V664.199C166.69 664.199 168.658 662.491 172.433 660.257V660.247Z" fill="url(#paint5_linear_2955_7776)"/>
<path d="M155.403 660.247L143.42 653.158C141.661 652.125 140.578 650.199 140.578 648.113V633.934C140.578 631.998 141.572 626.716 142.506 624.998C142.506 624.998 146.937 627.619 149.094 628.9L161.077 635.99L163.919 636.615V664.199C161.136 664.199 159.179 662.491 155.403 660.257V660.247Z" fill="url(#paint6_linear_2955_7776)"/>
<path d="M185.322 624.998C184.576 623.578 182.46 621.592 180.254 619.944C179.837 619.537 179.33 619.159 178.744 618.812L166.76 611.722C166.055 611.295 165.081 611.097 164.088 611.097H163.76C162.756 611.097 161.802 611.285 161.087 611.712L149.103 618.802C148.517 619.149 148.01 619.527 147.583 619.934C145.377 621.582 143.261 623.568 142.516 624.988C142.516 624.988 146.947 627.609 149.103 628.88L150.316 629.595C150.316 629.595 150.385 629.635 150.405 629.665L160.62 635.712C160.62 635.712 160.659 635.731 160.679 635.741L161.077 635.98C161.782 636.407 162.746 636.595 163.74 636.595H164.088C165.081 636.595 166.035 636.397 166.75 635.98L167.148 635.741C167.148 635.741 167.188 635.722 167.208 635.712L177.422 629.665C177.422 629.665 177.492 629.625 177.512 629.595L178.724 628.88C180.88 627.609 185.312 624.988 185.312 624.988H185.341L185.322 624.998Z" fill="url(#paint7_linear_2955_7776)"/>
</g>
<mask id="mask2_2955_7776" style="mask-type:luminance" maskUnits="userSpaceOnUse" x="91" y="30" width="60" height="104">
<path d="M150.871 30.9668H91.8789V133.637H150.871V30.9668Z" fill="white"/>
</mask>
<g mask="url(#mask2_2955_7776)">
<path d="M118.12 132.743L93.3094 118.067C91.3917 116.936 91.3917 114.106 93.3094 112.984L118.12 98.3081C120.138 97.1066 122.632 97.1066 124.639 98.3081L149.43 112.984C151.348 114.116 151.348 116.945 149.43 118.067L124.639 132.743C122.622 133.945 120.128 133.945 118.12 132.743Z" fill="#13FFD5"/>
<path d="M121.379 117.73V119.507C122.323 119.507 123.158 119.03 123.376 118.911L126.337 117.154C127.927 116.22 128.891 114.503 128.891 112.626V72.8489H121.379V117.71V117.73Z" fill="url(#paint8_linear_2955_7776)"/>
<path d="M121.379 117.73V72.8689H113.887V113.41C113.887 114.811 114.602 116.101 115.785 116.787L119.401 118.921C119.63 119.05 120.445 119.507 121.379 119.507V117.74V117.73Z" fill="url(#paint9_linear_2955_7776)"/>
<path d="M131.824 91.109L146.47 82.4308C148.636 81.1598 149.958 78.8065 149.958 76.2547V58.9081C149.958 56.5449 148.736 50.0709 147.593 47.9758C147.593 47.9758 142.178 51.183 139.544 52.7519L124.878 61.4301L121.391 62.1947V95.9546C124.799 95.9546 127.193 93.8694 131.824 91.1289V91.109Z" fill="url(#paint10_linear_2955_7776)"/>
<path d="M110.966 91.109L96.2998 82.4308C94.1536 81.1598 92.832 78.8065 92.832 76.2547V58.9081C92.832 56.5449 94.0542 50.0709 95.1969 47.9758C95.1969 47.9758 100.612 51.183 103.245 52.7519L117.911 61.4301L121.399 62.1947V95.9546C117.991 95.9546 115.596 93.8694 110.966 91.1289V91.109Z" fill="url(#paint11_linear_2955_7776)"/>
<path d="M147.582 47.976C146.667 46.2384 144.094 43.8155 141.391 41.79C140.865 41.2935 140.249 40.8368 139.553 40.3999L124.887 31.7216C124.013 31.2053 122.84 30.957 121.598 30.957H121.191C119.968 30.957 118.806 31.1854 117.922 31.7017L103.255 40.38C102.54 40.807 101.924 41.2637 101.397 41.7602C98.7046 43.7759 96.1112 46.1986 95.207 47.9462C95.207 47.9462 100.622 51.1534 103.255 52.7123L104.746 53.5861C104.746 53.5861 104.825 53.6357 104.865 53.6655L117.365 61.0728C117.365 61.0728 117.405 61.0927 117.445 61.1026L117.932 61.3906C118.786 61.9069 119.968 62.1452 121.181 62.1452H121.608C122.83 62.1452 123.993 61.9069 124.857 61.3906L125.344 61.1026C125.344 61.1026 125.384 61.0828 125.404 61.0728L137.923 53.6655C137.923 53.6655 138.003 53.6158 138.023 53.5861L139.513 52.7123C142.146 51.1534 147.582 47.9462 147.582 47.9462H147.602L147.582 47.976Z" fill="url(#paint12_linear_2955_7776)"/>
</g>
<mask id="mask3_2955_7776" style="mask-type:luminance" maskUnits="userSpaceOnUse" x="291" y="331" width="80" height="139">
<path d="M370.548 331.677H291.613V469.069H370.548V331.677Z" fill="white"/>
</mask>
<g mask="url(#mask3_2955_7776)">
<path d="M326.718 467.868L293.52 448.227C290.957 446.718 290.957 442.935 293.52 441.416L326.698 421.776C329.401 420.167 332.739 420.167 335.432 421.776L368.629 441.416C371.193 442.925 371.193 446.708 368.629 448.227L335.432 467.868C332.739 469.476 329.411 469.476 326.698 467.868H326.718Z" fill="#13FFD5"/>
<path d="M331.07 447.791V450.164C332.332 450.164 333.455 449.528 333.743 449.359L337.698 447.016C339.814 445.765 341.116 443.461 341.116 440.969V387.738H331.07V447.791Z" fill="url(#paint13_linear_2955_7776)"/>
<path d="M331.069 447.791V387.758H321.043V442.002C321.043 443.869 322.007 445.596 323.587 446.53L328.426 449.389C328.724 449.558 329.797 450.174 331.069 450.174V447.791Z" fill="url(#paint14_linear_2955_7776)"/>
<path d="M345.033 412.154L364.657 400.547C367.539 398.849 369.307 395.701 369.307 392.286V369.071C369.307 365.903 367.698 357.245 366.148 354.435C366.148 354.435 358.884 358.724 355.376 360.829L335.732 372.437L331.082 373.459V418.628C335.633 418.628 338.842 415.838 345.033 412.174V412.154Z" fill="url(#paint15_linear_2955_7776)"/>
<path d="M317.138 412.154L297.513 400.547C294.632 398.849 292.863 395.701 292.863 392.286V369.071C292.863 365.903 294.493 357.245 296.023 354.435C296.023 354.435 303.286 358.724 306.804 360.829L326.428 372.437L331.079 373.459V418.628C326.538 418.628 323.328 415.838 317.128 412.174V412.154H317.138Z" fill="url(#paint16_linear_2955_7776)"/>
<path d="M366.147 354.435C364.915 352.101 361.447 348.864 357.84 346.164C357.144 345.498 356.319 344.883 355.376 344.307L335.731 332.699C334.579 332.004 332.999 331.677 331.349 331.677H330.813C329.163 331.677 327.603 331.984 326.431 332.679L306.807 344.287C305.843 344.863 305.018 345.478 304.322 346.144C300.706 348.844 297.238 352.091 296.016 354.415C296.016 354.415 303.279 358.704 306.797 360.789L308.794 361.961C308.794 361.961 308.893 362.021 308.933 362.07L325.666 371.98C325.666 371.98 325.725 372.01 325.765 372.03L326.411 372.417C327.564 373.112 329.134 373.42 330.763 373.42H331.33C332.959 373.42 334.519 373.092 335.692 372.417L336.338 372.03C336.338 372.03 336.387 372 336.417 371.98L353.15 362.07C353.15 362.07 353.259 362.011 353.309 361.961L355.306 360.789C358.833 358.704 366.087 354.415 366.087 354.415L366.137 354.435H366.147Z" fill="url(#paint17_linear_2955_7776)"/>
</g>
<path opacity="0.4" d="M461.755 285.09L421.752 261.468C418.671 259.651 418.671 255.093 421.752 253.276L461.736 229.654C464.995 227.718 469.029 227.718 472.268 229.654L512.272 253.276C515.352 255.093 515.352 259.651 512.272 261.468L472.268 285.09C469.029 287.026 464.995 287.026 461.736 285.09H461.755Z" fill="url(#paint18_radial_2955_7776)"/>
<path d="M466.355 261.359V264.248C468.005 264.248 469.456 263.473 469.813 263.275L474.96 260.415C477.713 258.896 479.382 256.096 479.382 253.048V188.249H466.355V261.349V261.359Z" fill="url(#paint19_linear_2955_7776)"/>
<path d="M466.358 261.359V188.259H454.633V254.309C454.633 256.583 455.756 258.688 457.604 259.82L463.258 263.295C463.595 263.504 464.887 264.248 466.358 264.248V261.349V261.359Z" fill="url(#paint20_linear_2955_7776)"/>
<path d="M450.538 211.166L426.452 197.245C422.934 195.209 420.738 191.426 420.738 187.335V159.493C420.738 155.7 422.726 74.3091 424.613 70.9331C424.613 70.9331 433.517 76.0765 437.859 78.5986L461.945 92.5196L467.658 93.7409V218.921C462.074 218.921 458.129 215.564 450.528 211.176V211.156L450.538 211.166Z" fill="url(#paint21_linear_2955_7776)"/>
<path d="M484.311 211.166L507.731 197.245C511.149 195.209 513.276 191.426 513.276 187.335V159.493C513.276 155.7 511.328 74.3091 509.5 70.9331C509.5 70.9331 500.835 76.0765 496.632 78.5986L473.212 92.5196L467.668 93.7409V218.921C473.093 218.921 476.919 215.564 484.311 211.176V211.156V211.166Z" fill="url(#paint22_linear_2955_7776)"/>
<path d="M483.845 211.801L507.504 197.841C510.962 195.795 513.108 192.012 513.108 187.901V159.97C513.108 156.167 511.141 74.5178 509.292 71.1418C509.292 71.1418 500.548 76.3051 496.306 78.8272L472.647 92.7978L467.043 94.0191V219.586C472.528 219.586 476.393 216.22 483.845 211.821V211.801Z" fill="url(#paint23_linear_2955_7776)"/>
<path d="M450.208 211.801L426.549 197.841C423.092 195.795 420.945 192.012 420.945 187.901V159.97C420.945 156.167 422.913 74.5178 424.761 71.1418C424.761 71.1418 433.505 76.3051 437.768 78.8272L461.406 92.7978L467.01 94.0191V219.586C461.545 219.586 457.66 216.22 450.208 211.821V211.801Z" fill="url(#paint24_linear_2955_7776)"/>
<path d="M509.36 71.1615C507.889 68.411 503.706 64.5783 499.344 61.381C498.499 60.5966 497.496 59.8718 496.353 59.1966L472.655 45.4742C471.244 44.65 469.336 44.2727 467.368 44.2727H466.703C464.715 44.2727 462.828 44.6401 461.417 45.4543L437.698 59.1767C436.536 59.8519 435.532 60.5767 434.708 61.3612C430.326 64.5584 426.142 68.3812 424.672 71.1416C424.672 71.1416 433.436 76.2155 437.698 78.678L440.093 80.0681C440.093 80.0681 440.232 80.1376 440.272 80.1972L460.492 91.9139C460.492 91.9139 460.572 91.9536 460.612 91.9635L461.397 92.4202C462.788 93.2444 464.696 93.6018 466.643 93.6018H467.349C469.316 93.6018 471.204 93.2146 472.595 92.4202L473.38 91.9635L473.499 91.9139L493.72 80.1972C493.72 80.1972 493.839 80.1277 493.899 80.0681L496.293 78.678C500.556 76.2155 509.34 71.1416 509.34 71.1416L509.36 71.1615Z" fill="url(#paint25_linear_2955_7776)"/>
<path d="M461.755 285.09L421.752 261.468C418.671 259.651 418.671 255.093 421.752 253.276L461.736 229.654C464.995 227.718 469.029 227.718 472.268 229.654L512.272 253.276C515.352 255.093 515.352 259.651 512.272 261.468L472.268 285.09C469.029 287.026 464.995 287.026 461.736 285.09H461.755Z" fill="#13FFD5"/>
<path d="M466.355 261.359V264.248C468.005 264.248 469.456 263.473 469.813 263.275L474.96 260.415C477.713 258.896 479.382 256.096 479.382 253.048V188.249H466.355V261.349V261.359Z" fill="url(#paint26_linear_2955_7776)"/>
<path d="M466.358 261.359V188.259H454.633V254.309C454.633 256.583 455.756 258.688 457.604 259.82L463.258 263.295C463.595 263.504 464.887 264.248 466.358 264.248V261.349V261.359Z" fill="url(#paint27_linear_2955_7776)"/>
<path d="M450.538 211.166L426.452 197.245C422.934 195.209 420.738 191.426 420.738 187.335V159.493C420.738 155.7 422.726 74.3091 424.613 70.9331C424.613 70.9331 433.517 76.0765 437.859 78.5986L461.945 92.5196L467.658 93.7409V218.921C462.074 218.921 458.129 215.564 450.528 211.176V211.156L450.538 211.166Z" fill="url(#paint28_linear_2955_7776)"/>
<path d="M484.311 211.166L507.731 197.245C511.149 195.209 513.276 191.426 513.276 187.335V159.493C513.276 155.7 511.328 74.3091 509.5 70.9331C509.5 70.9331 500.835 76.0765 496.632 78.5986L473.212 92.5196L467.668 93.7409V218.921C473.093 218.921 476.919 215.564 484.311 211.176V211.156V211.166Z" fill="url(#paint29_linear_2955_7776)"/>
<path d="M483.845 211.801L507.504 197.841C510.962 195.795 513.108 192.012 513.108 187.901V159.97C513.108 156.167 511.141 74.5178 509.292 71.1418C509.292 71.1418 500.548 76.3051 496.306 78.8272L472.647 92.7978L467.043 94.0191V219.586C472.528 219.586 476.393 216.22 483.845 211.821V211.801Z" fill="url(#paint30_linear_2955_7776)"/>
<path d="M450.208 211.801L426.549 197.841C423.092 195.795 420.945 192.012 420.945 187.901V159.97C420.945 156.167 422.913 74.5178 424.761 71.1418C424.761 71.1418 433.505 76.3051 437.768 78.8272L461.406 92.7978L467.01 94.0191V219.586C461.545 219.586 457.66 216.22 450.208 211.821V211.801Z" fill="url(#paint31_linear_2955_7776)"/>
<path d="M509.36 72.492C507.889 69.7416 503.706 65.9089 499.344 62.7116C498.499 61.9272 497.496 61.2023 496.353 60.5271L472.655 46.8047C471.244 45.9806 469.336 45.6033 467.368 45.6033H466.703C464.715 45.6033 462.828 45.9707 461.417 46.7849L437.698 60.5073C436.536 61.1825 435.532 61.9073 434.708 62.6917C430.326 65.889 426.142 69.7118 424.672 72.4722C424.672 72.4722 433.436 77.5461 437.698 80.0086L440.093 81.3987C440.093 81.3987 440.232 81.4682 440.272 81.5278L460.492 93.2444C460.492 93.2444 460.572 93.2841 460.612 93.2941L461.397 93.7508C462.788 94.575 464.696 94.9324 466.643 94.9324H467.349C469.316 94.9324 471.204 94.5452 472.595 93.7508L473.38 93.2941L473.499 93.2444L493.72 81.5278C493.72 81.5278 493.839 81.4582 493.899 81.3987L496.293 80.0086C500.556 77.5461 509.34 72.4722 509.34 72.4722L509.36 72.492Z" fill="url(#paint32_linear_2955_7776)"/>
<g filter="url(#filter0_d_2955_7776)">
<rect x="490.016" y="15" width="16.6149" height="16.6026" fill="#36B5A6"/>
</g>
<g filter="url(#filter1_d_2955_7776)">
<rect x="494.008" y="611.097" width="16.6149" height="16.6026" fill="#36B5A6"/>
</g>
<g filter="url(#filter2_d_2955_7776)">
<rect x="113.184" y="289.098" width="16.6149" height="16.6026" fill="#36B5A6"/>
</g>
<g filter="url(#filter3_d_2955_7776)">
<rect x="363.516" y="529.932" width="16.6149" height="16.6026" fill="#D1D7DE"/>
</g>
<g filter="url(#filter4_d_2955_7776)">
<rect width="13.7779" height="13.7779" transform="matrix(0.707369 0.706844 -0.707369 0.706844 101.625 541.907)" fill="#4A9598"/>
</g>
<g filter="url(#filter5_d_2955_7776)">
<rect width="13.7779" height="13.7779" transform="matrix(0.707369 0.706844 -0.707369 0.706844 616.938 344.982)" fill="#4A9598"/>
</g>
<g filter="url(#filter6_d_2955_7776)">
<rect width="25.5024" height="25.5024" transform="matrix(0.707369 0.706844 -0.707369 0.706844 561.316 52.2561)" fill="#94D6DB"/>
</g>
<g filter="url(#filter7_d_2955_7776)">
<rect width="25.5024" height="25.5024" transform="matrix(0.707369 0.706844 -0.707369 0.706844 85.9492 313.048)" fill="#94D6DB"/>
</g>
<path d="M434.964 111.816C356.03 64.8668 227.241 42.6265 105.87 82.3767" stroke="url(#paint33_linear_2955_7776)" stroke-width="5" stroke-linecap="round"/>
<path d="M327.564 347.643C327.564 235.875 410.121 156.041 451.4 149.389" stroke="url(#paint34_linear_2955_7776)" stroke-width="5" stroke-linecap="round"/>
<ellipse cx="432.758" cy="112.132" rx="31.9575" ry="31.9338" fill="url(#paint35_radial_2955_7776)" fill-opacity="0.8"/>
<ellipse cx="327.563" cy="348.974" rx="31.9575" ry="31.9338" fill="url(#paint36_radial_2955_7776)" fill-opacity="0.8"/>
<mask id="mask4_2955_7776" style="mask-type:luminance" maskUnits="userSpaceOnUse" x="229" y="149" width="42" height="70">
<path d="M270.035 149.388H229.027V218.606H270.035V149.388Z" fill="white"/>
</mask>
<g mask="url(#mask4_2955_7776)">
<path d="M247.28 218L230.03 207.981C228.698 207.207 228.698 205.28 230.03 204.506L247.27 194.487C248.681 193.663 250.419 193.663 251.81 194.487L269.05 204.506C270.381 205.28 270.381 207.207 269.05 207.981L251.81 218C250.419 218.824 248.681 218.824 247.27 218H247.289H247.28Z" fill="#13FFD5"/>
<path d="M249.545 207.743V208.954C250.191 208.954 250.777 208.627 250.916 208.547L252.973 207.346C254.076 206.71 254.742 205.529 254.742 204.258V177.091H249.535V207.733L249.545 207.743Z" fill="url(#paint37_linear_2955_7776)"/>
<path d="M249.545 207.743V177.101H244.328V204.784C244.328 205.737 244.835 206.621 245.66 207.097L248.173 208.557C248.332 208.646 248.889 208.954 249.545 208.954V207.753V207.743Z" fill="url(#paint38_linear_2955_7776)"/>
<path d="M249.545 190.207C260.744 190.207 269.816 181.072 269.816 169.803C269.816 158.533 260.734 149.398 249.545 149.398C238.357 149.398 229.285 158.533 229.285 169.803C229.285 181.072 238.367 190.207 249.545 190.207Z" fill="url(#paint39_linear_2955_7776)"/>
</g>
<mask id="mask5_2955_7776" style="mask-type:luminance" maskUnits="userSpaceOnUse" x="600" y="257" width="42" height="70">
<path d="M641.543 257.164H600.535V326.382H641.543V257.164Z" fill="white"/>
</mask>
<g mask="url(#mask5_2955_7776)">
<path d="M618.787 325.776L601.538 315.757C600.206 314.983 600.206 313.057 601.538 312.282L618.777 302.263C620.188 301.439 621.927 301.439 623.318 302.263L640.558 312.282C641.889 313.057 641.889 314.983 640.558 315.757L623.318 325.776C621.927 326.6 620.188 326.6 618.777 325.776H618.797H618.787Z" fill="#13FFD5"/>
<path d="M621.053 315.519V316.731C621.699 316.731 622.285 316.403 622.424 316.323L624.481 315.122C625.584 314.486 626.25 313.305 626.25 312.034V284.867H621.043V315.509L621.053 315.519Z" fill="url(#paint40_linear_2955_7776)"/>
<path d="M621.053 315.519V284.877H615.836V312.56C615.836 313.514 616.343 314.397 617.167 314.874L619.681 316.334C619.84 316.423 620.397 316.731 621.053 316.731V315.529V315.519Z" fill="url(#paint41_linear_2955_7776)"/>
<path d="M621.053 297.984C632.252 297.984 641.323 288.849 641.323 277.579C641.323 266.309 632.242 257.174 621.053 257.174C609.865 257.174 600.793 266.309 600.793 277.579C600.793 288.849 609.875 297.984 621.053 297.984Z" fill="url(#paint42_linear_2955_7776)"/>
</g>
<mask id="mask6_2955_7776" style="mask-type:luminance" maskUnits="userSpaceOnUse" x="159" y="462" width="42" height="70">
<path d="M200.797 462.073H159.789V531.29H200.797V462.073Z" fill="white"/>
</mask>
<g mask="url(#mask6_2955_7776)">
<path d="M178.041 530.684L160.792 520.666C159.46 519.891 159.46 517.965 160.792 517.19L178.031 507.172C179.442 506.347 181.181 506.347 182.572 507.172L199.812 517.19C201.143 517.965 201.143 519.891 199.812 520.666L182.572 530.684C181.181 531.508 179.442 531.508 178.031 530.684H178.051H178.041Z" fill="#13FFD5"/>
<path d="M180.307 520.427V521.639C180.953 521.639 181.539 521.311 181.678 521.232L183.735 520.03C184.838 519.395 185.504 518.213 185.504 516.942V489.775H180.297V520.417L180.307 520.427Z" fill="url(#paint43_linear_2955_7776)"/>
<path d="M180.306 520.427V489.785H175.09V517.468C175.09 518.421 175.597 519.305 176.421 519.782L178.935 521.241C179.094 521.331 179.651 521.639 180.306 521.639V520.437V520.427Z" fill="url(#paint44_linear_2955_7776)"/>
<path d="M180.307 502.892C191.505 502.892 200.577 493.757 200.577 482.487C200.577 471.217 191.496 462.082 180.307 462.082C169.119 462.082 160.047 471.217 160.047 482.487C160.047 493.757 169.129 502.892 180.307 502.892Z" fill="url(#paint45_linear_2955_7776)"/>
</g>
<path d="M129.16 124.107L187.538 157.941C191.317 160.131 191.486 165.527 187.851 167.948V167.948C184.167 170.402 184.401 175.889 188.28 178.021L233.022 202.611" stroke="#13FFD5"/>
<path d="M259.656 213.255L402.361 290.336C405.514 292.039 409.338 291.925 412.384 290.035L446.075 269.139" stroke="#13FFD5"/>
<path d="M245.009 199.95L203.73 175.334" stroke="#13FFD5"/>
<path d="M613.849 573.841L572.57 549.225" stroke="#13FFD5"/>
<path d="M208.557 172.008C208.557 172.818 207.886 173.687 206.493 174.383C205.131 175.064 203.213 175.499 201.067 175.499C198.922 175.499 197.004 175.064 195.642 174.383C194.249 173.687 193.578 172.818 193.578 172.008C193.578 171.197 194.249 170.328 195.642 169.632C197.004 168.951 198.922 168.516 201.067 168.516C203.213 168.516 205.131 168.951 206.493 169.632C207.886 170.328 208.557 171.197 208.557 172.008Z" stroke="#13FFD5"/>
<path d="M268.475 335.668C268.475 336.479 267.804 337.348 266.411 338.044C265.049 338.724 263.131 339.16 260.985 339.16C258.84 339.16 256.922 338.724 255.56 338.044C254.167 337.348 253.496 336.479 253.496 335.668C253.496 334.858 254.167 333.989 255.56 333.293C256.922 332.612 258.84 332.177 260.985 332.177C263.131 332.177 265.049 332.612 266.411 333.293C267.804 333.989 268.475 334.858 268.475 335.668Z" stroke="#13FFD5"/>
<path d="M577.397 545.899C577.397 546.709 576.726 547.578 575.333 548.274C573.97 548.955 572.053 549.39 569.907 549.39C567.762 549.39 565.844 548.955 564.481 548.274C563.089 547.578 562.418 546.709 562.418 545.899C562.418 545.088 563.089 544.219 564.481 543.523C565.844 542.843 567.762 542.407 569.907 542.407C572.053 542.407 573.97 542.843 575.333 543.523C576.726 544.219 577.397 545.088 577.397 545.899Z" stroke="#13FFD5"/>
<path d="M449.569 647.022C449.569 647.833 448.898 648.702 447.505 649.398C446.142 650.078 444.225 650.514 442.079 650.514C439.934 650.514 438.016 650.078 436.653 649.398C435.261 648.702 434.59 647.833 434.59 647.022C434.59 646.212 435.261 645.343 436.653 644.647C438.016 643.966 439.934 643.531 442.079 643.531C444.225 643.531 446.142 643.966 447.505 644.647C448.898 645.343 449.569 646.212 449.569 647.022Z" stroke="#13FFD5"/>
<path d="M455.394 277.123L391.079 314.612C384.295 318.566 384.506 328.438 391.453 332.099L433.653 354.333C440.409 357.893 440.843 367.406 434.438 371.566L342.211 431.47" stroke="#13FFD5"/>
<path d="M484.688 271.801L587.422 330.101C590.583 331.894 594.468 331.832 597.57 329.938L616.512 318.371" stroke="#13FFD5"/>
<path d="M470.041 277.123L593.615 349.055C599.94 352.736 600.298 361.741 594.286 365.913L475.885 448.075C469.975 452.176 470.198 460.987 476.307 464.784L632.491 561.866" stroke="#13FFD5"/>
<path opacity="0.4" d="M637.173 610.089L597.17 586.467C594.089 584.65 594.089 580.093 597.17 578.276L637.154 554.654C640.413 552.717 644.447 552.717 647.686 554.654L687.69 578.276C690.77 580.093 690.77 584.65 687.69 586.467L647.686 610.089C644.447 612.026 640.413 612.026 637.154 610.089H637.173Z" fill="url(#paint46_radial_2955_7776)"/>
<path d="M641.773 586.358V589.247C643.423 589.247 644.874 588.473 645.231 588.274L650.378 585.415C653.131 583.895 654.8 581.095 654.8 578.047V513.248H641.773V586.348V586.358Z" fill="url(#paint47_linear_2955_7776)"/>
<path d="M641.776 586.358V513.258H630.051V579.308C630.051 581.582 631.174 583.687 633.022 584.819L638.675 588.294C639.013 588.503 640.305 589.248 641.776 589.248V586.348V586.358Z" fill="url(#paint48_linear_2955_7776)"/>
<path d="M625.956 536.165L601.87 522.244C598.352 520.208 596.156 516.425 596.156 512.334V484.492C596.156 480.699 598.144 399.308 600.031 395.932C600.031 395.932 608.935 401.076 613.277 403.598L637.362 417.519L643.076 418.74V543.92C637.492 543.92 633.547 540.564 625.946 536.175V536.155L625.956 536.165Z" fill="url(#paint49_linear_2955_7776)"/>
<path d="M659.729 536.165L683.149 522.244C686.567 520.208 688.694 516.425 688.694 512.334V484.492C688.694 480.699 686.746 399.308 684.918 395.932C684.918 395.932 676.253 401.076 672.05 403.598L648.63 417.519L643.086 418.74V543.92C648.511 543.92 652.337 540.564 659.729 536.175V536.155V536.165Z" fill="url(#paint50_linear_2955_7776)"/>
<path d="M659.263 536.8L682.922 522.84C686.38 520.794 688.526 517.011 688.526 512.9V484.969C688.526 481.166 686.559 399.517 684.71 396.141C684.71 396.141 675.966 401.304 671.724 403.826L648.065 417.797L642.461 419.018V544.585C647.946 544.585 651.811 541.219 659.263 536.82V536.8Z" fill="url(#paint51_linear_2955_7776)"/>
<path d="M625.626 536.8L601.967 522.84C598.51 520.794 596.363 517.011 596.363 512.9V484.969C596.363 481.166 598.331 399.517 600.179 396.141C600.179 396.141 608.923 401.304 613.185 403.826L636.824 417.797L642.428 419.018V544.585C636.963 544.585 633.078 541.219 625.626 536.82V536.8Z" fill="url(#paint52_linear_2955_7776)"/>
<path d="M684.778 396.161C683.307 393.41 679.124 389.578 674.762 386.38C673.917 385.596 672.914 384.871 671.771 384.196L648.073 370.473C646.662 369.649 644.754 369.272 642.786 369.272H642.121C640.133 369.272 638.246 369.639 636.835 370.454L613.116 384.176C611.954 384.851 610.95 385.576 610.126 386.36C605.744 389.558 601.56 393.38 600.09 396.141C600.09 396.141 608.854 401.215 613.116 403.677L615.511 405.067C615.511 405.067 615.65 405.137 615.69 405.196L635.91 416.913C635.91 416.913 635.99 416.953 636.03 416.963L636.815 417.42C638.206 418.244 640.114 418.601 642.061 418.601H642.767C644.734 418.601 646.622 418.214 648.013 417.42L648.798 416.963L648.917 416.913L669.138 405.196C669.138 405.196 669.257 405.127 669.316 405.067L671.711 403.677C675.974 401.215 684.758 396.141 684.758 396.141L684.778 396.161Z" fill="url(#paint53_linear_2955_7776)"/>
<path d="M637.173 610.089L597.17 586.467C594.089 584.65 594.089 580.093 597.17 578.276L637.154 554.654C640.413 552.717 644.447 552.717 647.686 554.654L687.69 578.276C690.77 580.093 690.77 584.65 687.69 586.467L647.686 610.089C644.447 612.026 640.413 612.026 637.154 610.089H637.173Z" fill="#13FFD5"/>
<path d="M641.773 586.358V589.247C643.423 589.247 644.874 588.473 645.231 588.274L650.378 585.415C653.131 583.895 654.8 581.095 654.8 578.047V513.248H641.773V586.348V586.358Z" fill="url(#paint54_linear_2955_7776)"/>
<path d="M641.776 586.358V513.258H630.051V579.308C630.051 581.582 631.174 583.687 633.022 584.819L638.675 588.294C639.013 588.503 640.305 589.248 641.776 589.248V586.348V586.358Z" fill="url(#paint55_linear_2955_7776)"/>
<path d="M625.956 536.165L601.87 522.244C598.352 520.208 596.156 516.425 596.156 512.334V484.492C596.156 480.699 598.144 399.308 600.031 395.932C600.031 395.932 608.935 401.076 613.277 403.598L637.362 417.519L643.076 418.74V543.92C637.492 543.92 633.547 540.564 625.946 536.175V536.155L625.956 536.165Z" fill="url(#paint56_linear_2955_7776)"/>
<path d="M659.729 536.165L683.149 522.244C686.567 520.208 688.694 516.425 688.694 512.334V484.492C688.694 480.699 686.746 399.308 684.918 395.932C684.918 395.932 676.253 401.076 672.05 403.598L648.63 417.519L643.086 418.74V543.92C648.511 543.92 652.337 540.564 659.729 536.175V536.155V536.165Z" fill="url(#paint57_linear_2955_7776)"/>
<path d="M659.263 536.8L682.922 522.84C686.38 520.794 688.526 517.011 688.526 512.9V484.969C688.526 481.166 686.559 399.517 684.71 396.141C684.71 396.141 675.966 401.304 671.724 403.826L648.065 417.797L642.461 419.018V544.585C647.946 544.585 651.811 541.219 659.263 536.82V536.8Z" fill="url(#paint58_linear_2955_7776)"/>
<path d="M625.626 536.8L601.967 522.84C598.51 520.794 596.363 517.011 596.363 512.9V484.969C596.363 481.166 598.331 399.517 600.179 396.141C600.179 396.141 608.923 401.304 613.185 403.826L636.824 417.797L642.428 419.018V544.585C636.963 544.585 633.078 541.219 625.626 536.82V536.8Z" fill="url(#paint59_linear_2955_7776)"/>
<path d="M684.778 396.161C683.307 393.41 679.124 389.578 674.762 386.38C673.917 385.596 672.914 384.871 671.771 384.196L648.073 370.473C646.662 369.649 644.754 369.272 642.786 369.272H642.121C640.133 369.272 638.246 369.639 636.835 370.454L613.116 384.176C611.954 384.851 610.95 385.576 610.126 386.36C605.744 389.558 601.56 393.38 600.09 396.141C600.09 396.141 608.854 401.215 613.116 403.677L615.511 405.067C615.511 405.067 615.65 405.137 615.69 405.196L635.91 416.913C635.91 416.913 635.99 416.953 636.03 416.963L636.815 417.42C638.206 418.244 640.114 418.601 642.061 418.601H642.767C644.734 418.601 646.622 418.214 648.013 417.42L648.798 416.963L648.917 416.913L669.138 405.196C669.138 405.196 669.257 405.127 669.316 405.067L671.711 403.677C675.974 401.215 684.758 396.141 684.758 396.141L684.778 396.161Z" fill="url(#paint60_linear_2955_7776)"/>
<path d="M303.597 447.436L190.414 516.626" stroke="#13FFD5"/>
<path d="M316.912 456.75L70.6863 611.947C64.4609 615.871 64.463 624.948 70.6901 628.869L154.462 681.617" stroke="#13FFD5"/>
<path d="M54.5938 431.469L175.862 361.314C179.078 359.453 183.06 359.529 186.203 361.511L318.243 444.775" stroke="#13FFD5"/>
<path d="M318.244 432.8L225.296 373.59C219.043 369.606 219.147 360.442 225.488 356.602L255.66 338.329" stroke="#13FFD5"/>
<path d="M352.865 450.097L445.948 499.475C452.628 503.019 453.11 512.41 446.826 516.618L349.592 581.737C343.276 585.967 343.802 595.419 350.549 598.922L438.085 644.361" stroke="#13FFD5"/>
<path d="M616.512 471.387C400.799 471.387 272.969 519.287 140.49 649.201" stroke="url(#paint61_linear_2955_7776)" stroke-width="5" stroke-linecap="round"/>
<ellipse cx="616.512" cy="471.387" rx="31.9575" ry="31.9338" fill="url(#paint62_radial_2955_7776)" fill-opacity="0.8"/>
<defs>
<filter id="filter0_d_2955_7776" x="475.612" y="0.596471" width="45.4203" height="45.4096" filterUnits="userSpaceOnUse" color-interpolation-filters="sRGB">
<feFlood flood-opacity="0" result="BackgroundImageFix"/>
<feColorMatrix in="SourceAlpha" type="matrix" values="0 0 0 0 0 0 0 0 0 0 0 0 0 0 0 0 0 0 127 0" result="hardAlpha"/>
<feOffset/>
<feGaussianBlur stdDeviation="7.20176"/>
<feComposite in2="hardAlpha" operator="out"/>
<feColorMatrix type="matrix" values="0 0 0 0 0.509993 0 0 0 0 1 0 0 0 0 0.911799 0 0 0 0.72 0"/>
<feBlend mode="normal" in2="BackgroundImageFix" result="effect1_dropShadow_2955_7776"/>
<feBlend mode="normal" in="SourceGraphic" in2="effect1_dropShadow_2955_7776" result="shape"/>
</filter>
<filter id="filter1_d_2955_7776" x="479.604" y="596.693" width="45.4203" height="45.4096" filterUnits="userSpaceOnUse" color-interpolation-filters="sRGB">
<feFlood flood-opacity="0" result="BackgroundImageFix"/>
<feColorMatrix in="SourceAlpha" type="matrix" values="0 0 0 0 0 0 0 0 0 0 0 0 0 0 0 0 0 0 127 0" result="hardAlpha"/>
<feOffset/>
<feGaussianBlur stdDeviation="7.20176"/>
<feComposite in2="hardAlpha" operator="out"/>
<feColorMatrix type="matrix" values="0 0 0 0 0.509993 0 0 0 0 1 0 0 0 0 0.911799 0 0 0 0.72 0"/>
<feBlend mode="normal" in2="BackgroundImageFix" result="effect1_dropShadow_2955_7776"/>
<feBlend mode="normal" in="SourceGraphic" in2="effect1_dropShadow_2955_7776" result="shape"/>
</filter>
<filter id="filter2_d_2955_7776" x="98.7801" y="274.695" width="45.4203" height="45.4096" filterUnits="userSpaceOnUse" color-interpolation-filters="sRGB">
<feFlood flood-opacity="0" result="BackgroundImageFix"/>
<feColorMatrix in="SourceAlpha" type="matrix" values="0 0 0 0 0 0 0 0 0 0 0 0 0 0 0 0 0 0 127 0" result="hardAlpha"/>
<feOffset/>
<feGaussianBlur stdDeviation="7.20176"/>
<feComposite in2="hardAlpha" operator="out"/>
<feColorMatrix type="matrix" values="0 0 0 0 0.509993 0 0 0 0 1 0 0 0 0 0.911799 0 0 0 0.72 0"/>
<feBlend mode="normal" in2="BackgroundImageFix" result="effect1_dropShadow_2955_7776"/>
<feBlend mode="normal" in="SourceGraphic" in2="effect1_dropShadow_2955_7776" result="shape"/>
</filter>
<filter id="filter3_d_2955_7776" x="349.112" y="515.528" width="45.4203" height="45.4096" filterUnits="userSpaceOnUse" color-interpolation-filters="sRGB">
<feFlood flood-opacity="0" result="BackgroundImageFix"/>
<feColorMatrix in="SourceAlpha" type="matrix" values="0 0 0 0 0 0 0 0 0 0 0 0 0 0 0 0 0 0 127 0" result="hardAlpha"/>
<feOffset/>
<feGaussianBlur stdDeviation="7.20176"/>
<feComposite in2="hardAlpha" operator="out"/>
<feColorMatrix type="matrix" values="0 0 0 0 0.509993 0 0 0 0 1 0 0 0 0 0.911799 0 0 0 0.72 0"/>
<feBlend mode="normal" in2="BackgroundImageFix" result="effect1_dropShadow_2955_7776"/>
<feBlend mode="normal" in="SourceGraphic" in2="effect1_dropShadow_2955_7776" result="shape"/>
</filter>
<filter id="filter4_d_2955_7776" x="77.4754" y="527.503" width="48.2992" height="48.2848" filterUnits="userSpaceOnUse" color-interpolation-filters="sRGB">
<feFlood flood-opacity="0" result="BackgroundImageFix"/>
<feColorMatrix in="SourceAlpha" type="matrix" values="0 0 0 0 0 0 0 0 0 0 0 0 0 0 0 0 0 0 127 0" result="hardAlpha"/>
<feOffset/>
<feGaussianBlur stdDeviation="7.20176"/>
<feComposite in2="hardAlpha" operator="out"/>
<feColorMatrix type="matrix" values="0 0 0 0 0.509993 0 0 0 0 1 0 0 0 0 0.911799 0 0 0 0.72 0"/>
<feBlend mode="normal" in2="BackgroundImageFix" result="effect1_dropShadow_2955_7776"/>
<feBlend mode="normal" in="SourceGraphic" in2="effect1_dropShadow_2955_7776" result="shape"/>
</filter>
<filter id="filter5_d_2955_7776" x="592.788" y="330.579" width="48.2992" height="48.2848" filterUnits="userSpaceOnUse" color-interpolation-filters="sRGB">
<feFlood flood-opacity="0" result="BackgroundImageFix"/>
<feColorMatrix in="SourceAlpha" type="matrix" values="0 0 0 0 0 0 0 0 0 0 0 0 0 0 0 0 0 0 127 0" result="hardAlpha"/>
<feOffset/>
<feGaussianBlur stdDeviation="7.20176"/>
<feComposite in2="hardAlpha" operator="out"/>
<feColorMatrix type="matrix" values="0 0 0 0 0.509993 0 0 0 0 1 0 0 0 0 0.911799 0 0 0 0.72 0"/>
<feBlend mode="normal" in2="BackgroundImageFix" result="effect1_dropShadow_2955_7776"/>
<feBlend mode="normal" in="SourceGraphic" in2="effect1_dropShadow_2955_7776" result="shape"/>
</filter>
<filter id="filter6_d_2955_7776" x="528.874" y="37.8526" width="64.8852" height="64.8595" filterUnits="userSpaceOnUse" color-interpolation-filters="sRGB">
<feFlood flood-opacity="0" result="BackgroundImageFix"/>
<feColorMatrix in="SourceAlpha" type="matrix" values="0 0 0 0 0 0 0 0 0 0 0 0 0 0 0 0 0 0 127 0" result="hardAlpha"/>
<feOffset/>
<feGaussianBlur stdDeviation="7.20176"/>
<feComposite in2="hardAlpha" operator="out"/>
<feColorMatrix type="matrix" values="0 0 0 0 0.509993 0 0 0 0 1 0 0 0 0 0.911799 0 0 0 0.72 0"/>
<feBlend mode="normal" in2="BackgroundImageFix" result="effect1_dropShadow_2955_7776"/>
<feBlend mode="normal" in="SourceGraphic" in2="effect1_dropShadow_2955_7776" result="shape"/>
</filter>
<filter id="filter7_d_2955_7776" x="53.5066" y="298.645" width="64.8852" height="64.8595" filterUnits="userSpaceOnUse" color-interpolation-filters="sRGB">
<feFlood flood-opacity="0" result="BackgroundImageFix"/>
<feColorMatrix in="SourceAlpha" type="matrix" values="0 0 0 0 0 0 0 0 0 0 0 0 0 0 0 0 0 0 127 0" result="hardAlpha"/>
<feOffset/>
<feGaussianBlur stdDeviation="7.20176"/>
<feComposite in2="hardAlpha" operator="out"/>
<feColorMatrix type="matrix" values="0 0 0 0 0.509993 0 0 0 0 1 0 0 0 0 0.911799 0 0 0 0.72 0"/>
<feBlend mode="normal" in2="BackgroundImageFix" result="effect1_dropShadow_2955_7776"/>
<feBlend mode="normal" in="SourceGraphic" in2="effect1_dropShadow_2955_7776" result="shape"/>
</filter>
<linearGradient id="paint0_linear_2955_7776" x1="44.3639" y1="416.354" x2="35.3615" y2="416.354" gradientUnits="userSpaceOnUse">
<stop stop-color="#401480"/>
<stop offset="0.34" stop-color="#421582"/>
<stop offset="0.68" stop-color="#481A8E"/>
<stop offset="1" stop-color="#5321A1"/>
</linearGradient>
<linearGradient id="paint1_linear_2955_7776" x1="35.3636" y1="416.354" x2="26.381" y2="416.354" gradientUnits="userSpaceOnUse">
<stop stop-color="#5321A1"/>
<stop offset="0.13" stop-color="#58289F"/>
<stop offset="0.38" stop-color="#5D309E"/>
<stop offset="1" stop-color="#5F329E"/>
</linearGradient>
<linearGradient id="paint2_linear_2955_7776" x1="35.3819" y1="417.308" x2="35.3819" y2="315.81" gradientUnits="userSpaceOnUse">
<stop stop-color="#9728D9"/>
<stop offset="0.06" stop-color="#802DCB"/>
<stop offset="0.13" stop-color="#6B32BE"/>
<stop offset="0.19" stop-color="#5E35B6"/>
<stop offset="0.26" stop-color="#5A37B4"/>
<stop offset="0.33" stop-color="#5A3CB8"/>
<stop offset="0.44" stop-color="#5C4DC4"/>
<stop offset="0.55" stop-color="#6069D9"/>
<stop offset="0.63" stop-color="#6380EB"/>
<stop offset="1" stop-color="#6BA6FF"/>
</linearGradient>
<linearGradient id="paint3_linear_2955_7776" x1="170.041" y1="664.397" x2="163.91" y2="664.397" gradientUnits="userSpaceOnUse">
<stop stop-color="#401480"/>
<stop offset="0.34" stop-color="#421582"/>
<stop offset="0.68" stop-color="#481A8E"/>
<stop offset="1" stop-color="#5321A1"/>
</linearGradient>
<linearGradient id="paint4_linear_2955_7776" x1="163.908" y1="664.397" x2="157.787" y2="664.397" gradientUnits="userSpaceOnUse">
<stop stop-color="#5321A1"/>
<stop offset="0.13" stop-color="#58289F"/>
<stop offset="0.38" stop-color="#5D309E"/>
<stop offset="1" stop-color="#5F329E"/>
</linearGradient>
<linearGradient id="paint5_linear_2955_7776" x1="167.932" y1="641.57" x2="198.31" y2="655.328" gradientUnits="userSpaceOnUse">
<stop stop-color="#6E6CFF"/>
<stop offset="1" stop-color="#4800D0"/>
</linearGradient>
<linearGradient id="paint6_linear_2955_7776" x1="155.821" y1="643.417" x2="125.442" y2="657.175" gradientUnits="userSpaceOnUse">
<stop stop-color="#6E6CFF"/>
<stop offset="1" stop-color="#4800D0"/>
</linearGradient>
<linearGradient id="paint7_linear_2955_7776" x1="163.948" y1="611.136" x2="163.889" y2="635.066" gradientUnits="userSpaceOnUse">
<stop stop-color="#483CD0"/>
<stop offset="1" stop-color="#6E76FF"/>
</linearGradient>
<linearGradient id="paint8_linear_2955_7776" x1="128.881" y1="96.1829" x2="121.379" y2="96.1829" gradientUnits="userSpaceOnUse">
<stop stop-color="#401480"/>
<stop offset="0.34" stop-color="#421582"/>
<stop offset="0.68" stop-color="#481A8E"/>
<stop offset="1" stop-color="#5321A1"/>
</linearGradient>
<linearGradient id="paint9_linear_2955_7776" x1="121.379" y1="96.1831" x2="113.887" y2="96.1831" gradientUnits="userSpaceOnUse">
<stop stop-color="#5321A1"/>
<stop offset="0.13" stop-color="#58289F"/>
<stop offset="0.38" stop-color="#5D309E"/>
<stop offset="1" stop-color="#5F329E"/>
</linearGradient>
<linearGradient id="paint10_linear_2955_7776" x1="126.319" y1="68.2516" x2="163.482" y2="85.0817" gradientUnits="userSpaceOnUse">
<stop stop-color="#6E6CFF"/>
<stop offset="1" stop-color="#4800D0"/>
</linearGradient>
<linearGradient id="paint11_linear_2955_7776" x1="111.483" y1="70.5155" x2="74.3096" y2="87.3456" gradientUnits="userSpaceOnUse">
<stop stop-color="#6E6CFF"/>
<stop offset="1" stop-color="#4800D0"/>
</linearGradient>
<linearGradient id="paint12_linear_2955_7776" x1="121.429" y1="31.0166" x2="121.35" y2="60.2884" gradientUnits="userSpaceOnUse">
<stop stop-color="#483CD0"/>
<stop offset="1" stop-color="#6E76FF"/>
</linearGradient>
<linearGradient id="paint13_linear_2955_7776" x1="341.106" y1="418.946" x2="331.07" y2="418.946" gradientUnits="userSpaceOnUse">
<stop stop-color="#401480"/>
<stop offset="0.34" stop-color="#421582"/>
<stop offset="0.68" stop-color="#481A8E"/>
<stop offset="1" stop-color="#5321A1"/>
</linearGradient>
<linearGradient id="paint14_linear_2955_7776" x1="331.069" y1="418.956" x2="321.043" y2="418.956" gradientUnits="userSpaceOnUse">
<stop stop-color="#5321A1"/>
<stop offset="0.13" stop-color="#58289F"/>
<stop offset="0.38" stop-color="#5D309E"/>
<stop offset="1" stop-color="#5F329E"/>
</linearGradient>
<linearGradient id="paint15_linear_2955_7776" x1="337.67" y1="381.582" x2="387.399" y2="404.098" gradientUnits="userSpaceOnUse">
<stop stop-color="#6E6CFF"/>
<stop offset="1" stop-color="#4800D0"/>
</linearGradient>
<linearGradient id="paint16_linear_2955_7776" x1="317.813" y1="384.6" x2="268.084" y2="407.127" gradientUnits="userSpaceOnUse">
<stop stop-color="#6E6CFF"/>
<stop offset="1" stop-color="#4800D0"/>
</linearGradient>
<linearGradient id="paint17_linear_2955_7776" x1="331.141" y1="331.746" x2="331.042" y2="370.917" gradientUnits="userSpaceOnUse">
<stop stop-color="#483CD0"/>
<stop offset="1" stop-color="#6E76FF"/>
</linearGradient>
<radialGradient id="paint18_radial_2955_7776" cx="0" cy="0" r="1" gradientUnits="userSpaceOnUse" gradientTransform="translate(-1288 -783.236) rotate(30.5723) scale(28.3157 28.6271)">
<stop stop-color="#6C1AD9"/>
<stop offset="0.08" stop-color="#5E32D8"/>
<stop offset="0.18" stop-color="#5248D7"/>
<stop offset="0.27" stop-color="#4B55D7"/>
<stop offset="0.35" stop-color="#495AD7"/>
<stop offset="0.46" stop-color="#4B5FD9"/>
<stop offset="0.6" stop-color="#5270E2"/>
<stop offset="0.76" stop-color="#5E8AEF"/>
<stop offset="0.89" stop-color="#6BA6FF"/>
</radialGradient>
<linearGradient id="paint19_linear_2955_7776" x1="479.382" y1="226.258" x2="466.355" y2="226.258" gradientUnits="userSpaceOnUse">
<stop stop-color="#401480"/>
<stop offset="0.34" stop-color="#421582"/>
<stop offset="0.68" stop-color="#481A8E"/>
<stop offset="1" stop-color="#5321A1"/>
</linearGradient>
<linearGradient id="paint20_linear_2955_7776" x1="466.358" y1="226.258" x2="454.613" y2="226.258" gradientUnits="userSpaceOnUse">
<stop stop-color="#5321A1"/>
<stop offset="0.13" stop-color="#58289F"/>
<stop offset="0.38" stop-color="#5D309E"/>
<stop offset="1" stop-color="#5F329E"/>
</linearGradient>
<linearGradient id="paint21_linear_2955_7776" x1="461.577" y1="140.925" x2="348.312" y2="170.365" gradientUnits="userSpaceOnUse">
<stop stop-color="#6E6CFF"/>
<stop offset="1" stop-color="#4000B9"/>
</linearGradient>
<linearGradient id="paint22_linear_2955_7776" x1="464.23" y1="138.781" x2="574.733" y2="166.709" gradientUnits="userSpaceOnUse">
<stop stop-color="#6E6CFF"/>
<stop offset="1" stop-color="#4000B9"/>
</linearGradient>
<linearGradient id="paint23_linear_2955_7776" x1="463.953" y1="132.158" x2="555.457" y2="182.117" gradientUnits="userSpaceOnUse">
<stop stop-color="#6E6CFF"/>
<stop offset="0.35" stop-color="#6C69FA"/>
<stop offset="0.52" stop-color="#6962F3"/>
<stop offset="0.66" stop-color="#6255E7"/>
<stop offset="0.77" stop-color="#5942D6"/>
<stop offset="0.87" stop-color="#4D2AC0"/>
<stop offset="0.96" stop-color="#3F0CA4"/>
<stop offset="1" stop-color="#390099"/>
</linearGradient>
<linearGradient id="paint24_linear_2955_7776" x1="464.695" y1="135.107" x2="373.181" y2="185.076" gradientUnits="userSpaceOnUse">
<stop stop-color="#6E6CFF"/>
<stop offset="0.35" stop-color="#6C69FA"/>
<stop offset="0.52" stop-color="#6962F3"/>
<stop offset="0.66" stop-color="#6255E7"/>
<stop offset="0.77" stop-color="#5942D6"/>
<stop offset="0.87" stop-color="#4D2AC0"/>
<stop offset="0.96" stop-color="#3F0CA4"/>
<stop offset="1" stop-color="#390099"/>
</linearGradient>
<linearGradient id="paint25_linear_2955_7776" x1="467.051" y1="44.3422" x2="466.971" y2="90.6429" gradientUnits="userSpaceOnUse">
<stop stop-color="#483CD0"/>
<stop offset="1" stop-color="#6E76FF"/>
</linearGradient>
<linearGradient id="paint26_linear_2955_7776" x1="479.382" y1="226.258" x2="466.355" y2="226.258" gradientUnits="userSpaceOnUse">
<stop stop-color="#401480"/>
<stop offset="0.34" stop-color="#421582"/>
<stop offset="0.68" stop-color="#481A8E"/>
<stop offset="1" stop-color="#5321A1"/>
</linearGradient>
<linearGradient id="paint27_linear_2955_7776" x1="466.358" y1="226.258" x2="454.613" y2="226.258" gradientUnits="userSpaceOnUse">
<stop stop-color="#5321A1"/>
<stop offset="0.13" stop-color="#58289F"/>
<stop offset="0.38" stop-color="#5D309E"/>
<stop offset="1" stop-color="#5F329E"/>
</linearGradient>
<linearGradient id="paint28_linear_2955_7776" x1="461.577" y1="140.925" x2="348.312" y2="170.365" gradientUnits="userSpaceOnUse">
<stop stop-color="#6E6CFF"/>
<stop offset="1" stop-color="#4000B9"/>
</linearGradient>
<linearGradient id="paint29_linear_2955_7776" x1="464.23" y1="138.781" x2="574.733" y2="166.709" gradientUnits="userSpaceOnUse">
<stop stop-color="#6E6CFF"/>
<stop offset="1" stop-color="#4000B9"/>
</linearGradient>
<linearGradient id="paint30_linear_2955_7776" x1="431.427" y1="140.074" x2="525.962" y2="160.058" gradientUnits="userSpaceOnUse">
<stop stop-color="#6E6CFF"/>
<stop offset="0.35" stop-color="#6C69FA"/>
<stop offset="0.52" stop-color="#6962F3"/>
<stop offset="0.66" stop-color="#6255E7"/>
<stop offset="0.77" stop-color="#5942D6"/>
<stop offset="0.87" stop-color="#4D2AC0"/>
<stop offset="0.96" stop-color="#3F0CA4"/>
<stop offset="1" stop-color="#390099"/>
</linearGradient>
<linearGradient id="paint31_linear_2955_7776" x1="464.695" y1="135.107" x2="373.181" y2="185.076" gradientUnits="userSpaceOnUse">
<stop stop-color="#6E6CFF"/>
<stop offset="0.35" stop-color="#6C69FA"/>
<stop offset="0.52" stop-color="#6962F3"/>
<stop offset="0.66" stop-color="#6255E7"/>
<stop offset="0.77" stop-color="#5942D6"/>
<stop offset="0.87" stop-color="#4D2AC0"/>
<stop offset="0.96" stop-color="#3F0CA4"/>
<stop offset="1" stop-color="#390099"/>
</linearGradient>
<linearGradient id="paint32_linear_2955_7776" x1="467.051" y1="45.6728" x2="466.971" y2="91.9735" gradientUnits="userSpaceOnUse">
<stop stop-color="#483CD0"/>
<stop offset="1" stop-color="#6E76FF"/>
</linearGradient>
<linearGradient id="paint33_linear_2955_7776" x1="129.685" y1="64.519" x2="577.959" y2="28.8892" gradientUnits="userSpaceOnUse">
<stop stop-color="#13FFD5" stop-opacity="0"/>
<stop offset="0.471" stop-color="white"/>
</linearGradient>
<linearGradient id="paint34_linear_2955_7776" x1="482.025" y1="172.008" x2="337.021" y2="362.383" gradientUnits="userSpaceOnUse">
<stop stop-color="#13FFD5" stop-opacity="0"/>
<stop offset="0.471" stop-color="white"/>
</linearGradient>
<radialGradient id="paint35_radial_2955_7776" cx="0" cy="0" r="1" gradientUnits="userSpaceOnUse" gradientTransform="translate(432.758 112.132) rotate(90) scale(31.9338 31.9575)">
<stop stop-color="white"/>
<stop offset="0.806" stop-color="white" stop-opacity="0"/>
</radialGradient>
<radialGradient id="paint36_radial_2955_7776" cx="0" cy="0" r="1" gradientUnits="userSpaceOnUse" gradientTransform="translate(327.563 348.974) rotate(90) scale(31.9338 31.9575)">
<stop stop-color="white"/>
<stop offset="0.806" stop-color="white" stop-opacity="0"/>
</radialGradient>
<linearGradient id="paint37_linear_2955_7776" x1="254.762" y1="193.027" x2="249.545" y2="193.027" gradientUnits="userSpaceOnUse">
<stop stop-color="#401480"/>
<stop offset="0.34" stop-color="#421582"/>
<stop offset="0.68" stop-color="#481A8E"/>
<stop offset="1" stop-color="#5321A1"/>
</linearGradient>
<linearGradient id="paint38_linear_2955_7776" x1="249.545" y1="193.027" x2="244.318" y2="193.027" gradientUnits="userSpaceOnUse">
<stop stop-color="#5321A1"/>
<stop offset="0.13" stop-color="#58289F"/>
<stop offset="0.38" stop-color="#5D309E"/>
<stop offset="1" stop-color="#5F329E"/>
</linearGradient>
<linearGradient id="paint39_linear_2955_7776" x1="249.545" y1="193.564" x2="249.545" y2="135.814" gradientUnits="userSpaceOnUse">
<stop stop-color="#9728D9"/>
<stop offset="0.06" stop-color="#802DCB"/>
<stop offset="0.13" stop-color="#6B32BE"/>
<stop offset="0.19" stop-color="#5E35B6"/>
<stop offset="0.26" stop-color="#5A37B4"/>
<stop offset="0.33" stop-color="#5A3CB8"/>
<stop offset="0.44" stop-color="#5C4DC4"/>
<stop offset="0.55" stop-color="#6069D9"/>
<stop offset="0.63" stop-color="#6380EB"/>
<stop offset="1" stop-color="#6BA6FF"/>
</linearGradient>
<linearGradient id="paint40_linear_2955_7776" x1="626.269" y1="300.804" x2="621.053" y2="300.804" gradientUnits="userSpaceOnUse">
<stop stop-color="#401480"/>
<stop offset="0.34" stop-color="#421582"/>
<stop offset="0.68" stop-color="#481A8E"/>
<stop offset="1" stop-color="#5321A1"/>
</linearGradient>
<linearGradient id="paint41_linear_2955_7776" x1="621.053" y1="300.804" x2="615.826" y2="300.804" gradientUnits="userSpaceOnUse">
<stop stop-color="#5321A1"/>
<stop offset="0.13" stop-color="#58289F"/>
<stop offset="0.38" stop-color="#5D309E"/>
<stop offset="1" stop-color="#5F329E"/>
</linearGradient>
<linearGradient id="paint42_linear_2955_7776" x1="621.053" y1="301.34" x2="621.053" y2="243.591" gradientUnits="userSpaceOnUse">
<stop stop-color="#9728D9"/>
<stop offset="0.06" stop-color="#802DCB"/>
<stop offset="0.13" stop-color="#6B32BE"/>
<stop offset="0.19" stop-color="#5E35B6"/>
<stop offset="0.26" stop-color="#5A37B4"/>
<stop offset="0.33" stop-color="#5A3CB8"/>
<stop offset="0.44" stop-color="#5C4DC4"/>
<stop offset="0.55" stop-color="#6069D9"/>
<stop offset="0.63" stop-color="#6380EB"/>
<stop offset="1" stop-color="#6BA6FF"/>
</linearGradient>
<linearGradient id="paint43_linear_2955_7776" x1="185.523" y1="505.712" x2="180.307" y2="505.712" gradientUnits="userSpaceOnUse">
<stop stop-color="#401480"/>
<stop offset="0.34" stop-color="#421582"/>
<stop offset="0.68" stop-color="#481A8E"/>
<stop offset="1" stop-color="#5321A1"/>
</linearGradient>
<linearGradient id="paint44_linear_2955_7776" x1="180.306" y1="505.712" x2="175.08" y2="505.712" gradientUnits="userSpaceOnUse">
<stop stop-color="#5321A1"/>
<stop offset="0.13" stop-color="#58289F"/>
<stop offset="0.38" stop-color="#5D309E"/>
<stop offset="1" stop-color="#5F329E"/>
</linearGradient>
<linearGradient id="paint45_linear_2955_7776" x1="180.307" y1="506.248" x2="180.307" y2="448.499" gradientUnits="userSpaceOnUse">
<stop stop-color="#9728D9"/>
<stop offset="0.06" stop-color="#802DCB"/>
<stop offset="0.13" stop-color="#6B32BE"/>
<stop offset="0.19" stop-color="#5E35B6"/>
<stop offset="0.26" stop-color="#5A37B4"/>
<stop offset="0.33" stop-color="#5A3CB8"/>
<stop offset="0.44" stop-color="#5C4DC4"/>
<stop offset="0.55" stop-color="#6069D9"/>
<stop offset="0.63" stop-color="#6380EB"/>
<stop offset="1" stop-color="#6BA6FF"/>
</linearGradient>
<radialGradient id="paint46_radial_2955_7776" cx="0" cy="0" r="1" gradientUnits="userSpaceOnUse" gradientTransform="translate(-1112.58 -458.236) rotate(30.5723) scale(28.3157 28.6271)">
<stop stop-color="#6C1AD9"/>
<stop offset="0.08" stop-color="#5E32D8"/>
<stop offset="0.18" stop-color="#5248D7"/>
<stop offset="0.27" stop-color="#4B55D7"/>
<stop offset="0.35" stop-color="#495AD7"/>
<stop offset="0.46" stop-color="#4B5FD9"/>
<stop offset="0.6" stop-color="#5270E2"/>
<stop offset="0.76" stop-color="#5E8AEF"/>
<stop offset="0.89" stop-color="#6BA6FF"/>
</radialGradient>
<linearGradient id="paint47_linear_2955_7776" x1="654.8" y1="551.257" x2="641.773" y2="551.257" gradientUnits="userSpaceOnUse">
<stop stop-color="#401480"/>
<stop offset="0.34" stop-color="#421582"/>
<stop offset="0.68" stop-color="#481A8E"/>
<stop offset="1" stop-color="#5321A1"/>
</linearGradient>
<linearGradient id="paint48_linear_2955_7776" x1="641.776" y1="551.258" x2="630.031" y2="551.258" gradientUnits="userSpaceOnUse">
<stop stop-color="#5321A1"/>
<stop offset="0.13" stop-color="#58289F"/>
<stop offset="0.38" stop-color="#5D309E"/>
<stop offset="1" stop-color="#5F329E"/>
</linearGradient>
<linearGradient id="paint49_linear_2955_7776" x1="636.995" y1="465.925" x2="523.73" y2="495.364" gradientUnits="userSpaceOnUse">
<stop stop-color="#6E6CFF"/>
<stop offset="1" stop-color="#4000B9"/>
</linearGradient>
<linearGradient id="paint50_linear_2955_7776" x1="639.648" y1="463.78" x2="750.151" y2="491.708" gradientUnits="userSpaceOnUse">
<stop stop-color="#6E6CFF"/>
<stop offset="1" stop-color="#4000B9"/>
</linearGradient>
<linearGradient id="paint51_linear_2955_7776" x1="639.371" y1="457.157" x2="730.875" y2="507.116" gradientUnits="userSpaceOnUse">
<stop stop-color="#6E6CFF"/>
<stop offset="0.35" stop-color="#6C69FA"/>
<stop offset="0.52" stop-color="#6962F3"/>
<stop offset="0.66" stop-color="#6255E7"/>
<stop offset="0.77" stop-color="#5942D6"/>
<stop offset="0.87" stop-color="#4D2AC0"/>
<stop offset="0.96" stop-color="#3F0CA4"/>
<stop offset="1" stop-color="#390099"/>
</linearGradient>
<linearGradient id="paint52_linear_2955_7776" x1="640.113" y1="460.106" x2="548.599" y2="510.075" gradientUnits="userSpaceOnUse">
<stop stop-color="#6E6CFF"/>
<stop offset="0.35" stop-color="#6C69FA"/>
<stop offset="0.52" stop-color="#6962F3"/>
<stop offset="0.66" stop-color="#6255E7"/>
<stop offset="0.77" stop-color="#5942D6"/>
<stop offset="0.87" stop-color="#4D2AC0"/>
<stop offset="0.96" stop-color="#3F0CA4"/>
<stop offset="1" stop-color="#390099"/>
</linearGradient>
<linearGradient id="paint53_linear_2955_7776" x1="642.468" y1="369.341" x2="642.389" y2="415.642" gradientUnits="userSpaceOnUse">
<stop stop-color="#483CD0"/>
<stop offset="1" stop-color="#6E76FF"/>
</linearGradient>
<linearGradient id="paint54_linear_2955_7776" x1="654.8" y1="551.257" x2="641.773" y2="551.257" gradientUnits="userSpaceOnUse">
<stop stop-color="#401480"/>
<stop offset="0.34" stop-color="#421582"/>
<stop offset="0.68" stop-color="#481A8E"/>
<stop offset="1" stop-color="#5321A1"/>
</linearGradient>
<linearGradient id="paint55_linear_2955_7776" x1="641.776" y1="551.258" x2="630.031" y2="551.258" gradientUnits="userSpaceOnUse">
<stop stop-color="#5321A1"/>
<stop offset="0.13" stop-color="#58289F"/>
<stop offset="0.38" stop-color="#5D309E"/>
<stop offset="1" stop-color="#5F329E"/>
</linearGradient>
<linearGradient id="paint56_linear_2955_7776" x1="636.995" y1="465.925" x2="523.73" y2="495.364" gradientUnits="userSpaceOnUse">
<stop stop-color="#6E6CFF"/>
<stop offset="1" stop-color="#4000B9"/>
</linearGradient>
<linearGradient id="paint57_linear_2955_7776" x1="639.648" y1="463.78" x2="750.151" y2="491.708" gradientUnits="userSpaceOnUse">
<stop stop-color="#6E6CFF"/>
<stop offset="1" stop-color="#4000B9"/>
</linearGradient>
<linearGradient id="paint58_linear_2955_7776" x1="639.371" y1="457.157" x2="730.875" y2="507.116" gradientUnits="userSpaceOnUse">
<stop stop-color="#6E6CFF"/>
<stop offset="0.35" stop-color="#6C69FA"/>
<stop offset="0.52" stop-color="#6962F3"/>
<stop offset="0.66" stop-color="#6255E7"/>
<stop offset="0.77" stop-color="#5942D6"/>
<stop offset="0.87" stop-color="#4D2AC0"/>
<stop offset="0.96" stop-color="#3F0CA4"/>
<stop offset="1" stop-color="#390099"/>
</linearGradient>
<linearGradient id="paint59_linear_2955_7776" x1="640.113" y1="460.106" x2="548.599" y2="510.075" gradientUnits="userSpaceOnUse">
<stop stop-color="#6E6CFF"/>
<stop offset="0.35" stop-color="#6C69FA"/>
<stop offset="0.52" stop-color="#6962F3"/>
<stop offset="0.66" stop-color="#6255E7"/>
<stop offset="0.77" stop-color="#5942D6"/>
<stop offset="0.87" stop-color="#4D2AC0"/>
<stop offset="0.96" stop-color="#3F0CA4"/>
<stop offset="1" stop-color="#390099"/>
</linearGradient>
<linearGradient id="paint60_linear_2955_7776" x1="642.468" y1="369.341" x2="642.389" y2="415.642" gradientUnits="userSpaceOnUse">
<stop stop-color="#483CD0"/>
<stop offset="1" stop-color="#6E76FF"/>
</linearGradient>
<linearGradient id="paint61_linear_2955_7776" x1="164.305" y1="631.343" x2="612.579" y2="595.713" gradientUnits="userSpaceOnUse">
<stop stop-color="#13FFD5" stop-opacity="0"/>
<stop offset="0.471" stop-color="white"/>
</linearGradient>
<radialGradient id="paint62_radial_2955_7776" cx="0" cy="0" r="1" gradientUnits="userSpaceOnUse" gradientTransform="translate(616.512 471.387) rotate(90) scale(31.9338 31.9575)">
<stop stop-color="white"/>
<stop offset="0.806" stop-color="white" stop-opacity="0"/>
</radialGradient>
</defs>
</svg>
