<svg width="1734" height="1734" viewBox="0 0 1734 1734" fill="none" xmlns="http://www.w3.org/2000/svg">
<path opacity="0.3" d="M778.813 672.264C928.653 609.695 1083.56 556.643 1242.51 522.625C1303.46 509.666 1365.01 499.34 1427.38 495.492C1471.32 492.86 1517.28 492.455 1560.21 503.389C1585.52 509.869 1614.88 522.018 1625.62 547.936C1635.74 572.437 1625.62 599.976 1613.67 621.642C1593.82 657.482 1564.46 687.855 1534.7 715.596C1492.78 754.676 1446.62 789.302 1399.23 821.497C1274.91 906.137 1140.25 975.995 1002.76 1036.74C850.898 1103.97 693.363 1160.66 531.98 1199.95C467.589 1215.54 402.388 1228.5 336.58 1235.58C288.186 1240.65 238.171 1243.48 189.777 1236.6C160.618 1232.34 125.791 1224.45 105.744 1200.96C89.1404 1181.52 90.9628 1155.8 99.4673 1133.13C112.426 1098.7 138.142 1068.94 163.453 1043.02C200.711 1004.55 242.828 970.73 286.161 939.142C403.198 854.3 531.778 784.847 662.585 723.898C701.057 706.079 739.733 688.868 779.015 672.466C786.102 669.429 783.065 657.685 775.775 660.722C628.162 722.481 483.586 793.959 349.134 881.231C297.5 914.844 247.081 950.887 200.306 991.384C166.288 1020.74 133.283 1052.94 108.377 1090.6C92.3802 1114.5 77.8011 1143.86 81.0409 1173.42C84.2807 1200.96 103.922 1220.8 128.22 1232.14C163.656 1248.95 205.166 1252.19 243.841 1252.8C301.55 1253.61 359.259 1246.52 416.158 1236.8C576.528 1209.46 733.253 1158.84 884.511 1099.51C1038.4 1038.97 1189.05 967.491 1330.19 880.826C1385.47 847.01 1439.12 810.765 1489.95 770.268C1528.83 739.287 1566.89 705.674 1597.87 666.594C1631.49 624.274 1668.34 555.226 1612.86 513.919C1584.71 492.86 1546.65 486.785 1512.42 483.748C1459.37 479.293 1405.51 483.748 1352.86 491.038C1198.57 511.894 1047.51 557.453 901.723 611.315C859.403 626.907 817.488 643.511 775.775 660.924C768.688 663.962 771.726 675.706 779.015 672.669L778.813 672.264Z" fill="#14D7B3"/>
<g filter="url(#filter0_d_2846_1706)">
<path d="M1612.92 988.08C1679.79 576.12 1400.04 187.95 988.08 121.08C576.12 54.2092 187.95 333.96 121.08 745.92C54.2093 1157.88 333.96 1546.05 745.92 1612.92C1157.88 1679.79 1546.05 1400.04 1612.92 988.08Z" fill="url(#paint0_radial_2846_1706)"/>
</g>
<g style="mix-blend-mode:overlay">
<path d="M1342.94 463.703C1350.64 467.955 1357.93 472.815 1366.03 476.257C1374.73 480.104 1373.32 476.257 1372.71 474.435C1373.32 475.245 1373.92 476.055 1374.53 476.865C1374.73 475.447 1374.94 474.232 1377.37 473.625V473.22C1376.69 469.845 1377.5 466.808 1379.8 464.108C1379.19 467.348 1380.4 470.587 1379.59 473.827C1379.19 473.827 1378.58 474.03 1378.18 474.232C1379.19 478.889 1379.19 479.294 1378.78 480.914C1378.38 480.914 1377.77 480.914 1377.37 480.712C1379.8 483.749 1383.64 484.559 1386.48 486.989C1386.48 488.811 1384.86 498.126 1373.52 502.581C1386.88 513.92 1396.8 532.954 1410.57 559.682C1409.9 558.332 1409.49 557.387 1409.36 556.847C1409.36 556.847 1421.91 574.666 1421.91 584.183L1421.51 584.588C1417.46 582.158 1417.86 576.893 1414.83 573.856C1414.83 574.059 1414.42 574.464 1414.42 574.666C1414.83 576.286 1415.84 577.501 1416.04 579.323C1415.23 578.648 1414.56 578.311 1414.02 578.311C1414.02 580.943 1416.04 583.373 1415.03 586.005C1413.61 585.6 1410.37 582.968 1411.99 580.943C1411.59 580.538 1411.18 580.336 1410.57 580.133C1409.76 581.146 1409.36 581.753 1411.38 586.613C1409.97 586.208 1409.36 586.208 1407.33 586.208H1406.73C1404.5 586.208 1404.09 586.208 1402.68 585.398C1402.88 586.815 1403.69 590.663 1402.68 595.927C1401.26 602.002 1398.22 597.345 1397.01 595.927C1395.99 594.307 1395.39 593.295 1393.97 590.865C1394.37 592.485 1394.58 594.105 1394.98 595.927C1394.98 596.332 1394.98 596.737 1395.18 597.142C1395.79 599.977 1396.2 602.812 1396.6 605.647C1393.97 603.622 1392.75 603.217 1391.94 604.432C1391.54 605.039 1391.54 607.064 1391.54 608.076C1391.54 611.316 1391.54 612.126 1391.13 613.544C1386.68 608.481 1382.83 605.849 1377.77 604.432C1382.02 604.229 1383.84 601.597 1386.07 595.927C1388.1 590.865 1389.11 589.043 1391.54 587.22C1385.67 579.931 1367.44 587.22 1365.01 593.902C1366.63 594.51 1367.24 594.712 1368.86 595.927C1377.57 603.217 1383.03 617.593 1384.05 623.061C1385.46 630.553 1382.23 629.338 1381.42 628.73C1374.53 623.466 1371.49 615.366 1366.03 609.089C1366.03 609.089 1365.82 608.954 1365.42 608.684C1365.42 608.684 1365.22 609.089 1365.01 610.911C1364.2 608.684 1363.8 607.874 1361.17 605.242C1358.13 602.002 1357.52 600.179 1358.74 595.927C1360.56 590.258 1370.48 562.112 1388.7 572.641C1378.18 552.19 1382.83 551.987 1385.46 551.987C1390.93 551.987 1390.93 526.676 1370.68 507.44C1373.32 509.263 1376.15 510.275 1378.58 512.502C1377.77 511.152 1375.88 508.723 1372.91 505.213C1372.91 505.213 1372.91 505.213 1372.91 505.82C1372.3 506.428 1371.9 506.833 1369.06 505.82C1368.86 505.82 1347.19 494.886 1359.55 488.204C1358.13 487.596 1356.31 486.382 1355.5 485.167C1351.65 479.092 1349.62 472.41 1345.78 466.335C1344.97 465.525 1344.16 464.513 1343.35 463.703H1342.94ZM569.238 214.846C571.465 214.441 573.693 213.428 579.362 210.391C586.247 206.949 587.259 206.544 588.474 206.746C588.677 207.354 588.474 208.771 583.21 211.606C584.222 212.214 585.842 212.213 590.094 211.201C593.334 210.594 593.739 210.391 595.359 210.391C595.966 208.366 596.169 207.759 595.359 206.544C594.144 204.924 592.119 204.721 590.499 203.507C593.536 203.507 599.206 203.102 609.128 201.482C617.025 200.064 614.595 195.812 614.595 195.812C613.583 195.205 611.558 195.205 610.343 195.205C602.243 195.812 594.954 198.039 592.727 199.254C592.727 199.254 592.727 199.254 592.727 199.457C591.512 199.457 590.499 199.457 589.284 199.862C588.879 199.862 588.677 200.672 588.069 200.874C588.677 201.077 589.082 201.279 590.297 201.279C589.689 201.279 589.284 201.684 588.879 201.887C586.854 200.874 584.829 201.684 581.995 204.316C581.995 203.102 579.97 202.089 580.982 200.874C579.97 201.279 577.135 202.697 574.908 201.684C574.705 201.684 574.098 201.684 573.895 201.684C572.68 202.494 572.275 204.114 571.06 204.721C571.06 204.721 571.06 204.384 571.06 203.709C570.048 203.709 568.63 205.936 569.035 206.544C569.643 207.556 570.048 206.544 570.858 205.329C573.895 206.341 577.135 204.721 580.172 206.139C570.858 209.784 565.998 211.944 565.593 212.618C565.998 214.036 569.238 214.846 569.238 214.846ZM389.227 282.274C393.681 279.439 414.133 265.468 414.335 265.265C414.133 265.468 413.93 265.67 413.728 266.075C415.955 265.67 416.562 265.67 423.447 261.823C430.129 257.571 439.444 258.178 443.696 249.876C441.873 249.876 440.253 250.889 438.431 251.294C441.873 249.269 445.113 247.244 448.555 245.421C447.34 246.839 445.721 247.851 444.303 249.269C446.936 248.864 453.82 244.409 454.225 243.802C453.618 244.004 452.808 244.409 452.2 244.814C454.225 243.599 456.452 242.384 458.275 241.169C457.667 241.574 456.857 241.979 456.25 242.182C456.25 242.182 459.287 239.414 465.362 233.88C465.362 233.88 468.602 234.69 469.817 231.855C469.817 232.057 469.817 232.462 470.019 232.867C473.259 233.88 474.879 230.842 477.309 230.032C476.364 230.032 475.149 230.437 473.664 231.247C479.334 227.602 479.739 227.603 484.193 226.59C490.065 224.768 493.71 219.503 499.177 216.871C498.975 216.871 498.57 216.871 498.165 217.073C498.165 216.668 498.165 216.263 498.165 215.858C501.81 213.631 506.467 214.441 509.707 211.606C509.504 211.606 509.099 211.606 508.694 211.606C509.909 210.999 511.327 210.594 512.339 209.581C512.339 209.581 511.057 209.919 508.492 210.594C521.046 204.114 534.815 200.672 547.572 195.407C548.382 195.002 549.597 194.597 550.407 194.192C547.167 193.382 540.215 194.867 529.55 198.647C534.41 191.155 547.167 197.634 550.002 186.903C549.394 186.7 548.382 186.498 547.572 186.498C543.927 186.903 539.27 188.32 537.245 189.13C537.042 189.13 536.84 189.332 536.435 189.535H536.84H536.233V189.94C536.233 189.94 536.84 189.535 537.245 189.332C533.6 190.142 529.82 191.627 525.906 193.787C525.906 193.787 526.918 192.977 528.943 191.56C527.526 192.167 526.108 192.977 524.488 193.585C524.691 193.585 525.096 193.18 525.501 192.977C524.691 193.382 523.881 193.787 523.071 194.192C523.881 193.787 524.893 193.18 525.501 192.977C523.678 193.787 521.653 195.002 519.426 196.014C484.801 214.036 451.593 234.487 420.41 257.368C402.793 270.327 385.784 283.894 369.383 298.271C376.875 291.994 390.847 280.047 394.896 277.414C393.074 279.237 390.847 280.654 388.822 282.477L389.227 282.274ZM1343.55 455.401C1341.32 452.161 1339.3 449.934 1329.38 441.024C1320.47 432.925 1318.64 431.102 1317.83 428.875C1317.83 428.875 1318.04 428.47 1318.24 428.268C1319.66 428.065 1320.26 427.863 1325.12 429.483C1323.91 425.838 1322.69 423.408 1316.82 418.548C1308.11 411.461 1297.18 408.424 1288.27 401.944C1279.16 395.262 1272.07 385.948 1262.96 379.063C1259.92 376.836 1255.67 374.203 1251.82 374.203C1250.81 374.203 1250.61 374.203 1249.6 374.608C1252.43 377.848 1256.89 379.063 1259.52 382.708C1273.49 391.617 1303.86 423.61 1318.64 439.202C1331.4 452.566 1334.64 455.806 1337.48 457.831C1335.05 454.591 1333.83 452.566 1332.21 448.921C1332.89 449.056 1334.37 449.934 1336.67 451.554C1339.91 453.781 1342.74 455.806 1343.55 455.401ZM662.18 245.624C662.18 245.624 662.585 246.636 664.407 247.041C664.812 246.636 665.217 246.231 665.42 245.826C665.42 245.624 665.015 245.219 664.61 245.016C664.61 244.611 665.015 244.206 665.42 244.004C670.279 251.496 675.949 252.913 682.833 248.256C681.011 244.611 678.176 241.979 676.556 238.132C681.416 236.917 686.073 232.867 687.288 228.615C689.92 229.83 693.16 228.008 700.652 223.553C708.752 218.693 718.471 219.908 726.976 217.276C727.988 216.871 729.406 216.263 730.418 215.858C724.546 214.846 718.471 214.441 712.802 214.643C709.359 214.643 707.942 215.048 705.107 215.858C703.285 216.466 702.07 217.883 700.45 218.491C694.375 220.515 687.896 221.528 682.023 223.755C683.036 225.173 682.631 225.78 678.379 227.805C678.379 227.805 659.345 239.954 659.547 242.384C660.965 243.194 662.99 242.992 664.407 244.206C662.585 244.814 662.18 244.814 661.775 245.624H662.18ZM1340.51 582.563C1340.51 582.563 1340.51 582.766 1340.72 582.968C1340.72 582.968 1340.72 582.766 1340.31 582.563H1340.51ZM338.2 383.315C334.42 385.745 329.088 390.875 322.203 398.704C322.203 398.704 321.191 401.944 324.026 401.944C325.848 401.944 328.278 400.527 329.29 399.919C328.075 400.729 327.67 401.337 326.86 401.742C338.605 395.87 341.035 398.502 341.845 401.742C343.262 396.68 348.527 395.262 351.564 391.617C355.411 386.96 351.969 387.365 349.944 387.365C348.932 387.365 348.932 387.365 348.324 387.365C350.552 384.733 353.994 380.886 353.184 379.063C356.019 380.076 360.676 359.827 360.473 359.422C360.473 359.219 360.068 359.017 359.866 358.612C366.548 355.777 377.28 346.26 377.685 343.02C376.875 342.008 375.457 342.615 369.585 345.248C375.93 340.523 379.98 337.283 381.735 335.528C381.735 335.528 379.912 337.148 379.305 337.958C371.003 344.235 365.333 345.855 363.713 346.058C364.118 345.248 364.726 344.64 364.928 343.83C364.928 343.83 364.726 343.83 364.523 343.83C367.56 341.603 369.788 339.578 371.61 337.148C370.193 337.148 369.383 337.958 366.548 340.388C363.713 342.818 362.296 344.1 362.296 344.235C359.663 346.463 357.841 348.69 357.639 349.095C359.258 347.475 360.676 345.855 362.296 344.235C362.296 344.235 362.296 344.438 362.296 344.64C362.296 344.64 362.296 344.64 362.498 344.843C362.498 344.843 362.836 344.708 363.511 344.438C360.473 347.273 359.056 349.905 359.056 349.905C359.866 350.107 360.271 349.702 360.878 348.488C360.878 348.488 360.878 348.69 360.878 348.893C361.486 348.893 361.688 348.892 363.713 347.678C363.713 347.678 352.576 357.194 351.766 357.802C351.766 357.802 358.246 354.157 360.473 352.335C359.393 353.415 357.234 355.305 353.994 358.004C353.994 358.004 354.804 357.195 355.209 356.992C352.239 359.017 349.809 361.042 347.919 363.067C349.134 362.257 349.944 361.649 351.361 360.434C350.551 361.244 348.729 363.067 347.919 365.092C348.324 365.092 349.134 365.092 354.804 359.827C350.349 364.687 349.539 365.699 349.337 367.521C349.944 368.129 349.944 368.129 352.779 368.331C350.349 370.154 347.109 373.596 346.502 375.621C346.502 375.621 346.502 375.621 346.704 375.823C346.907 375.823 347.109 375.823 347.312 375.621C344.072 379.063 342.655 380.076 338.2 383.113V383.315ZM1382.02 448.516C1382.02 448.516 1381.62 446.694 1380.61 444.467C1380.61 444.467 1380.61 444.467 1380.61 444.264C1380.61 444.264 1380.61 444.264 1380.61 444.467C1380.61 445.074 1380.4 446.086 1380.61 447.099C1380.61 447.099 1380.2 446.896 1380 446.896C1380.61 447.504 1382.02 449.326 1382.23 448.516H1382.02ZM420.207 276.402C418.587 276.807 416.765 275.997 414.942 276.807C412.715 277.819 411.298 278.832 408.463 281.262C410.083 279.642 410.488 279.034 410.488 278.427C409.678 278.022 405.831 280.047 400.566 284.097C409.07 276.604 409.88 275.39 410.488 274.377C410.488 274.377 410.488 274.377 410.285 274.377C409.07 275.187 407.248 276.807 404.818 278.832C405.223 278.224 405.223 278.022 405.426 277.819C405.021 277.819 404.818 277.819 400.566 281.464C400.566 281.464 400.566 281.262 400.566 281.059C400.363 281.059 400.161 281.059 397.326 282.882C397.326 282.882 397.529 282.882 397.731 282.882C397.731 283.287 397.731 283.692 397.731 284.097C397.731 284.097 397.731 284.097 397.934 284.097C397.529 284.299 397.124 284.704 396.719 284.906C396.516 285.311 396.516 285.311 396.516 285.514C396.516 285.514 390.239 287.944 390.442 289.564C390.644 289.564 390.846 289.564 391.251 289.564C381.735 296.448 385.987 297.461 385.987 297.461C387.607 297.866 394.491 295.841 400.971 291.791C402.388 290.981 404.008 289.766 405.223 288.956C407.45 287.336 409.273 285.109 411.703 283.894C411.703 283.894 411.5 283.894 411.298 283.894C411.5 283.287 412.108 282.072 419.397 276.2L420.207 276.402ZM1341.12 583.373C1341.12 583.373 1341.12 583.171 1340.92 582.968C1340.92 582.968 1341.12 583.17 1341.32 583.373H1341.12ZM365.941 301.308L365.333 301.915C366.751 300.701 368.168 299.486 369.788 298.068C368.168 299.486 366.751 300.498 365.941 301.308ZM801.896 201.482C804.731 200.672 807.161 200.469 812.02 200.064C808.578 200.469 807.768 201.279 807.161 202.494C812.425 204.316 816.88 207.556 822.55 208.569C827.207 209.379 830.042 207.556 831.257 206.949C831.459 206.746 832.472 206.139 833.484 204.924C833.484 204.924 832.944 204.721 831.864 204.316C830.042 203.709 830.244 203.102 831.864 201.887C826.195 201.887 823.765 200.874 820.727 199.254C817.285 197.432 814.45 196.622 808.376 196.622C806.148 196.622 804.731 196.622 802.706 197.027C803.111 198.444 803.111 200.064 800.074 199.659C802.301 200.064 803.516 200.267 805.541 200.469C803.111 200.469 801.693 200.469 799.669 200.267C800.074 200.672 801.289 202.089 802.301 201.887L801.896 201.482ZM992.842 221.933C992.842 221.933 992.437 221.933 992.032 221.933C993.854 222.135 995.676 221.933 997.701 222.338C1004.18 223.148 1010.26 225.173 1016.74 225.983C1020.99 226.388 1023.82 225.983 1024.63 225.173C1024.02 223.755 1013.09 221.933 1013.09 221.933C1010.46 221.73 1007.83 220.92 1004.99 220.515C1000.13 220.718 996.284 216.871 991.424 217.073C990.007 217.073 989.804 217.681 989.804 218.086C990.614 219.503 992.437 220.313 993.044 221.73L992.842 221.933ZM838.344 210.189C846.241 210.189 851.101 208.366 853.53 207.354C853.733 207.354 854.138 206.949 854.543 206.949C851.708 204.519 845.026 202.089 840.774 202.089C835.306 202.494 834.699 208.164 836.319 209.581C837.129 210.189 837.939 210.189 838.141 210.189H838.344ZM1048.73 224.565V224.16C1043.06 220.718 1038.6 219.301 1032.73 219.503C1030.3 219.503 1028.68 219.908 1026.05 221.123C1026.66 221.123 1028.48 221.528 1031.72 222.743C1037.79 224.768 1047.11 228.007 1048.73 224.768V224.565ZM1369.67 423.003C1369.67 423.003 1369.67 422.598 1369.47 422.193C1368.86 421.181 1367.04 418.953 1366.23 418.548C1366.23 418.548 1367.44 420.776 1368.25 421.586C1368.66 421.99 1369.67 423.205 1369.87 422.8L1369.67 423.003ZM1375.95 435.152C1375.95 435.152 1375.95 435.152 1375.95 434.95C1375.95 434.747 1375.34 434.342 1374.73 434.14C1374.73 435.355 1375.75 435.355 1375.95 435.152ZM1381.42 454.793C1381.42 454.793 1381.42 454.591 1381.42 454.388C1381.42 454.388 1381.15 454.388 1380.61 454.388C1380.61 454.388 1379.8 455.401 1380 456.818C1380 456.818 1380 456.413 1379.8 456.413C1379.8 456.413 1379.8 456.818 1381.82 460.868C1382.63 460.261 1383.64 459.046 1381.62 454.793H1381.42ZM1377.97 438.797C1377.97 438.797 1378.38 438.797 1378.38 438.392C1377.97 437.784 1377.37 437.38 1376.96 437.38C1376.76 437.38 1377.57 438.797 1377.97 438.999V438.797ZM687.896 199.254L691.743 200.267C692.958 200.267 693.97 200.267 694.375 200.267C694.375 199.862 694.375 199.659 693.97 199.457C694.173 199.457 694.578 199.457 694.983 199.254C697.278 200.199 700.72 199.659 705.31 197.634C705.849 199.254 710.169 198.647 718.269 195.812C718.269 195.812 717.864 196.419 717.864 196.622C717.054 197.432 717.054 197.432 716.851 197.837C717.054 197.837 717.864 197.837 719.079 197.432L719.484 196.622C719.686 195.407 719.686 195.407 719.484 195.002C718.066 194.395 717.661 194.395 714.016 194.597C714.421 194.192 715.231 193.585 715.636 193.18C713.207 193.18 711.182 194.395 708.752 194.395C708.752 194.395 708.752 195.407 711.182 195.407C709.764 195.812 708.347 196.217 706.929 196.622C706.929 196.622 704.905 196.622 699.64 198.039C699.64 198.039 699.64 198.444 699.64 198.647C698.83 198.647 698.02 198.647 697.008 198.647C698.627 198.242 699.64 197.837 700.855 197.229C698.83 196.622 697.615 196.419 695.185 196.419C696.4 196.419 698.222 195.812 699.437 195.407C701.057 195.812 704.5 196.622 704.905 195.205C704.905 195.205 704.702 194.8 704.5 194.8C703.487 194.597 702.475 194.8 701.462 194.192C698.83 192.977 698.627 192.977 698.222 193.18C698.222 193.18 698.29 193.652 698.425 194.597C694.983 195.205 691.743 196.824 688.098 196.419L687.491 196.824C687.491 196.824 687.491 197.229 687.491 197.634C687.288 197.634 687.086 197.837 686.073 197.634C686.073 198.039 686.073 198.039 686.073 198.647C686.073 198.647 686.073 198.647 685.871 198.647C684.858 198.444 683.441 198.242 681.214 198.444C681.214 199.052 681.214 199.457 681.214 200.267C685.128 200.132 687.153 200.132 687.288 200.267L687.896 199.254ZM1371.9 427.053C1371.9 427.053 1371.29 426.445 1371.29 426.243C1371.29 426.243 1371.29 427.053 1372.3 428.673C1372.51 428.268 1372.51 427.66 1372.3 427.053H1371.9ZM662.787 198.242C664.407 198.039 667.242 197.634 670.482 197.837C669.132 198.107 668.389 198.242 668.254 198.242C668.254 198.242 668.254 198.242 668.254 198.444C666.837 198.849 666.027 198.849 664.812 198.849C665.419 200.469 667.647 200.469 672.912 199.254C672.507 199.254 672.102 199.659 671.697 199.659C672.304 199.659 672.709 199.659 673.114 199.659C672.709 200.267 671.697 201.279 673.924 201.077C675.139 201.077 677.164 200.267 677.771 200.064C677.771 200.064 677.974 200.064 678.176 200.064C676.556 199.457 675.139 199.254 673.317 199.659C674.126 199.659 674.531 199.254 675.341 198.849C675.341 198.849 674.936 198.849 674.734 198.849C676.354 198.444 677.974 198.039 679.594 197.634C679.594 196.622 679.391 194.8 673.721 194.8C669.672 195.002 665.42 196.014 660.762 197.837C661.572 197.837 661.977 198.039 662.382 198.039L662.787 198.242ZM1309.73 1469.86C1307.3 1471.28 1304.87 1472.7 1302.24 1474.12C1307.24 1470.61 1309.87 1468.58 1310.14 1468.04C1310.14 1468.04 1308.72 1468.45 1308.11 1468.65C1294.55 1476.14 1282.4 1485.66 1268.02 1491.93C1254.66 1497.87 1246.15 1501.86 1242.51 1503.88C1231.57 1509.96 1230.56 1511.58 1230.36 1512.39C1235.22 1514.41 1290.9 1482.82 1305.68 1472.7C1306.9 1471.89 1308.52 1470.88 1309.53 1470.07L1309.73 1469.86ZM1302.65 1475.33C1306.29 1475.13 1337.48 1454.07 1348.21 1445.16C1348.21 1445.16 1348.61 1444.96 1348.81 1444.75C1346.38 1445.56 1344.97 1447.79 1342.74 1448.6C1343.28 1447.93 1347.87 1443.81 1356.51 1436.25C1354.48 1437.87 1352.46 1439.29 1350.43 1440.91C1351.45 1440.1 1352.26 1439.09 1353.27 1438.28C1340.31 1449.21 1303.25 1474.93 1302.85 1475.33H1302.65ZM1373.11 1419.65C1366.84 1424.91 1361.17 1430.58 1355.09 1436.05C1355.9 1435.64 1356.51 1435.04 1357.32 1434.43C1357.32 1434.63 1356.91 1435.04 1356.51 1435.24C1362.58 1429.57 1368.46 1423.9 1374.73 1418.43C1374.33 1418.84 1373.52 1419.24 1373.11 1419.44V1419.65ZM311.471 400.122C313.294 399.312 323.621 394.452 339.415 375.013C341.035 372.989 346.097 366.914 342.654 367.116C342.452 367.116 342.25 367.116 341.845 367.116C335.567 369.141 331.315 374.406 325.443 377.038C324.431 379.873 323.418 381.088 320.988 382.505C322.203 383.923 319.976 386.353 314.509 391.82C311.471 394.655 302.562 403.564 311.269 399.919L311.471 400.122ZM1255.27 1428.76C1255.27 1428.76 1255.06 1428.96 1254.86 1429.16C1254.86 1429.16 1255.06 1429.16 1255.27 1428.96V1428.76ZM1410.78 1334.6C1410.78 1334.6 1411.59 1333.59 1411.99 1333.18C1411.99 1333.18 1411.18 1334.2 1410.78 1334.6ZM1356.51 1435.24C1355.29 1436.25 1354.28 1437.26 1353.07 1438.48C1354.48 1437.26 1355.7 1436.25 1356.51 1435.24ZM1242.31 1470.88C1240.48 1470.88 1238.66 1470.47 1236.84 1470.67C1235.02 1470.67 1231.17 1470.88 1224.69 1475.13C1217.2 1479.99 1210.92 1486.47 1204.04 1491.73C1212.54 1490.31 1213.55 1489.5 1223.47 1483.02C1232.79 1476.75 1240.08 1471.89 1241.9 1471.08C1241.9 1471.08 1242.31 1471.08 1242.51 1471.08L1242.31 1470.88ZM600.624 676.517C602.851 676.922 603.458 676.517 603.458 676.517C603.661 676.112 602.851 675.707 601.838 675.707C601.029 675.707 600.623 676.112 600.421 676.517H600.624ZM309.852 511.692C309.649 513.11 309.244 514.325 307.827 518.375C305.397 525.664 301.145 537.813 304.789 535.586C308.029 533.561 313.901 523.437 316.736 517.362C320.178 509.668 318.154 509.87 317.546 509.87C317.141 509.87 315.724 510.275 312.484 512.097C310.054 513.515 310.054 513.312 309.852 511.692ZM226.022 535.383C226.022 535.383 226.022 535.383 226.224 535.181C226.224 535.181 226.224 535.181 226.022 535.383ZM316.939 507.44C317.951 505.82 321.393 501.163 324.836 493.874C326.051 491.444 326.86 489.216 327.265 488.406C327.063 488.406 326.658 488.609 326.455 488.811C321.798 492.051 317.344 500.353 317.546 500.961C315.926 504.403 315.926 505.82 316.939 507.44ZM1352.46 899.253C1352.86 893.786 1350.84 890.344 1349.83 888.319C1349.83 888.522 1349.42 888.927 1349.42 889.332C1348 892.369 1345.98 897.634 1346.59 898.848C1346.99 898.848 1347.4 898.646 1348.81 896.621C1342.54 907.353 1335.45 918.287 1334.84 919.3L1334.03 920.515C1331.81 924.159 1330.79 926.387 1329.17 930.639C1338.49 925.779 1351.65 912.213 1352.66 899.456L1352.46 899.253ZM1395.18 1022.77C1395.59 1021.35 1395.39 1019.53 1395.18 1018.11C1393.97 1018.32 1392.35 1018.72 1391.13 1018.92C1380.2 1021.15 1369.06 1021.76 1358.13 1024.39C1355.09 1025.2 1352.86 1026.42 1351.45 1028.44C1350.64 1029.66 1350.03 1030.87 1349.62 1031.88C1347.19 1037.35 1346.18 1043.22 1344.36 1048.69C1340.92 1059.22 1332.62 1067.52 1329.38 1078.25C1326.14 1088.98 1328.77 1100.32 1326.95 1111.26C1330.59 1110.04 1333.22 1110.04 1336.46 1111.26C1336.46 1111.06 1342.54 1081.29 1347.4 1076.43C1349.62 1079.67 1350.03 1080.07 1348.81 1090C1347.19 1103.77 1354.48 1101.13 1356.1 1100.53C1355.5 1101.94 1353.67 1106.4 1354.28 1111.46C1354.48 1111.46 1354.89 1111.87 1355.09 1111.87C1359.55 1109.84 1363.19 1098.5 1362.99 1094.45C1361.37 1095.06 1360.36 1095.67 1358.74 1096.88C1360.56 1085.54 1355.7 1075.01 1355.29 1063.88C1362.38 1072.79 1366.23 1051.73 1374.73 1049.7C1365.62 1048.08 1356.31 1053.35 1347.19 1049.09C1343.55 1047.47 1345.17 1044.64 1352.46 1039.17C1360.56 1033.5 1365.42 1034.11 1375.34 1035.33C1384.05 1036.34 1384.65 1035.73 1388.3 1032.29C1387.89 1032.9 1387.29 1033.71 1386.88 1034.11C1391.74 1028.31 1394.44 1024.59 1394.98 1022.97L1395.18 1022.77ZM1411.38 1077.24C1407.33 1077.44 1401.46 1079.67 1406.32 1083.92C1406.93 1084.53 1407.74 1084.93 1408.35 1085.34C1408.14 1085.54 1408.14 1085.54 1407.94 1085.74C1407.94 1085.74 1408.14 1085.74 1408.35 1085.34C1415.43 1089.19 1422.52 1089.59 1424.54 1086.15C1425.96 1083.72 1423.94 1081.49 1423.53 1081.29C1423.53 1082.1 1424.34 1083.11 1424.75 1083.92C1420.9 1077.44 1412.8 1077.24 1411.18 1077.24H1411.38ZM1375.34 1049.7C1375.14 1049.7 1374.94 1049.5 1374.73 1049.5C1374.73 1049.5 1375.14 1049.5 1375.34 1049.7ZM1370.68 900.468C1372.3 904.316 1379.39 898.038 1379.39 897.836C1380.61 896.621 1381.21 895.609 1381.42 894.394C1381.42 892.774 1381.01 891.964 1378.99 889.737C1374.73 884.877 1373.52 883.257 1372.91 882.042C1372.71 882.042 1372.51 882.042 1372.1 881.232C1372.1 881.232 1372.1 881.232 1372.1 881.435C1372.1 882.245 1372.1 882.852 1371.49 885.687C1370.89 890.344 1369.67 897.836 1370.89 900.468H1370.68ZM1348.41 1143.86L1352.05 1144.87C1352.05 1144.87 1352.05 1145.28 1351.85 1145.48C1350.64 1145.88 1349.02 1146.09 1348 1146.29C1348 1146.29 1349.08 1146.9 1351.24 1148.11H1351.65C1354.08 1147.1 1356.51 1145.88 1358.94 1145.07C1358.94 1145.48 1358.53 1145.88 1358.33 1146.29C1359.34 1146.29 1360.56 1145.88 1361.37 1145.48C1362.38 1144.87 1362.38 1143.45 1363.19 1142.85C1363.19 1142.85 1363.6 1142.64 1363.8 1142.44C1363.8 1142.44 1363.39 1142.44 1363.19 1142.44C1362.18 1142.44 1360.96 1142.85 1359.95 1142.44C1357.52 1142.64 1356.31 1142.85 1354.89 1143.45C1352.05 1140.21 1348 1143.45 1348 1143.45C1340.92 1141.43 1329.58 1142.24 1323.91 1143.45C1320.06 1144.06 1316.82 1146.49 1312.97 1147.1C1310.14 1147.5 1307.51 1146.49 1304.67 1146.09C1305.28 1147.1 1305.68 1147.5 1306.9 1147.91C1304.47 1149.73 1303.46 1148.31 1301.64 1145.88C1297.18 1145.88 1295.56 1146.49 1294.35 1147.1C1292.93 1142.85 1290.7 1141.83 1289.89 1141.83C1286.04 1143.05 1288.68 1146.49 1292.52 1151.55H1292.73C1299.21 1153.17 1305.68 1150.14 1312.16 1151.35C1310.34 1146.49 1334.64 1149.33 1335.05 1149.33C1335.05 1149.33 1334.84 1149.73 1334.64 1149.93C1339.3 1148.11 1343.55 1145.48 1348.41 1144.06V1143.86ZM1227.32 1136.97H1227.52C1213.96 1134.14 1205.66 1131.3 1192.7 1125.43C1199.58 1123.41 1204.44 1117.94 1211.12 1115.31C1222.06 1113.69 1228.74 1125.03 1239.27 1124.62C1248.38 1124.22 1256.89 1120.17 1266.2 1120.98C1266.81 1120.98 1267.62 1120.98 1268.22 1121.18C1274.5 1122.39 1275.11 1125.43 1275.92 1128.06C1272.48 1130.49 1268.43 1132.32 1263.36 1130.29C1266 1134.54 1266.4 1135.35 1274.7 1136.57C1287.26 1138.59 1285.84 1143.45 1285.23 1144.87C1285.23 1145.07 1284.83 1145.48 1284.63 1145.68C1283.01 1147.5 1274.91 1150.74 1274.91 1142.64C1273.49 1148.31 1261.74 1145.48 1227.32 1136.77V1136.97ZM1228.13 1136.97C1228.13 1136.97 1229.55 1136.97 1229.75 1136.97C1229.75 1136.97 1227.52 1136.77 1227.32 1136.97C1227.32 1136.97 1227.32 1136.97 1228.13 1137.38V1136.97ZM1380 1143.25C1380.61 1141.83 1379.19 1142.04 1377.77 1142.24C1358.33 1146.69 1346.18 1163.3 1342.94 1169.37C1344.16 1168.97 1346.79 1168.16 1355.5 1163.5C1363.39 1159.04 1378.18 1147.3 1380 1143.45V1143.25ZM1301.64 1087.16C1301.64 1087.16 1308.92 1084.93 1303.05 1092.02C1304.87 1090 1306.9 1087.16 1308.11 1084.73C1311.56 1078.05 1310.75 1069.95 1313.99 1063.27C1318.04 1054.97 1325.53 1049.09 1329.17 1040.39C1331.81 1034.52 1331.6 1031.88 1331.2 1027.63C1336.06 1033.71 1338.08 1030.06 1338.69 1028.44C1340.31 1023.99 1339.91 1015.28 1328.16 998.472C1329.24 999.147 1330.12 999.62 1330.79 999.89C1330.79 999.89 1330.79 999.485 1327.15 993.41C1328.77 993.41 1333.83 993.41 1332.41 988.146C1332.41 988.146 1332.82 988.55 1332.82 988.753C1332.82 988.753 1333.22 988.55 1333.43 988.55C1333.43 987.943 1333.43 986.323 1332.41 983.488C1336.46 987.133 1338.89 982.476 1338.69 979.439C1338.69 978.629 1338.08 977.414 1337.68 976.604C1338.89 975.186 1350.03 962.632 1343.75 962.43C1341.53 962.43 1337.48 964.252 1335.65 965.062C1336.73 964.387 1337.41 963.712 1337.68 963.037C1337.95 962.362 1336.33 962.362 1332.82 963.037C1336.67 954.33 1330.19 950.28 1328.57 950.28C1327.35 950.685 1327.15 950.888 1326.34 951.9C1326.34 951.698 1326.34 951.293 1326.34 951.09C1326.34 951.09 1314.59 951.698 1310.14 980.653C1309.94 978.021 1309.53 977.414 1307.91 975.794C1305.68 980.046 1304.67 982.678 1303.66 987.336C1299.81 986.526 1301.23 981.058 1297.38 980.046C1292.93 992.195 1273.08 1009 1270.25 1004.75C1270.25 1004.75 1270.25 1004.34 1270.05 1004.14C1267.41 1010.42 1266.4 1014.67 1266 1021.35C1262.15 1018.32 1253.24 1019.73 1253.85 1012.85C1246.96 1019.73 1244.13 1022.37 1245.14 1036.34C1245.14 1036.74 1251.42 1082.1 1259.11 1082.71C1261.54 1082.71 1263.57 1079.06 1264.78 1077.24C1266.2 1084.93 1282.8 1085.74 1287.66 1083.11C1285.03 1093.84 1296.37 1089.59 1301.43 1087.36L1301.64 1087.16ZM1275.11 742.123C1275.11 742.123 1274.7 742.731 1274.5 742.933C1274.7 742.731 1274.91 742.528 1275.11 742.123ZM1335.25 715.8C1338.49 710.13 1339.5 707.903 1338.89 705.473C1338.89 705.473 1338.89 705.068 1338.69 704.865C1339.3 705.878 1340.11 707.295 1340.31 710.535C1340.51 714.787 1339.5 720.052 1338.49 724.507C1336.67 733.214 1335.86 737.871 1337.27 742.326C1335.65 740.301 1334.03 738.681 1332.41 737.466C1332.41 737.466 1332.62 737.466 1332.82 737.668C1332.82 737.668 1332.48 737.331 1331.81 736.656C1331.81 736.656 1332.41 737.061 1332.62 737.061C1327.76 731.189 1329.58 725.317 1335.05 715.395L1335.25 715.8ZM1334.44 739.086L1333.22 737.871L1334.24 738.681H1334.64L1334.44 739.086ZM1339.7 745.565C1338.89 744.553 1338.08 743.338 1337.27 742.326C1337.68 743.136 1338.29 744.351 1339.7 745.363V745.565ZM1194.11 1123.81C1193.71 1123.2 1193.3 1123 1193.1 1123C1193.1 1123.2 1193.51 1124.22 1194.11 1123.81ZM1109.68 821.498C1109.68 821.498 1108.66 819.878 1108.06 819.068C1099.28 824.738 1093.68 825.953 1091.25 822.713C1085.99 815.829 1084.57 805.502 1083.96 800.44C1080.92 778.976 1063.51 766.422 1053.18 749.21C1051.97 747.185 1050.55 744.351 1049.34 742.528C1048.12 740.503 1046.3 738.073 1044.88 736.251C1043.06 736.251 1040.63 736.656 1038.81 736.656C1038 742.596 1036.44 746.915 1034.15 749.615C1033.14 748.198 1031.92 745.97 1031.11 744.351C1030.3 745.768 1028.68 747.388 1027.26 748.4C1025.64 747.995 1023.21 747.59 1021.39 747.793C1020.78 748.603 1019.97 749.615 1019.37 750.223C1018.76 749.615 1017.95 748.805 1017.34 748.198C1016.74 748.603 1015.72 749.21 1015.12 749.615C1013.9 748.4 1013.09 746.173 1012.89 744.553C999.119 776.344 962.671 788.695 948.699 820.283C935.335 850.656 944.245 885.687 929.058 915.857C926.831 920.312 923.996 926.994 919.541 929.627C902.127 940.156 822.955 797.2 847.658 749.615C846.848 749.008 845.836 748.4 845.026 747.793C845.026 746.173 844.418 743.946 843.811 742.326C843.001 742.123 841.989 741.718 841.179 741.516C841.584 742.528 842.596 743.743 842.799 744.958C845.026 753.665 833.281 762.777 826.397 761.764C813.64 759.942 816.07 744.755 807.161 739.693C816.07 738.681 817.083 736.049 818.095 733.416C810.401 733.821 803.921 732.606 793.594 724.709C777.8 711.345 775.573 703.043 774.965 700.411C746.414 685.022 713.814 710.333 685.466 691.704C682.631 689.881 678.986 687.249 676.151 685.629C662.787 677.732 647.196 686.439 633.831 679.96C616.823 671.86 618.442 647.157 599.409 640.879C598.194 640.474 596.574 640.677 595.561 640.475C595.561 640.475 591.512 645.334 584.627 649.789C591.309 651.409 592.322 653.029 595.156 666.19L615.405 709.725C626.542 722.077 667.242 721.064 669.064 687.654C676.759 695.956 670.482 707.903 676.759 716.61C683.036 725.317 696.198 723.089 702.07 732.606C703.892 735.644 704.095 740.706 703.487 744.148C701.26 755.285 685.668 785.051 642.741 819.271C641.931 819.878 558.304 885.687 539.675 867.868L470.424 686.034C469.614 684.009 468.602 681.174 467.792 679.15C463.337 665.785 464.349 658.091 465.564 648.979C457.06 660.318 457.262 664.368 457.465 672.265C449.163 660.723 446.328 654.244 445.316 643.107C436.811 657.888 436.001 669.025 453.01 699.398C461.65 714.652 472.449 745.498 485.408 791.935C493.71 821.498 502.417 837.495 516.591 848.429C523.273 853.694 535.828 863.211 538.46 869.893C542.105 878.397 538.257 881.435 531.373 886.902C554.861 895.811 569.575 899.388 575.515 897.634C606.158 888.454 621.615 884.674 621.885 886.294C622.29 888.319 629.984 936.511 556.886 1028.04C484.598 1118.75 538.257 1169.37 538.865 1169.78C538.865 1170.79 538.662 1172.41 538.46 1173.42C539.675 1191.24 551.217 1206.02 552.229 1223.84C553.444 1246.11 528.133 1250.16 522.058 1267.38C514.364 1289.65 541.902 1303.01 536.637 1324.68C534.815 1332.78 527.93 1337.64 524.488 1340.47C535.22 1350.6 545.142 1360.11 531.778 1395.55C518.819 1429.77 488.85 1421.27 488.648 1421.06C482.776 1418.43 413.323 1344.52 410.285 1341.28C388.619 1318.2 343.059 1249.35 342.857 1248.95C330.505 1225.26 333.745 1197.52 323.216 1173.42L322.203 1171.19C322.203 1171.19 294.867 1125.43 300.335 1114.3C282.718 1105.59 247.283 1062.46 260.85 1038.16C245.663 1021.56 261.66 995.03 242.018 979.843C241.208 980.653 240.196 981.463 239.588 982.273C238.576 981.868 237.361 981.463 236.349 981.058C235.134 982.476 232.704 983.893 230.881 984.298C212.658 966.074 200.981 958.852 195.851 962.632C159.201 989.765 154.746 979.236 147.254 962.025C147.254 961.62 129.638 911.605 125.183 841.95C123.361 813.601 134.7 786.468 133.89 758.12C133.89 759.132 133.485 760.55 133.282 761.562C137.535 701.626 201.723 596.535 202.331 595.725C212.253 581.348 216.707 575.881 219.542 574.666C223.389 573.046 226.224 576.488 229.464 577.096C232.501 577.703 233.716 577.096 245.865 568.996C257.002 561.302 261.255 559.074 267.734 557.455C269.624 557.05 280.086 556.105 299.12 554.62C305.599 554.62 309.649 554.417 303.777 567.781C299.525 577.096 292.235 584.993 291.02 595.725C293.855 615.164 340.427 652.016 349.134 624.073C353.184 611.114 358.044 608.279 361.486 608.279C362.903 608.279 364.928 608.279 366.346 608.279C380.52 610.911 389.024 624.073 402.591 627.515C415.753 630.958 427.294 620.023 440.456 623.061C441.468 625.085 442.886 627.515 444.303 629.338C463.742 626.908 472.246 609.696 478.929 595.725C491.888 567.781 487.433 562.112 485.611 561.099C485.611 561.099 453.82 561.909 446.936 562.517C433.369 563.327 425.472 560.694 423.042 559.884C423.447 559.074 424.054 558.062 424.459 557.252C422.435 556.645 419.6 556.24 417.575 556.24C418.587 550.975 417.98 545.508 420.41 540.446C411.905 531.334 424.054 523.234 422.84 514.325C416.967 510.275 411.905 508.858 404.616 513.515C404.616 515.54 405.021 518.577 405.831 520.399C404.008 520.399 401.376 520.804 399.553 521.209C399.553 522.222 399.149 523.437 398.946 524.449C398.136 522.222 396.516 519.589 395.301 517.565C393.074 527.284 400.363 535.991 398.946 545.71C398.339 544.9 397.529 543.888 397.124 542.875C397.124 544.698 396.111 547.128 394.896 548.343C393.479 547.33 390.847 546.52 389.227 546.723C389.834 547.533 390.644 548.748 391.454 549.558C390.037 550.975 388.012 552.595 386.392 553.81C386.392 556.037 385.987 559.277 385.784 561.504C384.974 562.112 383.759 562.719 382.949 563.327C370.395 555.025 378.09 545.305 380.52 542.066C378.495 542.066 374.243 541.661 373.028 535.586C371.61 528.499 374.04 517.362 374.04 517.16C376.672 505.415 368.37 496.303 366.751 485.572C366.346 482.737 364.321 479.294 364.118 476.46C363.916 474.03 364.928 470.385 366.346 468.36C365.941 467.348 365.333 466.133 364.928 465.323C364.118 465.728 362.903 466.133 361.891 466.335C361.081 465.93 359.866 465.323 359.056 464.918C349.742 471.6 346.299 474.03 347.717 487.596C349.134 501.366 362.701 509.06 364.928 522.424C360.473 524.044 356.424 521.209 352.171 521.412C352.171 521.412 350.956 538.826 343.059 548.14C336.58 547.33 332.125 553.81 325.646 553.607C320.381 544.495 337.592 544.495 342.047 538.218C355.816 518.982 335.567 484.154 335.365 483.749C328.48 472.612 316.939 483.749 307.624 483.749C307.624 483.749 307.624 483.749 305.194 483.749C305.194 483.749 275.024 507.845 259.432 534.978C248.903 553 238.171 563.529 226.022 566.972C221.567 563.732 222.174 558.265 219.542 554.215C218.53 554.417 217.315 554.822 216.505 555.025C220.555 545.71 223.659 539.096 225.819 535.181C225.819 535.181 225.414 535.788 225.212 535.991C241.276 501.973 256.125 485.234 269.759 485.774C280.491 486.179 307.219 453.376 296.892 435.355C302.967 431.507 303.372 431.507 312.686 429.078C318.761 413.688 383.759 377.646 384.367 377.443C384.974 378.051 385.987 378.861 386.594 379.671C393.681 371.976 397.934 362.054 405.021 354.36C406.236 353.145 407.855 351.727 409.07 350.715H409.475C414.943 346.058 417.17 345.653 420.41 345.248C414.942 351.12 411.095 358.409 404.211 362.864C405.223 362.864 406.641 362.864 407.855 362.662C405.561 366.171 402.928 368.061 399.958 368.331C400.363 367.319 400.971 365.901 401.376 364.889C397.731 370.761 398.136 371.166 399.958 374.608C399.958 374.608 405.628 374.001 413.525 373.393C412.715 374.001 411.703 374.608 410.893 375.216C411.298 376.026 412.108 377.241 412.513 378.253C412.715 378.253 442.278 375.621 448.555 371.571C457.87 357.599 465.767 348.69 472.246 344.64C473.866 345.653 475.689 347.475 476.701 349.095C487.231 347.88 484.801 336.338 490.47 331.276C492.9 329.116 503.902 327.429 523.476 326.214C523.071 324.999 522.666 323.379 522.463 322.367C521.451 321.759 520.034 321.152 519.021 320.544C519.021 319.937 518.819 318.924 518.616 318.317C501.067 321.422 490.673 322.434 487.433 321.354C492.698 313.255 505.387 301.443 525.501 285.919C513.351 277.212 509.909 287.741 508.694 290.981C467.792 306.775 469.817 319.329 470.829 325.201C441.536 350.715 423.312 363.674 416.157 364.079C416.562 362.864 416.967 361.447 417.372 360.434C411.433 366.509 407.653 370.221 406.033 371.571C406.033 371.571 404.008 370.559 403.198 370.356C406.843 369.006 409.003 366.104 409.678 361.649C421.827 364.079 429.724 339.578 432.964 329.251C423.852 336.541 420.005 338.768 412.715 341.4C411.905 340.793 410.893 340.186 410.083 339.578C410.69 336.338 412.918 333.503 412.918 329.859C420.41 322.974 424.662 312.647 434.584 308.193C441.266 305.155 442.076 304.75 447.746 301.915C463.944 294.018 478.321 283.084 493.913 274.175H494.318C501.405 269.517 503.025 268.505 504.644 267.088C505.049 266.683 505.454 266.278 506.062 265.67C503.834 266.278 501 266.683 498.772 266.885C504.442 263.443 511.124 261.62 516.996 258.381C516.389 259.191 515.579 260.001 514.971 260.811C522.463 260.203 528.133 254.736 535.22 252.711C535.22 253.723 535.22 254.938 535.22 255.748C540.35 254.398 543.32 253.318 544.13 252.509C545.142 252.509 546.559 252.913 547.572 253.116C550.407 249.269 551.014 248.661 557.899 246.231C558.709 246.636 559.924 247.446 560.733 247.851C558.911 249.066 556.481 250.686 554.659 251.901C561.138 248.864 567.618 247.851 570.25 247.446C569.44 248.054 568.428 248.661 567.618 249.269C568.833 248.864 570.25 248.459 571.263 248.054C572.275 248.661 573.49 249.269 574.503 249.876C572.275 250.686 569.44 251.699 567.213 252.306C574.098 252.711 577.945 252.981 578.755 253.116C578.755 253.116 579.16 255.141 579.362 256.153C596.574 259.798 603.053 261.215 604.876 265.67C607.306 271.542 596.979 278.629 592.119 279.642C582.805 281.464 575.92 274.175 567.416 273.162C571.06 287.741 574.908 294.558 578.957 293.613C578.552 291.589 577.54 289.159 576.528 287.539C589.082 287.134 598.396 276.402 611.355 276.807C611.963 277.617 612.773 278.629 613.38 279.237C616.62 272.082 618.51 267.29 619.05 264.86C619.05 264.86 617.835 263.038 617.43 262.228C625.732 257.976 630.187 259.596 630.389 267.29C623.1 267.493 621.682 267.898 620.67 273.365C637.881 274.782 649.828 258.786 666.837 260.001C665.217 261.215 662.99 263.038 661.37 264.253C686.883 263.038 690.73 261.013 695.388 258.583C695.388 258.583 692.148 256.086 685.668 251.091C713.747 259.461 728.326 263.51 729.406 263.24C724.141 257.773 721.914 252.508 722.926 248.054C724.343 240.764 733.86 240.157 735.683 232.867C737.708 232.867 740.34 233.677 742.162 234.285C742.162 234.285 742.162 234.285 742.77 234.285C743.782 234.69 744.997 235.095 745.807 235.297C750.262 244.814 748.439 255.748 753.299 265.063C750.667 271.947 750.464 272.757 741.15 276.604C762.816 275.187 760.386 266.683 759.171 262.228C768.283 257.571 773.143 267.088 780.432 268.707C770.51 260.203 756.741 256.356 749.857 244.004C752.962 241.979 754.986 239.279 755.931 235.904C755.931 235.904 757.754 237.322 758.564 237.727C758.564 240.157 758.969 243.397 759.576 245.826C760.926 246.501 765.516 247.109 773.345 247.649C772.535 246.569 769.363 244.611 763.828 241.777C763.828 241.777 766.056 242.384 766.866 242.587C767.676 241.979 768.486 241.169 769.296 240.562C768.486 239.954 767.473 239.347 766.663 238.942C766.663 238.942 781.242 242.182 790.354 242.587C786.102 236.714 783.672 235.297 776.18 234.082C776.18 234.082 776.18 234.082 777.597 233.475C785.697 231.45 794.607 233.88 802.503 230.437C801.694 230.032 800.479 229.627 799.466 229.222C797.644 220.718 802.098 220.92 820.525 221.123C821.942 219.705 824.372 218.491 826.195 218.086C826.195 218.086 831.459 219.705 844.216 218.896C843.406 218.288 842.393 217.478 841.583 216.871C842.393 216.871 843.608 216.871 844.418 216.871C846.578 214.036 849.143 212.281 852.113 211.606C889.168 210.796 919.136 238.537 956.191 237.929C956.799 237.119 957.406 236.107 957.811 235.5C957.609 234.487 957.204 233.272 957.001 232.462C975.225 236.917 991.019 251.091 1011.47 246.839C1011.07 245.826 1010.66 244.409 1010.46 243.397C1019.77 240.359 1028.28 245.016 1037.19 245.826C1037.19 245.826 1037.19 245.826 1035.16 245.421C1034.55 244.814 1033.54 244.004 1032.93 243.397C1035.23 243.397 1038.33 243.532 1042.25 243.802C1040.02 242.789 1037.19 241.574 1034.96 240.764C1034.55 239.954 1034.15 238.739 1033.95 237.929C1068.17 235.095 1070.6 236.917 1079.51 244.004C1095.1 256.558 1113.12 247.851 1129.72 250.079C1144.5 251.901 1159.29 252.104 1174.07 253.926C1175.89 254.128 1178.12 255.343 1179.74 256.153C1178.93 255.951 1177.71 255.546 1176.9 255.343C1189.05 259.798 1191.08 260.001 1196.75 261.013C1187.97 257.368 1183.04 254.466 1181.96 252.306C1210.92 250.686 1281.59 270.125 1293.33 282.882C1292.32 282.882 1291.11 282.882 1290.09 282.882C1291.51 283.489 1298.8 287.134 1304.87 291.791C1288.07 300.701 1278.55 283.084 1264.98 280.452C1269.57 283.557 1272.68 285.649 1274.3 286.729C1274.3 286.729 1273.08 288.551 1272.68 289.159C1284.42 295.436 1297.18 299.688 1308.11 307.585C1304.27 306.168 1303.46 305.763 1297.99 305.358C1298.6 306.573 1299.61 308.193 1300.22 309.407C1299.61 310.217 1298.8 311.23 1298.19 312.04C1301.84 315.28 1302.65 316.09 1306.7 322.974C1306.29 323.784 1305.68 324.796 1305.28 325.606C1290.7 322.367 1287.26 323.379 1284.02 324.189C1285.23 331.884 1305.28 343.425 1305.48 343.425C1305.48 343.425 1328.57 357.195 1340.51 370.964C1340.51 372.179 1340.31 373.596 1340.11 374.811C1342 377.106 1345.71 381.021 1351.24 386.555C1351.24 386.555 1351.24 386.555 1349.83 387.163C1351.65 394.25 1356.91 399.514 1360.36 405.589C1360.96 406.399 1361.77 410.044 1362.38 413.081C1361.57 412.271 1360.76 411.259 1359.95 410.449C1359.55 409.234 1360.15 407.614 1360.36 406.601C1337.27 381.493 1306.29 366.104 1280.98 343.628C1280.98 343.628 1282.4 341.4 1283.01 340.388C1273.29 313.862 1255.06 305.358 1249.8 305.56C1255.27 309.61 1256.68 310.42 1261.74 313.457C1260.94 313.457 1259.72 313.457 1258.71 313.457C1259.32 315.685 1260.53 318.722 1261.54 320.747C1245.95 310.217 1244.13 309.812 1237.04 307.99C1236.43 308.598 1235.62 309.61 1235.02 310.217C1235.56 313.862 1242.58 321.219 1256.08 332.289C1249.19 342.008 1241.09 334.921 1239.67 333.504C1240.48 332.896 1241.29 332.289 1242.1 331.681C1242.1 331.681 1242.1 331.681 1241.7 331.479C1239.88 331.276 1237.65 331.074 1235.83 331.074H1234.81C1234.81 331.074 1234.81 331.074 1232.79 331.074C1230.56 331.074 1227.73 330.669 1225.7 330.466C1225.7 330.466 1225.9 330.669 1226.11 330.669C1216.59 333.098 1206.47 322.569 1197.35 332.491C1190.06 340.388 1189.66 378.051 1223.27 378.658C1216.79 372.719 1213.15 368.736 1212.34 366.711C1212.34 366.711 1225.5 374.811 1227.73 381.493C1229.14 380.683 1231.37 379.671 1232.99 379.063C1231.57 377.848 1229.95 375.621 1229.35 373.798C1237.04 373.798 1247.77 376.026 1256.89 385.948C1256.08 385.948 1254.86 385.543 1253.85 385.543C1305.28 416.118 1318.24 474.03 1310.34 491.444C1309.33 491.849 1307.91 492.254 1306.9 492.659C1304.33 491.444 1301.64 489.284 1298.8 486.179C1298.8 486.179 1297.38 487.799 1296.78 488.406C1296.37 487.596 1295.76 486.584 1295.16 485.977C1296.17 488.001 1296.78 491.241 1296.57 493.469C1295.56 493.469 1294.35 493.064 1293.33 493.064C1306.49 504.403 1294.35 521.614 1302.85 533.764C1310.54 544.698 1325.53 547.128 1331.6 559.48C1333.22 562.719 1335.25 570.076 1337.68 581.551C1335.86 581.753 1333.63 582.361 1332.01 582.968C1332.01 583.778 1332.01 584.993 1332.01 585.803C1315 592.282 1308.11 560.087 1308.72 557.05C1309.53 557.657 1310.34 558.265 1311.15 558.872C1310.34 553.81 1309.73 552.392 1302.04 548.545H1302.44L1301.64 548.14C1301.64 548.14 1301.84 548.14 1302.04 548.343C1296.37 546.318 1290.3 545.913 1284.83 543.483C1284.42 541.661 1284.63 538.826 1285.44 537.206C1278.55 533.966 1275.72 524.652 1266.6 524.652C1258.3 524.652 1262.55 537.408 1254.05 537.206C1253.04 537.206 1252.03 536.598 1251.01 536.396C1250.2 529.309 1249.19 529.106 1245.75 528.094C1246.36 527.081 1247.57 525.867 1247.77 524.652C1248.18 522.222 1243.93 511.085 1236.23 514.325C1236.03 514.325 1213.96 529.511 1224.49 541.256C1237.45 555.632 1256.89 545.913 1271.67 553.607C1270.25 561.302 1261.54 565.959 1262.55 574.869C1262.96 578.311 1263.36 580.943 1276.73 595.725C1288.27 608.076 1297.59 616.581 1306.49 623.466C1305.89 623.871 1304.87 624.478 1304.27 625.085C1299.61 623.061 1296.78 618.201 1291.51 616.986C1291.92 617.188 1303.66 622.251 1305.08 637.235C1304.47 637.842 1303.86 638.652 1303.26 639.26C1311.76 641.149 1316.82 645.199 1318.44 651.409C1318.44 651.409 1317.23 653.029 1316.82 653.636C1320.06 660.723 1320.06 661.331 1319.45 665.988C1318.64 665.988 1317.43 666.19 1316.42 666.393C1315 670.645 1313.18 690.894 1316.82 699.196C1316.82 699.196 1316.82 699.196 1317.83 698.183C1316.01 709.523 1315.81 711.143 1307.3 719.647C1297.99 728.759 1284.63 731.999 1274.91 740.503C1273.89 737.263 1273.49 736.049 1269.64 733.416C1272.88 739.896 1273.29 740.908 1265.79 750.83C1265.79 750.83 1247.98 736.656 1244.13 768.244C1250.61 773.509 1253.24 778.571 1250.2 790.923C1247.37 800.035 1238.26 802.06 1233.19 802.464C1234.21 800.642 1235.62 798.01 1236.43 796.187C1237.24 779.583 1238.93 770.404 1241.5 768.649C1241.5 765.004 1241.5 756.702 1236.03 754.272C1232.99 752.855 1200.19 755.892 1202.42 774.319C1206.47 808.944 1243.72 825.548 1248.58 859.768C1250.2 871.918 1245.34 913.833 1227.12 900.266C1226.51 909.378 1218.21 933.069 1206.06 926.589C1207.28 924.564 1208.9 922.135 1210.11 920.11C1203.43 893.381 1173.46 884.674 1163.54 860.376C1142.28 874.55 1148.96 909.175 1149.77 913.023C1153.21 929.019 1167.39 937.119 1175.69 949.673C1190.06 970.934 1185.61 997.662 1195.53 1020.14C1195.94 1021.15 1197.56 1021.96 1198.37 1022.77C1177.31 1026.62 1169.61 1009.41 1161.11 971.541C1154.02 939.751 1150.58 929.424 1139.04 938.739C1136.2 928.007 1134.99 923.552 1137.42 904.721C1143.9 854.706 1121.62 817.651 1114.54 807.324C1114.94 818.664 1112.31 819.878 1108.66 821.498H1109.68ZM589.284 479.092C590.634 479.767 592.187 479.767 593.941 479.092C586.854 489.824 588.474 494.886 601.838 505.82C610.343 512.705 612.368 515.135 612.975 519.589C603.458 518.172 599.004 535.181 599.611 541.053C600.826 550.368 608.925 554.822 615.608 558.467C617.632 559.479 617.632 559.884 617.835 560.492H618.037C627.352 566.364 635.249 556.847 644.158 558.062C643.753 524.854 643.551 504.605 629.174 490.634C619.252 480.712 618.847 478.485 618.24 474.84C619.455 473.22 622.087 472.41 624.112 472.005C622.492 468.495 627.014 465.66 637.679 463.5C635.249 461.476 634.844 461.071 636.059 455.603C636.869 451.756 638.286 445.884 626.137 445.277C612.975 444.669 608.318 459.248 596.776 461.678C595.156 461.678 594.144 461.071 593.132 459.856C593.132 466.74 587.259 472.207 588.677 479.497L589.284 479.092ZM501.405 454.996C498.57 459.856 504.24 460.868 519.629 463.5C521.046 460.058 523.071 454.186 527.323 455.806C527.323 453.983 527.323 453.579 525.096 452.566C523.273 451.554 523.071 451.351 523.071 449.326C526.716 449.934 530.158 448.719 533.803 446.086C534.208 445.884 534.815 445.479 535.22 445.074C527.728 441.227 513.756 446.087 504.037 452.769C504.037 452.769 504.307 452.499 504.847 451.959C504.847 451.959 502.822 453.376 501.81 454.388C502.215 454.186 502.62 453.781 502.822 453.578L501.81 454.591L501.607 454.793L501.405 454.996ZM518.414 512.705C530.968 513.717 537.65 505.82 539.472 503.39C546.154 494.279 533.398 478.484 517.199 468.765C505.657 461.678 494.318 474.637 482.776 468.765C482.371 467.145 485.611 463.365 492.495 457.426C483.991 452.769 478.321 450.339 470.627 454.186L469.614 452.971L470.222 453.983H470.424C463.135 458.236 458.275 466.538 452.605 476.46C446.126 487.799 443.696 489.824 437.824 494.684C440.051 496.303 441.063 496.911 442.886 500.758C444.506 503.795 446.936 508.655 449.365 509.263C463.742 512.502 473.664 497.113 487.838 500.353C498.772 502.783 506.669 512.3 518.211 513.312L518.414 512.705ZM957.001 925.982C957.001 925.982 956.191 926.387 955.179 927.602C956.191 929.627 956.394 929.829 956.394 929.627C956.394 929.627 956.394 929.019 956.394 928.614C956.394 928.614 956.596 928.614 956.799 928.614H957.001C957.001 928.614 957.609 927.399 957.609 926.994C957.609 926.792 957.609 925.982 957.204 926.184L957.001 925.982ZM1543.2 1096.07C1546.64 1083.92 1545.83 1072.18 1542.6 1072.58C1541.79 1072.79 1541.38 1073.39 1540.37 1074.61C1540.37 1075.22 1540.37 1075.82 1540.57 1077.44C1540.57 1077.44 1540.37 1077.24 1540.17 1077.24C1539.56 1077.64 1539.36 1078.25 1539.36 1078.66C1539.36 1078.66 1539.76 1078.45 1540.57 1078.05C1540.98 1081.69 1540.17 1093.44 1540.17 1093.44C1539.96 1094.05 1538.95 1094.65 1538.55 1095.26C1536.52 1098.5 1535.1 1102.15 1532.67 1105.18C1531.26 1107.01 1530.45 1106.8 1529.84 1106.4C1527.41 1104.58 1526.19 1103.56 1522.55 1107.21C1522.55 1107.21 1521.87 1109.98 1520.52 1115.51C1520.52 1115.51 1531.46 1120.98 1539.76 1096.48C1539.76 1100.12 1539.76 1101.34 1540.17 1101.94H1540.37C1541.79 1100.73 1542.19 1099.92 1542.6 1098.3L1543.2 1096.88V1096.27V1095.87V1096.07ZM955.179 928.817C955.989 942.991 955.381 953.318 953.762 959.595C949.509 974.579 940.195 960.81 939.992 960.607C935.943 953.52 937.765 945.218 939.992 935.499C942.22 925.374 943.232 918.692 939.992 913.225C939.385 913.225 938.17 912.82 937.765 910.998L938.575 911.605C938.575 911.605 938.373 911.2 938.17 910.998C938.778 910.39 939.385 910.188 940.397 910.188C941.41 910.188 946.877 910.39 953.357 918.49C954.977 920.515 957.406 924.564 955.179 927.602C955.179 927.602 955.179 927.804 955.584 928.817H955.179ZM944.245 914.238C942.827 912.415 942.017 913.428 942.017 913.428C942.017 913.428 941.612 914.44 942.827 914.44C942.827 914.44 943.435 914.44 944.042 914.44L944.245 914.238ZM1484.68 1061.65C1470.71 1061.85 1469.5 1079.67 1456.94 1081.49C1451.88 1082.3 1454.72 1066.31 1454.72 1066.1C1454.72 1066.31 1454.51 1066.71 1454.51 1066.91C1456.13 1052.13 1456.94 1045.45 1447.02 1046.46C1442.77 1047.68 1438.92 1049.7 1434.06 1055.57C1434.87 1050.92 1433.25 1049.9 1432.64 1049.5C1431.83 1049.9 1431.43 1049.9 1430.42 1051.73C1436.29 1061.85 1441.35 1070.56 1450.87 1067.93C1447.43 1072.38 1441.35 1071.98 1437.1 1075.01C1443.38 1080.28 1435.48 1086.96 1438.72 1092.43C1439.93 1092.43 1440.74 1092.43 1445.4 1083.31C1445 1087.57 1444.79 1089.79 1446.82 1092.83C1449.25 1096.27 1453.91 1096.68 1456.74 1099.51C1461.4 1103.77 1461.4 1104.37 1462.41 1133.73C1461.8 1132.32 1459.78 1127.66 1450.26 1146.09C1455.12 1143.86 1460.59 1144.06 1465.45 1141.83C1460.39 1156.01 1470.91 1155.4 1471.72 1155C1472.74 1154.39 1481.44 1147.5 1480.03 1144.26C1480.03 1144.26 1479.62 1144.26 1479.42 1144.26C1482.52 1142.64 1484.41 1141.56 1485.09 1141.02C1485.09 1141.02 1485.09 1140.42 1485.09 1140.21V1140.82C1486.51 1139.4 1487.11 1138.39 1488.33 1135.15C1489.54 1139.61 1494.2 1141.63 1495.21 1146.09C1497.04 1153.17 1493.19 1160.46 1496.23 1167.55C1500.07 1176.05 1504.33 1172 1504.33 1172C1505.94 1170.38 1506.15 1166.94 1506.55 1164.71C1507.77 1156.41 1503.92 1148.31 1505.14 1139.81C1506.35 1131.1 1512.02 1124.01 1513.23 1115.31C1513.64 1112.88 1513.23 1109.44 1512.83 1107.01C1512.83 1106.6 1500.48 1061.45 1484.48 1061.85L1484.68 1061.65ZM1191.08 1113.08C1190.54 1111.73 1190.2 1110.72 1190.06 1110.04C1192.7 1108.63 1195.94 1109.84 1198.57 1108.02C1201.4 1106.2 1204.85 1102.96 1205.86 1099.72C1210.11 1087.57 1206.26 1075.82 1204.24 1069.55C1211.93 1082.5 1213.76 1085.74 1221.05 1081.49C1218.41 1078.86 1220.23 1076.23 1221.25 1075.82C1221.65 1076.02 1222.46 1076.63 1222.87 1076.23L1221.65 1075.01H1222.06C1222.06 1075.01 1221.65 1074.61 1221.45 1074.41C1211.87 1065.23 1205.32 1061.85 1201.81 1064.28C1197.35 1056.18 1191.28 1048.89 1188.04 1039.98C1186.01 1034.92 1187.23 1029.25 1184.8 1024.19C1182.98 1020.54 1181.16 1019.94 1177.51 1018.72C1176.5 1020.54 1176.3 1020.95 1176.5 1022.77C1174.68 1020.34 1173.46 1019.13 1171.23 1017.71C1172.18 1018.11 1173.06 1018.25 1173.87 1018.11C1175.28 1012.85 1167.79 1006.77 1167.79 1006.57C1161.72 1001.71 1154.22 999.08 1148.35 994.22C1140.66 987.943 1135.8 979.034 1127.5 973.364C1124.66 971.339 1118.79 967.289 1111.3 967.492C1110.69 967.492 1109.88 967.492 1109.27 967.492C1120.81 969.719 1138.84 1006.98 1162.32 1062.26C1178.52 1100.12 1185.81 1116.73 1191.48 1113.08H1191.08ZM1436.49 1075.01C1436.49 1075.01 1436.69 1075.01 1436.9 1074.81C1436.9 1074.81 1436.69 1074.81 1436.49 1075.01ZM1466.86 1173.42C1449.05 1196.3 1442.16 1225.66 1421.31 1246.52C1409.16 1258.67 1406.32 1234.17 1406.32 1233.97C1406.05 1229.11 1413.14 1213.31 1427.58 1186.58C1426.64 1187.53 1424.81 1189.28 1422.12 1191.85C1422.12 1189.22 1423.74 1186.99 1424.14 1184.36C1422.39 1188.14 1414.89 1185.91 1401.66 1177.67C1396.53 1187.53 1392.69 1192.79 1390.12 1193.47C1381.82 1195.7 1370.28 1205.21 1365.22 1224.65C1361.37 1222.63 1360.96 1222.42 1355.29 1224.65C1356.1 1217.56 1348.21 1215.74 1346.59 1209.87C1345.57 1211.08 1325.12 1231.94 1315 1236.19C1314.59 1240.65 1314.19 1241.86 1312.16 1246.52C1312.16 1246.11 1311.76 1245.51 1311.56 1244.9C1310.48 1245.98 1309.4 1247.73 1308.32 1250.16C1308.32 1247.94 1308.32 1245.51 1309.94 1238.02C1304.87 1241.05 1301.03 1243.68 1290.5 1255.83C1280.37 1267.78 1276.93 1270.21 1271.67 1273.25C1262.56 1278.31 1252.23 1279.12 1242.91 1283.37C1231.17 1288.64 1222.87 1300.18 1208.9 1301.39C1208.9 1299.98 1209.3 1298.15 1209.91 1296.94C1189.86 1307.27 1183.99 1329.94 1181.36 1339.66C1180.55 1343.04 1179.54 1345.27 1178.32 1346.35C1178.32 1346.35 1178.32 1343.92 1177.92 1342.9C1165.16 1357.69 1169.82 1379.15 1158.68 1394.54C1151.79 1404.05 1140.66 1409.32 1134.99 1419.85C1134.58 1420.66 1134.99 1421.67 1134.79 1422.48C1140.66 1427.34 1157.26 1420.66 1169.21 1416C1170.02 1415.6 1249.19 1386.64 1263.77 1397.37C1263.9 1399.13 1259.25 1408.17 1249.8 1424.51C1260.53 1417.22 1272.27 1411.14 1282.2 1402.84C1275.72 1415.6 1261.54 1418.63 1251.62 1426.73C1255.87 1426.13 1257.29 1425.11 1268.63 1416.81C1268.63 1416.81 1264.17 1420.73 1255.27 1428.56C1255.67 1428.56 1256.48 1428.96 1256.89 1429.16C1253.65 1439.09 1240.69 1442.12 1239.47 1453.46C1240.55 1454.27 1247.71 1452.58 1260.93 1448.4C1259.18 1450.02 1257.49 1451.17 1255.87 1451.84C1255.87 1451.84 1257.09 1451.84 1257.7 1451.84C1257.16 1453.33 1255.87 1455.28 1253.85 1457.71C1338.08 1418.23 1388.7 1361.73 1406.52 1339.26C1405.51 1340.27 1404.3 1341.69 1403.49 1342.9C1405.31 1340.68 1407.13 1338.65 1408.75 1336.42C1408.35 1336.83 1407.94 1337.44 1407.54 1337.84L1408.14 1337.03L1408.55 1336.63C1408.55 1336.63 1409.56 1335.21 1410.17 1334.6C1409.76 1335.01 1409.36 1335.61 1409.16 1336.02C1411.38 1332.98 1418.07 1324.07 1422.32 1312.53C1426.16 1302.61 1430.82 1292.89 1434.06 1282.76C1437.1 1273.86 1434.87 1263.93 1439.12 1255.43C1450.6 1232.48 1456.54 1216.96 1456.94 1208.86C1457.75 1187.39 1461.8 1181.12 1467.07 1173.02C1467.07 1173.02 1467.07 1173.02 1466.86 1173.02V1173.42ZM1391.34 1088.17C1393.77 1089.59 1397.82 1088.17 1398.83 1085.34C1399.03 1084.73 1399.03 1084.33 1399.03 1083.92C1398.63 1081.09 1395.59 1078.86 1392.35 1079.06C1389.72 1079.67 1389.51 1081.69 1389.51 1082.3C1389.51 1083.52 1389.11 1086.76 1391.54 1088.17H1391.34ZM1374.53 947.648C1374.13 948.255 1373.52 948.66 1373.32 949.065C1373.92 948.458 1374.33 948.053 1374.53 947.648ZM1406.32 948.863C1406.73 956.355 1406.93 956.76 1408.35 957.975C1408.95 955.95 1409.56 953.115 1409.97 951.09C1409.97 950.888 1413.81 922.54 1403.89 910.593C1403.89 910.593 1403.89 910.593 1403.89 910.39C1404.57 909.985 1404.77 907.015 1404.5 901.481C1403.89 903.101 1403.08 904.923 1402.47 906.543C1402.47 907.15 1402.88 908.163 1402.88 908.77C1400.72 907.285 1399.37 901.413 1398.83 891.154C1405.71 893.989 1403.69 883.459 1401.66 878.802C1399.03 872.525 1398.22 872.728 1392.15 873.538C1389.04 862.873 1386.81 857.473 1385.46 857.339C1384.79 857.878 1384.25 858.823 1383.84 860.173C1382.63 852.681 1374.33 852.884 1372.51 854.301C1371.9 854.909 1371.49 856.326 1371.49 857.136C1370.89 854.504 1370.89 852.479 1370.68 848.834C1370.89 847.417 1370.89 846.809 1370.89 845.392C1370.89 844.987 1370.89 844.379 1370.89 843.974C1370.28 831.015 1374.33 817.651 1369.27 804.894C1365.42 795.377 1352.26 801.654 1348.21 792.543V792.138C1348.21 792.138 1348.21 792.948 1348.21 793.15C1349.83 804.489 1344.97 816.234 1350.43 827.168C1349.62 826.965 1348.41 827.573 1347.6 827.978C1345.78 834.457 1349.22 847.214 1355.29 851.871C1357.52 850.656 1357.93 849.036 1356.31 846.607C1358.47 847.957 1359.01 852.276 1357.93 859.566C1357.93 859.566 1356.51 859.768 1355.7 859.971C1354.08 864.223 1356.31 866.856 1365.01 876.777C1370.08 870.5 1364 863.818 1359.95 860.173C1361.77 859.566 1364 859.161 1368.46 859.768C1367.44 862.401 1368.86 863.413 1370.08 864.223C1371.09 863.818 1371.9 863.413 1370.89 860.578C1376.35 862.401 1378.18 868.07 1382.63 871.108C1381.82 866.855 1379.8 865.438 1379.19 865.033C1379.19 863.413 1379.59 858.351 1384.86 863.818C1387.89 867.058 1390.53 872.12 1391.54 873.942C1391.34 873.942 1390.93 873.942 1390.73 873.942C1390.19 876.912 1392.35 881.772 1397.21 888.522C1395.79 889.737 1394.78 890.141 1393.56 888.522C1393.77 888.522 1394.17 888.522 1394.37 888.319C1394.37 887.239 1394.1 886.092 1393.56 884.877C1393.56 884.877 1392.55 885.889 1393.16 887.914L1392.75 886.902C1391.34 890.547 1391.34 893.786 1392.96 898.848H1392.55C1392.55 898.848 1393.36 900.401 1394.98 903.506L1402.07 916.262C1400.99 919.637 1396.67 925.577 1389.11 934.081C1389.11 934.081 1389.51 933.069 1389.51 932.664C1387.89 929.829 1378.58 930.437 1376.76 936.714C1375.75 940.561 1375.95 944.611 1374.13 948.458C1377.77 943.801 1378.58 941.573 1379.19 940.561C1382.63 945.218 1391.94 936.916 1392.15 942.991C1392.15 947.445 1389.11 951.698 1390.73 956.557C1392.15 961.215 1397.21 962.632 1399.44 966.277C1399.44 959.797 1404.7 955.545 1406.12 949.875L1406.32 948.863ZM1377.97 917.072C1379.59 917.072 1383.24 911.403 1384.86 908.163C1384.86 908.163 1385.67 903.303 1385.87 900.873C1386.48 893.179 1382.83 893.786 1382.83 893.786C1379.19 896.621 1374.94 916.87 1377.97 917.072ZM1382.63 880.422C1384.65 875.967 1385.67 873.335 1385.67 871.31C1385.67 871.31 1385.67 871.108 1385.67 870.905C1388.3 873.335 1390.93 877.79 1390.53 882.042C1390.53 883.257 1390.12 883.864 1389.92 884.472C1387.69 879.612 1385.26 879.005 1381.82 882.245C1381.82 881.84 1381.82 881.435 1381.82 881.03C1381.82 879.612 1381.82 879.41 1382.02 879.41C1382.02 879.41 1382.02 879.41 1382.43 880.017L1382.63 880.422ZM1417.66 1024.8C1417.66 1024.8 1416.45 1026.42 1415.84 1027.23C1416.24 1023.58 1415.84 1019.94 1416.45 1016.09C1416.72 1014.06 1417.26 1012.65 1418.07 1011.84C1418.07 1011.84 1417.46 1012.24 1417.26 1012.24C1414.83 1014.27 1412.19 1017.71 1410.98 1029.45C1410.98 1029.45 1410.84 1029.25 1410.57 1028.85C1410.17 1030.47 1410.57 1042.82 1411.18 1045.65C1412.19 1051.32 1413.61 1051.73 1414.62 1051.32C1411.18 1036.94 1420.7 1037.15 1420.7 1037.15C1419.48 1031.88 1419.48 1029.25 1422.72 1019.73C1420.9 1019.13 1417.26 1023.38 1417.46 1024.8H1417.66ZM956.394 930.842C956.394 930.842 956.394 931.044 956.596 931.246C956.191 930.031 955.584 928.817 955.179 927.602C955.179 928.007 955.179 928.412 955.179 928.817C955.584 929.424 955.786 930.234 956.191 930.842H956.394ZM640.918 1222.42L640.311 1221.21C640.311 1221.21 640.311 1221.61 640.311 1221.82C639.501 1219.79 639.501 1219.79 638.489 1219.39C638.219 1220.06 638.016 1224.65 637.881 1233.16C636.666 1230.93 636.261 1230.52 635.654 1228.09C632.414 1236.4 632.212 1240.24 634.844 1261.3C637.881 1287.22 633.021 1337.84 618.24 1338.85C612.975 1339.26 602.851 1331.77 599.206 1319.62C595.764 1308.28 591.512 1248.95 591.512 1248.75C591.917 1240.65 599.814 1238.42 603.661 1233.16C604.876 1231.54 605.281 1229.51 606.496 1227.89C607.103 1227.08 608.116 1226.07 608.723 1225.46C614.595 1219.39 615.405 1210.68 619.657 1203.79C622.087 1199.74 623.1 1194.68 626.947 1191.24C631.402 1190.03 635.046 1200.55 637.274 1209.67C638.894 1216.75 639.501 1219.18 641.121 1222.63L640.918 1222.42ZM639.704 1219.59C639.704 1219.59 639.299 1218.58 639.096 1218.17C639.096 1218.37 639.096 1218.58 639.299 1218.78C639.299 1218.98 639.501 1219.39 639.704 1219.59ZM1348 791.935V791.328C1348 791.328 1348 791.733 1348 791.935Z" fill="#14D7B3"/>
</g>
<g opacity="0.3">
<path d="M1032.31 795.375C1094.27 943.798 1148.14 1096.47 1185.8 1253C1200.18 1312.93 1212.32 1373.88 1218.8 1435.24C1223.26 1478.16 1226.09 1522.91 1218.6 1565.84C1214.35 1589.53 1206.05 1619.7 1182.15 1630.84C1159.68 1641.37 1133.56 1629.22 1114.32 1617.07C1080.71 1595.81 1052.56 1565.84 1026.85 1535.87C989.791 1492.74 956.785 1445.97 926.007 1398.18C844.607 1272.03 776.571 1137.17 716.23 999.685C649.612 848.022 591.903 691.499 549.381 531.129C532.777 468.358 518.4 404.979 509.086 340.791C502.201 293.409 497.139 244.609 500.784 196.62C502.808 168.676 507.061 133.444 528.119 112.385C545.331 95.1734 569.629 97.8057 590.283 107.12C622.681 121.699 649.612 147.82 673.708 173.131C710.156 211.604 742.149 254.329 772.117 298.066C853.922 417.736 921.553 547.125 982.096 678.54C999.713 717.012 1016.72 755.688 1033.12 794.768C1034.54 798.412 1040.41 796.792 1039 793.148C977.237 645.737 907.176 501.161 823.144 365.292C791.151 313.455 756.93 262.833 718.863 215.451C691.527 181.636 661.964 148.225 627.136 122.104C606.685 106.918 580.564 90.5162 553.835 93.5535C529.942 96.1858 514.958 115.422 506.858 136.481C493.494 171.309 493.089 211.401 494.506 248.254C496.734 305.355 505.643 362.052 516.983 417.938C548.976 575.271 600.407 729.162 659.534 878.192C720.482 1031.68 790.543 1181.92 874.17 1324.47C906.973 1380.36 942.004 1435.24 980.679 1487.07C1009.43 1525.54 1040.41 1563.41 1076.46 1595.2C1110.47 1625.17 1174.05 1668.1 1208.27 1614.64C1225.89 1587.1 1228.52 1550.45 1229.33 1518.66C1230.75 1466.62 1224.07 1414.58 1215.36 1363.35C1189.44 1210.68 1142.06 1061.44 1087.79 916.867C1072.2 875.358 1055.8 834.05 1038.79 793.148C1037.38 789.503 1031.5 791.123 1032.92 794.768L1032.31 795.375Z" fill="#14D7B3"/>
<path d="M322.811 1092.62C258.015 936.503 224.199 765.604 238.171 596.324C249.713 456.405 295.272 312.842 392.466 208.156C478.321 115.619 599.814 65.6046 725.963 70.8692C858.997 76.3364 984.742 137.083 1087.81 218.685C1209.71 315.272 1305.28 443.446 1372.91 582.96C1447.63 737.458 1490.56 909.37 1487.11 1081.48C1484.28 1224.44 1448.84 1372.86 1361.57 1488.69C1284.63 1590.74 1168.4 1656.55 1040.02 1663.43C910.632 1670.32 784.482 1621.11 679.189 1548.62C552.431 1461.35 451.188 1339.45 377.482 1205.2C357.436 1168.55 339.212 1130.89 323.013 1092.42C321.596 1088.77 315.724 1090.39 317.141 1094.04C379.507 1242.87 471.437 1380.96 592.727 1488.48C692.958 1577.38 815.868 1647.44 950.117 1665.66C1075.05 1682.67 1201.81 1648.65 1297.79 1565.83C1404.3 1473.9 1461.6 1337.23 1482.86 1200.75C1508.78 1034.3 1485.49 861.785 1429.81 703.643C1374.73 547.525 1287.46 400.924 1170.22 283.684C1072.82 186.49 951.737 106.507 816.07 76.3364C693.768 49.203 564.581 68.2369 460.907 140.525C347.919 219.292 280.693 347.062 250.523 478.881C213.67 639.454 227.237 809.746 272.796 967.079C285.351 1010.21 300.335 1052.53 317.546 1094.04C318.963 1097.68 324.836 1096.06 323.418 1092.42L322.811 1092.62Z" fill="#14D7B3"/>
<path d="M1622.58 542.265C1623.59 544.087 1624.6 545.91 1625.41 547.935C1635.53 572.436 1625.41 599.974 1613.46 621.64C1593.62 657.48 1564.26 687.854 1534.49 715.594C1492.58 754.674 1446.41 789.3 1399.03 821.495C1274.7 906.135 1140.05 975.993 1002.56 1036.74C850.693 1103.97 693.158 1160.66 531.776 1199.94C467.384 1215.54 402.184 1228.49 336.375 1235.58C287.981 1240.64 237.966 1243.48 189.572 1236.59C160.414 1232.34 125.586 1224.45 105.539 1200.75C99.2623 1193.26 95.6175 1184.96 93.9976 1176.25C89.5429 1174.23 85.2907 1172.2 80.8359 1170.38C80.8359 1171.39 80.8359 1172.41 81.0384 1173.22C84.2782 1200.75 103.92 1220.6 128.218 1231.94C163.653 1248.74 205.163 1251.98 243.838 1252.59C301.547 1253.4 359.256 1246.31 416.155 1236.59C576.525 1209.26 733.251 1158.64 884.509 1099.31C1038.4 1038.76 1189.05 967.286 1330.18 880.622C1385.46 846.806 1439.12 810.561 1489.95 770.063C1528.82 739.083 1566.89 705.47 1597.87 666.39C1626.42 630.55 1657.2 575.27 1632.09 534.166C1629.06 537 1626.02 539.633 1622.98 542.265H1622.58Z" fill="#14D7B3"/>
<path d="M1625.21 547.324C1690.61 704.86 1706.61 880.214 1668.95 1046.66C1632.09 1209.05 1546.04 1358.69 1423.94 1471.88C1296.37 1590.13 1130.94 1666.68 958.012 1687.33C792.783 1707.17 623.098 1675.99 475.485 1598.84C325.644 1520.48 201.924 1396.56 124.574 1246.11C46.0088 1093.43 16.4456 917.471 42.1615 747.787C67.0675 583.57 141.583 428.059 254.773 306.364C372.823 179.202 530.764 91.5252 700.651 57.5073C865.476 24.2993 1039.41 43.1306 1193.51 110.154C1346.99 176.975 1478.61 290.165 1566.28 432.716C1588.76 469.367 1608.4 507.637 1625.01 547.324C1628.04 554.411 1639.79 551.374 1636.75 544.085C1569.52 384.322 1454.51 247.845 1307.1 156.119C1163.94 67.2266 994.663 22.6794 826.395 29.969C650.231 37.6635 477.915 102.055 339.616 211.6C206.986 316.489 108.172 461.47 58.158 623.055C7.33363 787.475 8.54858 966.473 62.6127 1129.88C116.879 1294.71 221.97 1439.89 361.889 1542.55C498.366 1642.78 664.811 1699.88 834.09 1704.95C1010.05 1710.21 1186.22 1658.78 1332.01 1560.17C1472.74 1465 1582.28 1327.31 1644.04 1168.96C1706 1010.01 1718.15 833.439 1677.65 667.602C1667.33 625.282 1653.56 583.975 1636.95 543.882C1633.92 536.795 1622.17 539.832 1625.21 547.122V547.324Z" fill="#14D7B3"/>
</g>
<defs>
<filter id="filter0_d_2846_1706" x="91.6031" y="91.6026" width="1550.79" height="1550.79" filterUnits="userSpaceOnUse" color-interpolation-filters="sRGB">
<feFlood flood-opacity="0" result="BackgroundImageFix"/>
<feColorMatrix in="SourceAlpha" type="matrix" values="0 0 0 0 0 0 0 0 0 0 0 0 0 0 0 0 0 0 127 0" result="hardAlpha"/>
<feOffset/>
<feGaussianBlur stdDeviation="9.8"/>
<feColorMatrix type="matrix" values="0 0 0 0 0.184314 0 0 0 0 0.94902 0 0 0 0 0.745098 0 0 0 0.6 0"/>
<feBlend mode="normal" in2="BackgroundImageFix" result="effect1_dropShadow_2846_1706"/>
<feBlend mode="normal" in="SourceGraphic" in2="effect1_dropShadow_2846_1706" result="shape"/>
</filter>
<radialGradient id="paint0_radial_2846_1706" cx="0" cy="0" r="1" gradientUnits="userSpaceOnUse" gradientTransform="translate(867.191 866.79) scale(755.683)">
<stop stop-color="#837C9B"/>
<stop offset="0.25" stop-color="#1E6580"/>
<stop offset="0.82" stop-color="#1C1C29"/>
<stop offset="0.9" stop-color="#1D1D21"/>
<stop offset="0.92" stop-color="#1D2328"/>
<stop offset="0.95" stop-color="#1D363B"/>
<stop offset="0.99" stop-color="#1E545B"/>
<stop offset="1" stop-color="#1F6068"/>
</radialGradient>
</defs>
</svg>
